Urbanist-Bold.ufo
<glyph name="exclam" format="2">
  <advance width="446.0"/>
  <unicode hex="0021"/>
  <outline>
    <contour>
      <point x="102.0" y="420.0" type="line"/>
      <point x="304.4" y="420.0" type="line"/>
      <point x="304.4" y="1400.0" type="line"/>
      <point x="102.0" y="1400.0" type="line"/>
    </contour>
    <contour>
      <point x="204.0" y="-26.0" type="curve" smooth="yes"/>
      <point x="271.6" y="-26.0"/>
      <point x="326.0" y="28.4"/>
      <point x="326.0" y="99.6" type="curve" smooth="yes"/>
      <point x="326.0" y="167.2"/>
      <point x="271.6" y="221.6"/>
      <point x="204.0" y="221.6" type="curve" smooth="yes"/>
      <point x="134.4" y="221.6"/>
      <point x="80.0" y="167.2"/>
      <point x="80.0" y="99.6" type="curve" smooth="yes"/>
      <point x="80.0" y="28.4"/>
      <point x="134.4" y="-26.0"/>
    </contour>
  </outline>
</glyph>
<glyph name="numbersign" format="2">
  <advance width="1570.5"/>
  <unicode hex="0023"/>
  <outline>
    <contour>
      <point x="1428.0" y="879.6" type="line"/>
      <point x="1490.4" y="1111.6" type="line"/>
      <point x="1322.4" y="1111.6" type="line"/>
      <point x="1398.4" y="1400.0" type="line"/>
      <point x="1158.4" y="1400.0" type="line"/>
      <point x="1082.4" y="1111.6" type="line"/>
      <point x="709.2" y="1111.6" type="line"/>
      <point x="786.4" y="1400.0" type="line"/>
      <point x="546.4" y="1400.0" type="line"/>
      <point x="469.2" y="1111.6" type="line"/>
      <point x="300.4" y="1111.6" type="line"/>
      <point x="238.0" y="879.6" type="line"/>
      <point x="408.0" y="879.6" type="line"/>
      <point x="310.4" y="521.2" type="line"/>
      <point x="142.4" y="521.2" type="line"/>
      <point x="80.0" y="289.2" type="line"/>
      <point x="248.4" y="289.2" type="line"/>
      <point x="172.0" y="0.0" type="line"/>
      <point x="412.0" y="0.0" type="line"/>
      <point x="488.4" y="289.2" type="line"/>
      <point x="862.0" y="289.2" type="line"/>
      <point x="784.0" y="0.0" type="line"/>
      <point x="1024.0" y="0.0" type="line"/>
      <point x="1102.0" y="289.2" type="line"/>
      <point x="1270.0" y="289.2" type="line"/>
      <point x="1332.4" y="521.2" type="line"/>
      <point x="1162.4" y="521.2" type="line"/>
      <point x="1260.0" y="879.6" type="line"/>
    </contour>
    <contour>
      <point x="922.4" y="521.2" type="line"/>
      <point x="550.4" y="521.2" type="line"/>
      <point x="648.0" y="879.6" type="line"/>
      <point x="1020.0" y="879.6" type="line"/>
    </contour>
  </outline>
</glyph>
<glyph name="dollar" format="2">
  <advance width="1207.5"/>
  <unicode hex="0024"/>
  <outline>
    <contour>
      <point x="603.6" y="1182.4" type="curve"/>
      <point x="746.4" y="1182.4"/>
      <point x="872.4" y="1118.4"/>
      <point x="901.6" y="1035.6" type="curve"/>
      <point x="1127.6" y="1117.2" type="line"/>
      <point x="1066.0" y="1287.6"/>
      <point x="883.2" y="1396.0"/>
      <point x="686.4" y="1419.2" type="curve"/>
      <point x="686.4" y="1624.0" type="line"/>
      <point x="521.6" y="1624.0" type="line"/>
      <point x="521.6" y="1419.2" type="line"/>
      <point x="280.0" y="1389.6"/>
      <point x="82.4" y="1230.4"/>
      <point x="82.4" y="1001.6" type="curve"/>
      <point x="82.4" y="733.2"/>
      <point x="306.0" y="625.2"/>
      <point x="603.6" y="579.2" type="curve"/>
      <point x="741.6" y="557.2"/>
      <point x="885.2" y="508.4"/>
      <point x="885.2" y="396.4" type="curve"/>
      <point x="885.2" y="287.2"/>
      <point x="750.0" y="214.0"/>
      <point x="603.6" y="214.0" type="curve"/>
      <point x="460.4" y="214.0"/>
      <point x="334.4" y="279.6"/>
      <point x="305.6" y="362.4" type="curve"/>
      <point x="80.0" y="279.2" type="line"/>
      <point x="141.2" y="111.6"/>
      <point x="320.4" y="2.799999999999999"/>
      <point x="521.6" y="-20.0" type="curve"/>
      <point x="521.6" y="-224.0" type="line"/>
      <point x="686.4" y="-224.0" type="line"/>
      <point x="686.4" y="-20.0" type="line"/>
      <point x="928.0" y="10.0"/>
      <point x="1125.2" y="168.4"/>
      <point x="1125.2" y="396.4" type="curve"/>
      <point x="1125.2" y="646.4"/>
      <point x="884.0" y="776.4"/>
      <point x="603.6" y="820.0" type="curve"/>
      <point x="447.6" y="845.2"/>
      <point x="322.4" y="866.4"/>
      <point x="322.4" y="1001.6" type="curve"/>
      <point x="322.4" y="1107.6"/>
      <point x="459.6" y="1184.0"/>
    </contour>
  </outline>
</glyph>
<glyph name="percent" format="2">
  <advance width="1499.5"/>
  <unicode hex="0025"/>
  <outline>
    <contour>
      <point x="207.2" y="0.0" type="line"/>
      <point x="484.0" y="0.0" type="line"/>
      <point x="1292.0" y="1400.0" type="line"/>
      <point x="1015.2" y="1400.0" type="line"/>
    </contour>
    <contour>
      <point x="378.4" y="795.2" type="curve" smooth="yes"/>
      <point x="537.2" y="795.2"/>
      <point x="675.6" y="923.2"/>
      <point x="675.6" y="1092.0" type="curve" smooth="yes"/>
      <point x="675.6" y="1258.0"/>
      <point x="541.6" y="1389.6"/>
      <point x="378.4" y="1389.6" type="curve" smooth="yes"/>
      <point x="218.4" y="1389.6"/>
      <point x="80.0" y="1262.4"/>
      <point x="80.0" y="1092.0" type="curve" smooth="yes"/>
      <point x="80.0" y="926.0"/>
      <point x="215.6" y="795.2"/>
    </contour>
    <contour>
      <point x="378.4" y="960.0" type="curve" smooth="yes"/>
      <point x="304.4" y="960.0"/>
      <point x="245.2" y="1018.4"/>
      <point x="245.2" y="1092.0" type="curve" smooth="yes"/>
      <point x="245.2" y="1166.0"/>
      <point x="304.4" y="1224.4"/>
      <point x="378.4" y="1224.4" type="curve" smooth="yes"/>
      <point x="451.2" y="1224.4"/>
      <point x="510.4" y="1166.0"/>
      <point x="510.4" y="1092.0" type="curve" smooth="yes"/>
      <point x="510.4" y="1018.4"/>
      <point x="451.2" y="960.0"/>
    </contour>
    <contour>
      <point x="1121.2" y="9.200000000000003" type="curve" smooth="yes"/>
      <point x="1285.6" y="9.200000000000003"/>
      <point x="1419.6" y="143.6"/>
      <point x="1419.6" y="306.4" type="curve" smooth="yes"/>
      <point x="1419.6" y="465.2"/>
      <point x="1291.6" y="605.2"/>
      <point x="1121.2" y="605.2" type="curve" smooth="yes"/>
      <point x="962.4" y="605.2"/>
      <point x="823.6" y="475.6"/>
      <point x="823.6" y="306.4" type="curve" smooth="yes"/>
      <point x="823.6" y="149.6"/>
      <point x="955.2" y="9.200000000000003"/>
    </contour>
    <contour>
      <point x="1121.2" y="174.0" type="curve" smooth="yes"/>
      <point x="1048.4" y="174.0"/>
      <point x="988.4" y="234.0"/>
      <point x="988.4" y="306.4" type="curve" smooth="yes"/>
      <point x="988.4" y="380.0"/>
      <point x="1048.4" y="440.0"/>
      <point x="1121.2" y="440.0" type="curve" smooth="yes"/>
      <point x="1194.4" y="440.0"/>
      <point x="1254.4" y="380.0"/>
      <point x="1254.4" y="306.4" type="curve" smooth="yes"/>
      <point x="1254.4" y="234.0"/>
      <point x="1194.4" y="174.0"/>
    </contour>
  </outline>
</glyph>
<glyph name="ampersand" format="2">
  <advance width="1430.0"/>
  <unicode hex="0026"/>
  <outline>
    <contour>
      <point x="509.6" y="-26.0" type="curve" smooth="yes"/>
      <point x="677.6" y="-26.0"/>
      <point x="739.2" y="25.2"/>
      <point x="947.2" y="233.2" type="curve"/>
      <point x="1180.4" y="0.0" type="line"/>
      <point x="1350.0" y="169.6" type="line"/>
      <point x="1116.0" y="403.2" type="line"/>
      <point x="1198.4" y="485.6" type="line"/>
      <point x="1198.4" y="824.4" type="line"/>
      <point x="947.2" y="573.6" type="line"/>
      <point x="679.6" y="841.2" type="line"/>
      <point x="789.2" y="950.4"/>
      <point x="829.2" y="1007.2"/>
      <point x="829.2" y="1121.6" type="curve" smooth="yes"/>
      <point x="829.2" y="1300.4"/>
      <point x="685.2" y="1441.2"/>
      <point x="509.6" y="1441.2" type="curve" smooth="yes"/>
      <point x="339.2" y="1441.2"/>
      <point x="192.0" y="1304.4"/>
      <point x="192.0" y="1121.6" type="curve" smooth="yes"/>
      <point x="192.0" y="1009.6"/>
      <point x="227.6" y="954.0"/>
      <point x="340.0" y="841.2" type="curve"/>
      <point x="136.0" y="637.2"/>
      <point x="80.0" y="574.0"/>
      <point x="80.0" y="404.0" type="curve" smooth="yes"/>
      <point x="80.0" y="176.0"/>
      <point x="264.0" y="-26.0"/>
    </contour>
    <contour>
      <point x="509.6" y="214.0" type="curve" smooth="yes"/>
      <point x="410.0" y="214.0"/>
      <point x="320.4" y="293.6"/>
      <point x="320.4" y="403.2" type="curve" smooth="yes"/>
      <point x="320.4" y="496.4"/>
      <point x="356.0" y="517.6"/>
      <point x="509.6" y="671.6" type="curve"/>
      <point x="777.6" y="403.6" type="line"/>
      <point x="630.4" y="255.6"/>
      <point x="604.0" y="214.0"/>
    </contour>
    <contour>
      <point x="509.6" y="976.0" type="curve"/>
      <point x="427.6" y="1057.2"/>
      <point x="402.0" y="1071.2"/>
      <point x="402.0" y="1126.0" type="curve" smooth="yes"/>
      <point x="402.0" y="1185.6"/>
      <point x="452.0" y="1234.0"/>
      <point x="509.6" y="1234.0" type="curve" smooth="yes"/>
      <point x="561.6" y="1234.0"/>
      <point x="617.6" y="1193.2"/>
      <point x="617.6" y="1126.0" type="curve" smooth="yes"/>
      <point x="617.6" y="1071.6"/>
      <point x="599.2" y="1063.6"/>
    </contour>
  </outline>
</glyph>
<glyph name="quotesingle" format="2">
  <advance width="295.0"/>
  <unicode hex="0027"/>
  <outline>
    <contour>
      <point x="65.2" y="878.0" type="line"/>
      <point x="230.0" y="878.0" type="line"/>
      <point x="230.0" y="1400.0" type="line"/>
      <point x="65.2" y="1400.0" type="line"/>
    </contour>
  </outline>
</glyph>
<glyph name="parenleft" format="2">
  <advance width="753.5"/>
  <unicode hex="0028"/>
  <outline>
    <contour>
      <point x="413.6" y="-112.0" type="curve"/>
      <point x="653.6" y="-112.0" type="line"/>
      <point x="508.0" y="51.6"/>
      <point x="363.2" y="331.2"/>
      <point x="360.0" y="644.0" type="curve" smooth="yes"/>
      <point x="363.2" y="900.0"/>
      <point x="514.0" y="1300.4"/>
      <point x="653.6" y="1400.0" type="curve"/>
      <point x="413.6" y="1400.0" type="line"/>
      <point x="241.6" y="1311.6"/>
      <point x="120.0" y="887.2"/>
      <point x="120.0" y="644.0" type="curve" smooth="yes"/>
      <point x="120.0" y="335.6"/>
      <point x="206.4" y="90.0"/>
    </contour>
  </outline>
</glyph>
<glyph name="parenright" format="2">
  <advance width="753.5"/>
  <unicode hex="0029"/>
  <outline>
    <contour>
      <point x="100.0" y="-112.0" type="curve"/>
      <point x="340.0" y="-112.0" type="line"/>
      <point x="547.2" y="90.0"/>
      <point x="633.6" y="335.6"/>
      <point x="633.6" y="644.0" type="curve" smooth="yes"/>
      <point x="633.6" y="887.2"/>
      <point x="512.0" y="1311.6"/>
      <point x="340.0" y="1400.0" type="curve"/>
      <point x="100.0" y="1400.0" type="line"/>
      <point x="239.6" y="1300.4"/>
      <point x="390.4" y="900.0"/>
      <point x="393.6" y="644.0" type="curve" smooth="yes"/>
      <point x="390.4" y="331.2"/>
      <point x="245.6" y="51.6"/>
    </contour>
  </outline>
</glyph>
<glyph name="asterisk" format="2">
  <advance width="723.0"/>
  <unicode hex="002A"/>
  <outline>
    <contour>
      <point x="244.4" y="836.0" type="line"/>
      <point x="346.4" y="975.6" type="line"/>
      <point x="446.4" y="836.0" type="line"/>
      <point x="580.4" y="933.6" type="line"/>
      <point x="478.4" y="1072.4" type="line"/>
      <point x="643.2" y="1124.4" type="line"/>
      <point x="592.0" y="1282.4" type="line"/>
      <point x="429.2" y="1229.6" type="line"/>
      <point x="429.2" y="1400.0" type="line"/>
      <point x="264.0" y="1400.0" type="line"/>
      <point x="264.0" y="1229.6" type="line"/>
      <point x="99.6" y="1282.4" type="line"/>
      <point x="50.0" y="1124.4" type="line"/>
      <point x="212.4" y="1072.4" type="line"/>
      <point x="111.2" y="933.6" type="line"/>
    </contour>
  </outline>
</glyph>
<glyph name="plus" format="2">
  <advance width="1160.0"/>
  <unicode hex="002B"/>
  <outline>
    <contour>
      <point x="460.0" y="100.0" type="line"/>
      <point x="700.0" y="100.0" type="line"/>
      <point x="700.0" y="480.0" type="line"/>
      <point x="1080.0" y="480.0" type="line"/>
      <point x="1080.0" y="720.0" type="line"/>
      <point x="700.0" y="720.0" type="line"/>
      <point x="700.0" y="1100.0" type="line"/>
      <point x="460.0" y="1100.0" type="line"/>
      <point x="460.0" y="720.0" type="line"/>
      <point x="80.0" y="720.0" type="line"/>
      <point x="80.0" y="480.0" type="line"/>
      <point x="460.0" y="480.0" type="line"/>
    </contour>
  </outline>
</glyph>
<glyph name="comma" format="2">
  <advance width="502.0"/>
  <unicode hex="002C"/>
  <outline>
    <contour>
      <point x="80.0" y="-112.0" type="line"/>
      <point x="240.0" y="-112.0" type="line"/>
      <point x="382.0" y="226.0" type="line"/>
      <point x="142.0" y="226.0" type="line"/>
    </contour>
  </outline>
</glyph>
<glyph name="period" format="2">
  <advance width="447.5"/>
  <unicode hex="002E"/>
  <outline>
    <contour>
      <point x="203.6" y="-26.0" type="curve" smooth="yes"/>
      <point x="271.6" y="-26.0"/>
      <point x="327.6" y="28.4"/>
      <point x="327.6" y="98.0" type="curve" smooth="yes"/>
      <point x="327.6" y="165.6"/>
      <point x="271.6" y="221.6"/>
      <point x="203.6" y="221.6" type="curve" smooth="yes"/>
      <point x="134.4" y="221.6"/>
      <point x="80.0" y="165.6"/>
      <point x="80.0" y="98.0" type="curve" smooth="yes"/>
      <point x="80.0" y="28.4"/>
      <point x="134.4" y="-26.0"/>
    </contour>
  </outline>
</glyph>
<glyph name="slash" format="2">
  <advance width="805.5"/>
  <unicode hex="002F"/>
  <outline>
    <contour>
      <point x="725.6" y="1400.0" type="line"/>
      <point x="485.6" y="1400.0" type="line"/>
      <point x="80.0" y="-112.0" type="line"/>
      <point x="320.0" y="-112.0" type="line"/>
    </contour>
  </outline>
</glyph>
<glyph name="zero" format="2">
  <advance width="1208.0"/>
  <unicode hex="0030"/>
  <outline>
    <contour>
      <point x="605.2" y="-26.0" type="curve" smooth="yes"/>
      <point x="930.0" y="-26.0"/>
      <point x="1148.0" y="300.0"/>
      <point x="1148.0" y="700.0" type="curve" smooth="yes"/>
      <point x="1148.0" y="1100.4"/>
      <point x="930.0" y="1426.0"/>
      <point x="605.2" y="1426.0" type="curve" smooth="yes"/>
      <point x="279.6" y="1426.0"/>
      <point x="60.0" y="1100.4"/>
      <point x="60.0" y="700.0" type="curve" smooth="yes"/>
      <point x="60.0" y="300.0"/>
      <point x="279.6" y="-26.0"/>
    </contour>
    <contour>
      <point x="605.2" y="214.0" type="curve" smooth="yes"/>
      <point x="391.2" y="214.0"/>
      <point x="285.2" y="446.0"/>
      <point x="285.2" y="700.0" type="curve" smooth="yes"/>
      <point x="285.2" y="953.2"/>
      <point x="387.2" y="1186.0"/>
      <point x="605.2" y="1186.0" type="curve" smooth="yes"/>
      <point x="813.2" y="1186.0"/>
      <point x="923.2" y="968.0"/>
      <point x="923.2" y="700.0" type="curve" smooth="yes"/>
      <point x="923.2" y="445.6"/>
      <point x="820.4" y="214.0"/>
    </contour>
  </outline>
</glyph>
<glyph name="one" format="2">
  <advance width="655.0"/>
  <unicode hex="0031"/>
  <outline>
    <contour>
      <point x="255.2" y="0.0" type="line"/>
      <point x="495.2" y="0.0" type="line"/>
      <point x="495.2" y="1400.0" type="line"/>
      <point x="145.2" y="1400.0" type="line"/>
      <point x="80.0" y="1160.0" type="line"/>
      <point x="255.2" y="1160.0" type="line"/>
    </contour>
  </outline>
</glyph>
<glyph name="two" format="2">
  <advance width="1141.0"/>
  <unicode hex="0032"/>
  <outline>
    <contour>
      <point x="80.0" y="0.0" type="line"/>
      <point x="1021.2" y="0.0" type="line"/>
      <point x="1021.2" y="240.0" type="line"/>
      <point x="518.4" y="240.0" type="line"/>
      <point x="788.4" y="498.4"/>
      <point x="1013.2" y="733.6"/>
      <point x="1013.2" y="961.6" type="curve" smooth="yes"/>
      <point x="1013.2" y="1219.2"/>
      <point x="805.2" y="1426.0"/>
      <point x="551.2" y="1426.0" type="curve" smooth="yes"/>
      <point x="299.6" y="1426.0"/>
      <point x="87.2" y="1223.6"/>
      <point x="87.2" y="961.6" type="curve"/>
      <point x="327.2" y="961.6" type="line"/>
      <point x="327.2" y="1084.4"/>
      <point x="428.0" y="1186.0"/>
      <point x="551.2" y="1186.0" type="curve" smooth="yes"/>
      <point x="674.0" y="1186.0"/>
      <point x="773.2" y="1084.4"/>
      <point x="773.2" y="961.6" type="curve" smooth="yes"/>
      <point x="773.2" y="774.4"/>
      <point x="299.6" y="381.2"/>
      <point x="80.0" y="214.0" type="curve"/>
    </contour>
  </outline>
</glyph>
<glyph name="three" format="2">
  <advance width="1021.0"/>
  <unicode hex="0033"/>
  <outline>
    <contour>
      <point x="510.4" y="-26.0" type="curve" smooth="yes"/>
      <point x="755.6" y="-26.0"/>
      <point x="961.2" y="174.4"/>
      <point x="961.2" y="419.6" type="curve" smooth="yes"/>
      <point x="961.2" y="553.6"/>
      <point x="896.4" y="697.6"/>
      <point x="773.2" y="742.4" type="curve"/>
      <point x="868.0" y="785.6"/>
      <point x="921.6" y="903.2"/>
      <point x="921.6" y="1013.6" type="curve" smooth="yes"/>
      <point x="921.6" y="1243.2"/>
      <point x="726.0" y="1427.6"/>
      <point x="501.2" y="1427.6" type="curve" smooth="yes"/>
      <point x="272.4" y="1427.6"/>
      <point x="66.4" y="1241.6"/>
      <point x="66.4" y="1013.6" type="curve"/>
      <point x="306.4" y="1013.6" type="line"/>
      <point x="306.4" y="1108.4"/>
      <point x="407.2" y="1187.6"/>
      <point x="504.0" y="1187.6" type="curve" smooth="yes"/>
      <point x="599.2" y="1187.6"/>
      <point x="681.6" y="1108.4"/>
      <point x="681.6" y="1013.6" type="curve" smooth="yes"/>
      <point x="681.6" y="889.6"/>
      <point x="576.0" y="826.0"/>
      <point x="410.4" y="826.0" type="curve"/>
      <point x="410.4" y="640.0" type="line"/>
      <point x="595.2" y="640.0"/>
      <point x="721.2" y="567.2"/>
      <point x="721.2" y="419.6" type="curve" smooth="yes"/>
      <point x="721.2" y="307.2"/>
      <point x="622.4" y="214.0"/>
      <point x="510.4" y="214.0" type="curve" smooth="yes"/>
      <point x="388.0" y="214.0"/>
      <point x="300.0" y="307.2"/>
      <point x="300.0" y="419.6" type="curve"/>
      <point x="60.0" y="419.6" type="line"/>
      <point x="60.0" y="173.2"/>
      <point x="257.2" y="-26.0"/>
    </contour>
  </outline>
</glyph>
<glyph name="four" format="2">
  <advance width="1155.5"/>
  <unicode hex="0034"/>
  <outline>
    <contour>
      <point x="676.4" y="0.0" type="line"/>
      <point x="916.4" y="0.0" type="line"/>
      <point x="916.4" y="341.2" type="line"/>
      <point x="1035.6" y="341.2" type="line"/>
      <point x="1035.6" y="581.2" type="line"/>
      <point x="916.4" y="581.2" type="line"/>
      <point x="916.4" y="1400.0" type="line"/>
      <point x="620.4" y="1400.0" type="line"/>
      <point x="80.0" y="582.0" type="line"/>
      <point x="80.0" y="341.2" type="line"/>
      <point x="676.4" y="341.2" type="line"/>
    </contour>
    <contour>
      <point x="358.4" y="582.0" type="line"/>
      <point x="675.6" y="1072.4" type="line"/>
      <point x="676.4" y="581.2" type="line"/>
    </contour>
  </outline>
</glyph>
<glyph name="five" format="2">
  <advance width="1147.5"/>
  <unicode hex="0035"/>
  <outline>
    <contour>
      <point x="549.6" y="-26.0" type="curve" smooth="yes"/>
      <point x="814.0" y="-26.0"/>
      <point x="1027.6" y="190.0"/>
      <point x="1027.6" y="452.0" type="curve" smooth="yes"/>
      <point x="1027.6" y="719.6"/>
      <point x="828.4" y="924.0"/>
      <point x="544.0" y="933.2" type="curve"/>
      <point x="443.2" y="934.4" type="line"/>
      <point x="489.2" y="1160.0" type="line"/>
      <point x="981.2" y="1160.0" type="line"/>
      <point x="981.2" y="1400.0" type="line"/>
      <point x="294.0" y="1400.0" type="line"/>
      <point x="147.2" y="694.4" type="line"/>
      <point x="506.0" y="694.4" type="line" smooth="yes"/>
      <point x="708.4" y="694.4"/>
      <point x="787.6" y="584.0"/>
      <point x="787.6" y="452.0" type="curve" smooth="yes"/>
      <point x="787.6" y="320.0"/>
      <point x="680.0" y="214.0"/>
      <point x="549.6" y="214.0" type="curve" smooth="yes"/>
      <point x="417.2" y="214.0"/>
      <point x="310.0" y="320.0"/>
      <point x="310.0" y="452.0" type="curve"/>
      <point x="70.0" y="452.0" type="line"/>
      <point x="70.0" y="193.2"/>
      <point x="279.6" y="-26.0"/>
    </contour>
  </outline>
</glyph>
<glyph name="six" format="2">
  <advance width="1097.5"/>
  <unicode hex="0036"/>
  <outline>
    <contour>
      <point x="542.0" y="-26.0" type="curve" smooth="yes"/>
      <point x="816.0" y="-26.0"/>
      <point x="1037.6" y="197.2"/>
      <point x="1037.6" y="468.0" type="curve" smooth="yes"/>
      <point x="1037.6" y="752.4"/>
      <point x="793.6" y="967.6"/>
      <point x="525.2" y="943.6" type="curve"/>
      <point x="789.2" y="1400.0" type="line"/>
      <point x="510.4" y="1400.0" type="line"/>
      <point x="118.0" y="719.2" type="line" smooth="yes"/>
      <point x="71.6" y="637.2"/>
      <point x="50.0" y="560.0"/>
      <point x="50.0" y="468.0" type="curve" smooth="yes"/>
      <point x="50.0" y="195.6"/>
      <point x="273.2" y="-26.0"/>
    </contour>
    <contour>
      <point x="542.0" y="214.0" type="curve" smooth="yes"/>
      <point x="410.0" y="214.0"/>
      <point x="290.0" y="322.4"/>
      <point x="290.0" y="467.2" type="curve" smooth="yes"/>
      <point x="290.0" y="600.0"/>
      <point x="395.2" y="721.6"/>
      <point x="544.0" y="721.6" type="curve" smooth="yes"/>
      <point x="686.4" y="721.6"/>
      <point x="797.6" y="606.4"/>
      <point x="797.6" y="467.2" type="curve" smooth="yes"/>
      <point x="797.6" y="337.2"/>
      <point x="689.6" y="214.0"/>
    </contour>
  </outline>
</glyph>
<glyph name="seven" format="2">
  <advance width="1098.5"/>
  <unicode hex="0037"/>
  <outline>
    <contour>
      <point x="111.6" y="0.0" type="line"/>
      <point x="388.0" y="0.0" type="line"/>
      <point x="1058.4" y="1160.0" type="line"/>
      <point x="1058.4" y="1400.0" type="line"/>
      <point x="40.0" y="1400.0" type="line"/>
      <point x="40.0" y="1160.0" type="line"/>
      <point x="780.0" y="1160.0" type="line"/>
    </contour>
  </outline>
</glyph>
<glyph name="eight" format="2">
  <advance width="1088.5"/>
  <unicode hex="0038"/>
  <outline>
    <contour>
      <point x="543.6" y="-26.0" type="curve" smooth="yes"/>
      <point x="801.2" y="-26.0"/>
      <point x="1008.4" y="170.0"/>
      <point x="1008.4" y="412.0" type="curve" smooth="yes"/>
      <point x="1008.4" y="540.4"/>
      <point x="946.0" y="658.4"/>
      <point x="843.6" y="736.4" type="curve"/>
      <point x="923.6" y="806.0"/>
      <point x="976.4" y="906.4"/>
      <point x="976.4" y="1018.0" type="curve" smooth="yes"/>
      <point x="976.4" y="1243.2"/>
      <point x="782.0" y="1426.0"/>
      <point x="543.6" y="1426.0" type="curve" smooth="yes"/>
      <point x="305.2" y="1426.0"/>
      <point x="110.4" y="1243.2"/>
      <point x="110.4" y="1018.0" type="curve" smooth="yes"/>
      <point x="110.4" y="906.4"/>
      <point x="163.6" y="806.0"/>
      <point x="243.6" y="736.4" type="curve"/>
      <point x="143.2" y="658.4"/>
      <point x="80.0" y="540.4"/>
      <point x="80.0" y="412.0" type="curve" smooth="yes"/>
      <point x="80.0" y="168.4"/>
      <point x="286.0" y="-26.0"/>
    </contour>
    <contour>
      <point x="543.6" y="214.0" type="curve" smooth="yes"/>
      <point x="427.6" y="214.0"/>
      <point x="332.0" y="302.4"/>
      <point x="332.0" y="412.0" type="curve" smooth="yes"/>
      <point x="332.0" y="521.6"/>
      <point x="427.6" y="610.0"/>
      <point x="543.6" y="610.0" type="curve" smooth="yes"/>
      <point x="660.4" y="610.0"/>
      <point x="755.2" y="521.6"/>
      <point x="755.2" y="412.0" type="curve" smooth="yes"/>
      <point x="755.2" y="302.4"/>
      <point x="660.4" y="214.0"/>
    </contour>
    <contour>
      <point x="543.6" y="850.0" type="curve" smooth="yes"/>
      <point x="444.0" y="850.0"/>
      <point x="364.0" y="925.6"/>
      <point x="364.0" y="1018.0" type="curve" smooth="yes"/>
      <point x="364.0" y="1110.4"/>
      <point x="444.0" y="1186.0"/>
      <point x="543.6" y="1186.0" type="curve" smooth="yes"/>
      <point x="643.2" y="1186.0"/>
      <point x="723.2" y="1110.4"/>
      <point x="723.2" y="1018.0" type="curve" smooth="yes"/>
      <point x="723.2" y="925.6"/>
      <point x="643.2" y="850.0"/>
    </contour>
  </outline>
</glyph>
<glyph name="nine" format="2">
  <advance width="1095.0"/>
  <unicode hex="0039"/>
  <outline>
    <contour>
      <point x="292.0" y="0.0" type="line"/>
      <point x="570.0" y="0.0" type="line"/>
      <point x="967.6" y="690.4" type="line" smooth="yes"/>
      <point x="1013.6" y="771.6"/>
      <point x="1035.2" y="847.6"/>
      <point x="1035.2" y="938.0" type="curve" smooth="yes"/>
      <point x="1035.2" y="1207.2"/>
      <point x="814.4" y="1426.0"/>
      <point x="549.2" y="1426.0" type="curve" smooth="yes"/>
      <point x="278.4" y="1426.0"/>
      <point x="60.0" y="1205.6"/>
      <point x="60.0" y="938.0" type="curve" smooth="yes"/>
      <point x="60.0" y="658.4"/>
      <point x="298.4" y="446.4"/>
      <point x="563.2" y="468.0" type="curve"/>
    </contour>
    <contour>
      <point x="547.2" y="690.0" type="curve" smooth="yes"/>
      <point x="407.6" y="690.0"/>
      <point x="299.2" y="802.4"/>
      <point x="299.2" y="939.2" type="curve" smooth="yes"/>
      <point x="299.2" y="1066.4"/>
      <point x="404.4" y="1186.4"/>
      <point x="549.2" y="1186.4" type="curve" smooth="yes"/>
      <point x="678.0" y="1186.4"/>
      <point x="795.6" y="1080.4"/>
      <point x="795.6" y="939.2" type="curve" smooth="yes"/>
      <point x="795.6" y="809.2"/>
      <point x="693.2" y="690.0"/>
    </contour>
  </outline>
</glyph>
<glyph name="colon" format="2">
  <advance width="447.5"/>
  <unicode hex="003A"/>
  <outline>
    <contour>
      <point x="203.6" y="752.4" type="curve" smooth="yes"/>
      <point x="271.6" y="752.4"/>
      <point x="327.6" y="807.2"/>
      <point x="327.6" y="876.4" type="curve" smooth="yes"/>
      <point x="327.6" y="944.0"/>
      <point x="271.6" y="1000.0"/>
      <point x="203.6" y="1000.0" type="curve" smooth="yes"/>
      <point x="134.4" y="1000.0"/>
      <point x="80.0" y="944.0"/>
      <point x="80.0" y="876.4" type="curve" smooth="yes"/>
      <point x="80.0" y="807.2"/>
      <point x="134.4" y="752.4"/>
    </contour>
    <contour>
      <point x="203.6" y="-26.0" type="curve" smooth="yes"/>
      <point x="271.6" y="-26.0"/>
      <point x="327.6" y="28.4"/>
      <point x="327.6" y="98.0" type="curve" smooth="yes"/>
      <point x="327.6" y="165.6"/>
      <point x="271.6" y="221.6"/>
      <point x="203.6" y="221.6" type="curve" smooth="yes"/>
      <point x="134.4" y="221.6"/>
      <point x="80.0" y="165.6"/>
      <point x="80.0" y="98.0" type="curve" smooth="yes"/>
      <point x="80.0" y="28.4"/>
      <point x="134.4" y="-26.0"/>
    </contour>
  </outline>
</glyph>
<glyph name="semicolon" format="2">
  <advance width="505.0"/>
  <unicode hex="003B"/>
  <outline>
    <contour>
      <point x="80.0" y="-112.0" type="line"/>
      <point x="240.0" y="-112.0" type="line"/>
      <point x="382.0" y="226.0" type="line"/>
      <point x="142.0" y="226.0" type="line"/>
    </contour>
    <contour>
      <point x="261.6" y="752.4" type="curve" smooth="yes"/>
      <point x="329.2" y="752.4"/>
      <point x="385.2" y="807.2"/>
      <point x="385.2" y="876.0" type="curve" smooth="yes"/>
      <point x="385.2" y="944.0"/>
      <point x="329.2" y="1000.0"/>
      <point x="261.6" y="1000.0" type="curve" smooth="yes"/>
      <point x="192.0" y="1000.0"/>
      <point x="137.6" y="944.0"/>
      <point x="137.6" y="876.0" type="curve" smooth="yes"/>
      <point x="137.6" y="807.2"/>
      <point x="192.0" y="752.4"/>
    </contour>
  </outline>
</glyph>
<glyph name="less" format="2">
  <advance width="1160.0"/>
  <unicode hex="003C"/>
  <outline>
    <contour>
      <point x="1080.0" y="115.2" type="line"/>
      <point x="1080.0" y="364.4" type="line"/>
      <point x="254.0" y="600.0" type="line"/>
      <point x="1080.0" y="835.2" type="line"/>
      <point x="1080.0" y="1085.2" type="line"/>
      <point x="80.0" y="799.2" type="line"/>
      <point x="80.0" y="399.2" type="line"/>
    </contour>
  </outline>
</glyph>
<glyph name="equal" format="2">
  <advance width="1160.0"/>
  <unicode hex="003D"/>
  <outline>
    <contour>
      <point x="80.0" y="265.6" type="line"/>
      <point x="1080.0" y="265.6" type="line"/>
      <point x="1080.0" y="505.6" type="line"/>
      <point x="80.0" y="505.6" type="line"/>
    </contour>
    <contour>
      <point x="80.0" y="694.4" type="line"/>
      <point x="1080.0" y="694.4" type="line"/>
      <point x="1080.0" y="934.4" type="line"/>
      <point x="80.0" y="934.4" type="line"/>
    </contour>
  </outline>
</glyph>
<glyph name="greater" format="2">
  <advance width="1160.0"/>
  <unicode hex="003E"/>
  <outline>
    <contour>
      <point x="80.0" y="124.0" type="line"/>
      <point x="1080.0" y="399.2" type="line"/>
      <point x="1080.0" y="799.2" type="line"/>
      <point x="80.0" y="1076.0" type="line"/>
      <point x="80.0" y="826.0" type="line"/>
      <point x="906.0" y="600.0" type="line"/>
      <point x="80.0" y="373.6" type="line"/>
    </contour>
  </outline>
</glyph>
<glyph name="question" format="2">
  <advance width="1103.5"/>
  <unicode hex="003F"/>
  <outline>
    <contour>
      <point x="425.6" y="430.4" type="curve"/>
      <point x="665.6" y="430.4" type="line"/>
      <point x="665.6" y="492.6"/>
      <point x="697.6" y="546.6"/>
      <point x="751.6" y="575.2" type="curve" smooth="yes"/>
      <point x="895.6" y="652.0"/>
      <point x="983.6" y="805.6"/>
      <point x="983.6" y="976.0" type="curve" smooth="yes"/>
      <point x="983.6" y="1224.0"/>
      <point x="781.2" y="1426.4"/>
      <point x="531.6" y="1426.4" type="curve" smooth="yes"/>
      <point x="282.4" y="1426.4"/>
      <point x="80.0" y="1224.0"/>
      <point x="80.0" y="976.0" type="curve"/>
      <point x="320.0" y="976.0" type="line"/>
      <point x="320.0" y="1093.2"/>
      <point x="415.2" y="1186.4"/>
      <point x="531.6" y="1186.4" type="curve" smooth="yes"/>
      <point x="648.0" y="1186.4"/>
      <point x="743.6" y="1093.2"/>
      <point x="743.6" y="976.0" type="curve" smooth="yes"/>
      <point x="743.6" y="893.6"/>
      <point x="703.6" y="821.6"/>
      <point x="638.0" y="786.4" type="curve" smooth="yes"/>
      <point x="505.6" y="714.6"/>
      <point x="425.6" y="580.6"/>
    </contour>
    <contour>
      <point x="554.0" y="-26.0" type="curve" smooth="yes"/>
      <point x="622.0" y="-26.0"/>
      <point x="676.4" y="29.2"/>
      <point x="676.4" y="99.6" type="curve" smooth="yes"/>
      <point x="676.4" y="167.2"/>
      <point x="622.0" y="221.6"/>
      <point x="554.0" y="221.6" type="curve" smooth="yes"/>
      <point x="485.2" y="221.6"/>
      <point x="430.4" y="167.2"/>
      <point x="430.4" y="99.6" type="curve" smooth="yes"/>
      <point x="430.4" y="29.2"/>
      <point x="485.2" y="-26.0"/>
    </contour>
  </outline>
</glyph>
<glyph name="at" format="2">
  <advance width="1830.25"/>
  <unicode hex="0040"/>
  <outline>
    <contour>
      <point x="915.4" y="-248.4" type="curve"/>
      <point x="915.4" y="-8.399999999999999" type="line"/>
      <point x="585.4" y="-8.399999999999999"/>
      <point x="320.0" y="221.0"/>
      <point x="320.0" y="550.4" type="curve" smooth="yes"/>
      <point x="320.0" y="880.8"/>
      <point x="588.6" y="1146.0"/>
      <point x="915.4" y="1146.0" type="curve" smooth="yes"/>
      <point x="1240.6" y="1146.0"/>
      <point x="1510.4" y="881.0"/>
      <point x="1510.4" y="550.4" type="curve" smooth="yes"/>
      <point x="1510.4" y="448.2"/>
      <point x="1473.2" y="278.4"/>
      <point x="1381.2" y="278.4" type="curve" smooth="yes"/>
      <point x="1333.0" y="278.4"/>
      <point x="1299.4" y="310.6"/>
      <point x="1299.4" y="361.6" type="curve" smooth="yes"/>
      <point x="1299.4" y="889.8" type="line"/>
      <point x="1119.4" y="927.4" type="line"/>
      <point x="1119.4" y="873.4" type="line"/>
      <point x="1070.6" y="919.6"/>
      <point x="974.2" y="948.0"/>
      <point x="892.6" y="948.0" type="curve" smooth="yes"/>
      <point x="673.6" y="948.0"/>
      <point x="495.6" y="770.0"/>
      <point x="495.6" y="550.4" type="curve" smooth="yes"/>
      <point x="495.6" y="331.0"/>
      <point x="673.6" y="152.4"/>
      <point x="892.6" y="152.4" type="curve" smooth="yes"/>
      <point x="981.4" y="152.4"/>
      <point x="1054.8" y="184.6"/>
      <point x="1107.4" y="237.4" type="curve"/>
      <point x="1127.6" y="128.2"/>
      <point x="1273.4" y="38.4"/>
      <point x="1396.0" y="38.4" type="curve" smooth="yes"/>
      <point x="1623.0" y="38.4"/>
      <point x="1750.4" y="296.6"/>
      <point x="1750.4" y="550.4" type="curve" smooth="yes"/>
      <point x="1750.4" y="1008.6"/>
      <point x="1380.0" y="1386.0"/>
      <point x="915.4" y="1386.0" type="curve" smooth="yes"/>
      <point x="453.8" y="1386.0"/>
      <point x="80.0" y="1012.2"/>
      <point x="80.0" y="550.4" type="curve" smooth="yes"/>
      <point x="80.0" y="88.6"/>
      <point x="453.2" y="-248.4"/>
    </contour>
    <contour>
      <point x="912.2" y="331.4" type="curve" smooth="yes"/>
      <point x="793.0" y="331.4"/>
      <point x="693.6" y="429.2"/>
      <point x="693.6" y="550.4" type="curve" smooth="yes"/>
      <point x="693.6" y="672.0"/>
      <point x="791.4" y="768.6"/>
      <point x="912.2" y="768.6" type="curve" smooth="yes"/>
      <point x="1036.2" y="768.6"/>
      <point x="1119.6" y="670.4"/>
      <point x="1119.6" y="554.8" type="curve" smooth="yes"/>
      <point x="1119.6" y="437.6"/>
      <point x="1032.6" y="331.4"/>
    </contour>
  </outline>
</glyph>
<glyph name="A" format="2">
  <advance width="1453.5"/>
  <unicode hex="0041"/>
  <outline>
    <contour>
      <point x="588.4" y="1400.0" type="line"/>
      <point x="80.0" y="0.0" type="line"/>
      <point x="334.4" y="0.0" type="line"/>
      <point x="425.6" y="250.0" type="line"/>
      <point x="1028.0" y="250.0" type="line"/>
      <point x="1119.2" y="0.0" type="line"/>
      <point x="1373.6" y="0.0" type="line"/>
      <point x="865.2" y="1400.0" type="line"/>
    </contour>
    <contour>
      <point x="513.6" y="490.0" type="line"/>
      <point x="726.0" y="1075.6" type="line"/>
      <point x="940.0" y="490.0" type="line"/>
    </contour>
  </outline>
</glyph>
<glyph name="B" format="2">
  <advance width="1172.0"/>
  <unicode hex="0042"/>
  <outline>
    <contour>
      <point x="120.0" y="0.0" type="line"/>
      <point x="685.6" y="0.0" type="line" smooth="yes"/>
      <point x="909.2" y="0.0"/>
      <point x="1092.0" y="165.6"/>
      <point x="1092.0" y="387.2" type="curve" smooth="yes"/>
      <point x="1092.0" y="521.2"/>
      <point x="1054.0" y="723.4"/>
      <point x="880.4" y="767.8" type="curve"/>
      <point x="977.6" y="806.6"/>
      <point x="1023.2" y="922.4"/>
      <point x="1023.2" y="1025.6" type="curve" smooth="yes"/>
      <point x="1023.2" y="1256.4"/>
      <point x="849.2" y="1399.6"/>
      <point x="628.4" y="1399.6" type="curve" smooth="yes"/>
      <point x="120.0" y="1399.6" type="line"/>
    </contour>
    <contour>
      <point x="360.0" y="205.6" type="line"/>
      <point x="360.0" y="653.8" type="line"/>
      <point x="661.6" y="653.8" type="line" smooth="yes"/>
      <point x="781.2" y="653.8"/>
      <point x="877.6" y="546.4"/>
      <point x="877.6" y="433.6" type="curve" smooth="yes"/>
      <point x="877.6" y="302.0"/>
      <point x="781.2" y="205.6"/>
      <point x="661.6" y="205.6" type="curve" smooth="yes"/>
    </contour>
    <contour>
      <point x="360.0" y="856.2" type="line"/>
      <point x="360.0" y="1192.4" type="line"/>
      <point x="601.6" y="1192.4" type="line" smooth="yes"/>
      <point x="701.2" y="1192.4"/>
      <point x="783.2" y="1136.0"/>
      <point x="783.2" y="1027.2" type="curve" smooth="yes"/>
      <point x="783.2" y="923.2"/>
      <point x="701.2" y="856.2"/>
      <point x="601.6" y="856.2" type="curve" smooth="yes"/>
    </contour>
  </outline>
</glyph>
<glyph name="C" format="2">
  <advance width="1398.0"/>
  <unicode hex="0043"/>
  <outline>
    <contour>
      <point x="748.0" y="-26.0" type="curve"/>
      <point x="974.0" y="-26.0"/>
      <point x="1172.0" y="87.6"/>
      <point x="1298.0" y="262.0" type="curve"/>
      <point x="1084.0" y="378.4" type="line"/>
      <point x="1004.0" y="279.2"/>
      <point x="883.2" y="214.0"/>
      <point x="748.0" y="214.0" type="curve"/>
      <point x="501.2" y="214.0"/>
      <point x="300.0" y="432.4"/>
      <point x="300.0" y="700.0" type="curve"/>
      <point x="300.0" y="966.4"/>
      <point x="499.6" y="1186.0"/>
      <point x="748.0" y="1186.0" type="curve"/>
      <point x="880.4" y="1186.0"/>
      <point x="1003.2" y="1122.0"/>
      <point x="1084.0" y="1022.4" type="curve"/>
      <point x="1298.0" y="1137.6" type="line"/>
      <point x="1172.0" y="1312.0"/>
      <point x="974.0" y="1426.0"/>
      <point x="748.0" y="1426.0" type="curve"/>
      <point x="368.0" y="1426.0"/>
      <point x="60.0" y="1101.6"/>
      <point x="60.0" y="700.0" type="curve"/>
      <point x="60.0" y="299.6"/>
      <point x="368.0" y="-26.0"/>
    </contour>
  </outline>
</glyph>
<glyph name="D" format="2">
  <advance width="1343.5"/>
  <unicode hex="0044"/>
  <outline>
    <contour>
      <point x="120.0" y="0.0" type="line"/>
      <point x="583.6" y="0.0" type="line" smooth="yes"/>
      <point x="970.0" y="0.0"/>
      <point x="1283.6" y="314.0"/>
      <point x="1283.6" y="700.0" type="curve" smooth="yes"/>
      <point x="1283.6" y="1086.0"/>
      <point x="970.0" y="1400.0"/>
      <point x="583.6" y="1400.0" type="curve" smooth="yes"/>
      <point x="120.0" y="1400.0" type="line"/>
    </contour>
    <contour>
      <point x="360.0" y="240.0" type="line"/>
      <point x="360.0" y="1160.0" type="line"/>
      <point x="583.6" y="1160.0" type="line" smooth="yes"/>
      <point x="835.6" y="1160.0"/>
      <point x="1043.6" y="953.6"/>
      <point x="1043.6" y="700.0" type="curve" smooth="yes"/>
      <point x="1043.6" y="445.2"/>
      <point x="834.4" y="240.0"/>
      <point x="583.6" y="240.0" type="curve" smooth="yes"/>
    </contour>
  </outline>
</glyph>
<glyph name="E" format="2">
  <advance width="1097.0"/>
  <unicode hex="0045"/>
  <outline>
    <contour>
      <point x="120.0" y="0.0" type="line"/>
      <point x="997.2" y="0.0" type="line"/>
      <point x="997.2" y="240.0" type="line"/>
      <point x="360.0" y="240.0" type="line"/>
      <point x="360.0" y="630.0" type="line"/>
      <point x="866.0" y="630.0" type="line"/>
      <point x="866.0" y="870.0" type="line"/>
      <point x="360.0" y="870.0" type="line"/>
      <point x="360.0" y="1160.0" type="line"/>
      <point x="997.2" y="1160.0" type="line"/>
      <point x="997.2" y="1400.0" type="line"/>
      <point x="120.0" y="1400.0" type="line"/>
    </contour>
  </outline>
</glyph>
<glyph name="F" format="2">
  <advance width="967.0"/>
  <unicode hex="0046"/>
  <outline>
    <contour>
      <point x="120.0" y="0.0" type="line"/>
      <point x="360.0" y="0.0" type="line"/>
      <point x="360.0" y="630.0" type="line"/>
      <point x="851.2" y="630.0" type="line"/>
      <point x="851.2" y="870.0" type="line"/>
      <point x="360.0" y="870.0" type="line"/>
      <point x="360.0" y="1160.0" type="line"/>
      <point x="947.2" y="1160.0" type="line"/>
      <point x="947.2" y="1400.0" type="line"/>
      <point x="120.0" y="1400.0" type="line"/>
    </contour>
  </outline>
</glyph>
<glyph name="G" format="2">
  <advance width="1496.75"/>
  <unicode hex="0047"/>
  <outline>
    <contour>
      <point x="748.4" y="-26.0" type="curve" smooth="yes"/>
      <point x="1135.6" y="-26.0"/>
      <point x="1445.2" y="309.6"/>
      <point x="1436.0" y="715.6" type="curve"/>
      <point x="894.4" y="715.6" type="line"/>
      <point x="894.4" y="505.6" type="line"/>
      <point x="1153.6" y="505.6" type="line"/>
      <point x="1080.4" y="324.0"/>
      <point x="921.6" y="214.0"/>
      <point x="751.6" y="214.0" type="curve" smooth="yes"/>
      <point x="502.4" y="214.0"/>
      <point x="300.0" y="429.2"/>
      <point x="300.0" y="697.2" type="curve" smooth="yes"/>
      <point x="300.0" y="978.4"/>
      <point x="512.0" y="1186.0"/>
      <point x="750.0" y="1186.0" type="curve" smooth="yes"/>
      <point x="871.2" y="1186.0"/>
      <point x="992.4" y="1131.2"/>
      <point x="1084.0" y="1021.2" type="curve"/>
      <point x="1298.4" y="1136.4" type="line"/>
      <point x="1153.2" y="1331.6"/>
      <point x="954.4" y="1424.4"/>
      <point x="753.2" y="1424.4" type="curve" smooth="yes"/>
      <point x="390.4" y="1424.4"/>
      <point x="60.0" y="1122.4"/>
      <point x="60.0" y="701.6" type="curve" smooth="yes"/>
      <point x="60.0" y="303.2"/>
      <point x="359.2" y="-26.0"/>
    </contour>
  </outline>
</glyph>
<glyph name="H" format="2">
  <advance width="1305.5"/>
  <unicode hex="0048"/>
  <outline>
    <contour>
      <point x="945.6" y="1400.0" type="line"/>
      <point x="945.6" y="870.0" type="line"/>
      <point x="360.0" y="870.0" type="line"/>
      <point x="360.0" y="1400.0" type="line"/>
      <point x="120.0" y="1400.0" type="line"/>
      <point x="120.0" y="0.0" type="line"/>
      <point x="360.0" y="0.0" type="line"/>
      <point x="360.0" y="630.0" type="line"/>
      <point x="945.6" y="630.0" type="line"/>
      <point x="945.6" y="0.0" type="line"/>
      <point x="1185.6" y="0.0" type="line"/>
      <point x="1185.6" y="1400.0" type="line"/>
    </contour>
  </outline>
</glyph>
<glyph name="J" format="2">
  <advance width="885.0"/>
  <unicode hex="004A"/>
  <outline>
    <contour>
      <point x="322.4" y="-26.0" type="curve" smooth="yes"/>
      <point x="566.4" y="-26.0"/>
      <point x="765.2" y="177.6"/>
      <point x="765.2" y="421.2" type="curve" smooth="yes"/>
      <point x="765.2" y="1400.0" type="line"/>
      <point x="525.2" y="1400.0" type="line"/>
      <point x="525.2" y="421.2" type="line" smooth="yes"/>
      <point x="525.2" y="310.0"/>
      <point x="433.6" y="214.0"/>
      <point x="322.4" y="214.0" type="curve" smooth="yes"/>
      <point x="266.4" y="214.0"/>
      <point x="223.2" y="236.39999999999998"/>
      <point x="193.6" y="261.2" type="curve"/>
      <point x="40.0" y="77.2" type="line"/>
      <point x="118.4" y="9.6"/>
      <point x="219.6" y="-26.0"/>
    </contour>
  </outline>
</glyph>
<glyph name="K" format="2">
  <advance width="1168.5"/>
  <unicode hex="004B"/>
  <outline>
    <contour>
      <point x="1138.4" y="0.0" type="line"/>
      <point x="586.4" y="739.6" type="line"/>
      <point x="1141.2" y="1400.0" type="line"/>
      <point x="827.6" y="1400.0" type="line"/>
      <point x="360.0" y="841.6" type="line"/>
      <point x="360.0" y="1400.0" type="line"/>
      <point x="120.0" y="1400.0" type="line"/>
      <point x="120.0" y="0.0" type="line"/>
      <point x="360.0" y="0.0" type="line"/>
      <point x="360.0" y="468.4" type="line"/>
      <point x="429.6" y="552.0" type="line"/>
      <point x="825.6" y="0.0" type="line"/>
    </contour>
  </outline>
</glyph>
<glyph name="L" format="2">
  <advance width="1045.0"/>
  <unicode hex="004C"/>
  <outline>
    <contour>
      <point x="120.0" y="0.0" type="line"/>
      <point x="945.2" y="0.0" type="line"/>
      <point x="945.2" y="240.0" type="line"/>
      <point x="360.0" y="240.0" type="line"/>
      <point x="360.0" y="1400.0" type="line"/>
      <point x="120.0" y="1400.0" type="line"/>
    </contour>
  </outline>
</glyph>
<glyph name="M" format="2">
  <advance width="1866.0"/>
  <unicode hex="004D"/>
  <outline>
    <contour>
      <point x="120.0" y="0.0" type="line"/>
      <point x="364.4" y="0.0" type="line"/>
      <point x="533.6" y="874.0" type="line"/>
      <point x="851.2" y="34.4" type="line"/>
      <point x="1014.4" y="34.4" type="line"/>
      <point x="1332.0" y="874.0" type="line"/>
      <point x="1501.2" y="0.0" type="line"/>
      <point x="1746.0" y="0.0" type="line"/>
      <point x="1474.0" y="1400.0" type="line"/>
      <point x="1275.6" y="1400.0" type="line"/>
      <point x="933.2" y="497.6" type="line"/>
      <point x="590.0" y="1400.0" type="line"/>
      <point x="391.6" y="1400.0" type="line"/>
    </contour>
  </outline>
</glyph>
<glyph name="N" format="2">
  <advance width="1351.5"/>
  <unicode hex="004E"/>
  <outline>
    <contour>
      <point x="127.6" y="0.0" type="line"/>
      <point x="367.6" y="0.0" type="line"/>
      <point x="367.6" y="966.4" type="line"/>
      <point x="965.2" y="0.0" type="line"/>
      <point x="1224.0" y="0.0" type="line"/>
      <point x="1224.0" y="1400.0" type="line"/>
      <point x="984.0" y="1400.0" type="line"/>
      <point x="984.0" y="433.6" type="line"/>
      <point x="387.2" y="1400.0" type="line"/>
      <point x="127.6" y="1400.0" type="line"/>
    </contour>
  </outline>
</glyph>
<glyph name="O" format="2">
  <advance width="1540.0"/>
  <unicode hex="004F"/>
  <outline>
    <contour>
      <point x="770.0" y="-26.0" type="curve" smooth="yes"/>
      <point x="1150.0" y="-26.0"/>
      <point x="1460.0" y="300.0"/>
      <point x="1460.0" y="700.0" type="curve" smooth="yes"/>
      <point x="1460.0" y="1100.0"/>
      <point x="1150.0" y="1426.0"/>
      <point x="770.0" y="1426.0" type="curve" smooth="yes"/>
      <point x="390.0" y="1426.0"/>
      <point x="80.0" y="1100.0"/>
      <point x="80.0" y="700.0" type="curve" smooth="yes"/>
      <point x="80.0" y="300.0"/>
      <point x="390.0" y="-26.0"/>
    </contour>
    <contour>
      <point x="770.0" y="214.0" type="curve" smooth="yes"/>
      <point x="522.4" y="214.0"/>
      <point x="320.0" y="433.2"/>
      <point x="320.0" y="700.0" type="curve" smooth="yes"/>
      <point x="320.0" y="965.6"/>
      <point x="521.6" y="1186.0"/>
      <point x="770.0" y="1186.0" type="curve" smooth="yes"/>
      <point x="1017.6" y="1186.0"/>
      <point x="1220.0" y="966.4"/>
      <point x="1220.0" y="700.0" type="curve" smooth="yes"/>
      <point x="1220.0" y="434.4"/>
      <point x="1018.4" y="214.0"/>
    </contour>
  </outline>
</glyph>
<glyph name="P" format="2">
  <advance width="1105.0"/>
  <unicode hex="0050"/>
  <outline>
    <contour>
      <point x="120.0" y="0.0" type="line"/>
      <point x="360.0" y="0.0" type="line"/>
      <point x="360.0" y="558.0" type="line"/>
      <point x="618.0" y="558.0" type="line" smooth="yes"/>
      <point x="838.0" y="558.0"/>
      <point x="1025.2" y="744.4"/>
      <point x="1025.2" y="979.2" type="curve" smooth="yes"/>
      <point x="1025.2" y="1210.0"/>
      <point x="845.6" y="1400.0"/>
      <point x="618.0" y="1400.0" type="curve" smooth="yes"/>
      <point x="120.0" y="1400.0" type="line"/>
    </contour>
    <contour>
      <point x="360.0" y="798.0" type="line"/>
      <point x="360.0" y="1193.2" type="line"/>
      <point x="592.4" y="1193.2" type="line" smooth="yes"/>
      <point x="698.0" y="1193.2"/>
      <point x="785.2" y="1106.0"/>
      <point x="785.2" y="995.6" type="curve" smooth="yes"/>
      <point x="785.2" y="885.2"/>
      <point x="698.0" y="798.0"/>
      <point x="592.4" y="798.0" type="curve" smooth="yes"/>
    </contour>
  </outline>
</glyph>
<glyph name="Q" format="2">
  <advance width="1572.5"/>
  <unicode hex="0051"/>
  <outline>
    <contour>
      <point x="1322.0" y="-41.6" type="line"/>
      <point x="1491.6" y="128.0" type="line"/>
      <point x="1331.6" y="287.6" type="line"/>
      <point x="1411.2" y="405.6"/>
      <point x="1459.6" y="549.2"/>
      <point x="1459.6" y="706.0" type="curve" smooth="yes"/>
      <point x="1459.6" y="1106.0"/>
      <point x="1150.0" y="1432.0"/>
      <point x="770.0" y="1432.0" type="curve" smooth="yes"/>
      <point x="389.6" y="1432.0"/>
      <point x="80.0" y="1106.0"/>
      <point x="80.0" y="706.0" type="curve" smooth="yes"/>
      <point x="80.0" y="304.4"/>
      <point x="389.6" y="-20.0"/>
      <point x="770.0" y="-20.0" type="curve" smooth="yes"/>
      <point x="918.0" y="-20.0"/>
      <point x="1055.2" y="29.6"/>
      <point x="1165.6" y="113.6" type="curve"/>
    </contour>
    <contour>
      <point x="770.0" y="220.0" type="curve" smooth="yes"/>
      <point x="523.2" y="220.0"/>
      <point x="320.0" y="437.6"/>
      <point x="320.0" y="706.0" type="curve" smooth="yes"/>
      <point x="320.0" y="971.2"/>
      <point x="521.6" y="1192.0"/>
      <point x="770.0" y="1192.0" type="curve" smooth="yes"/>
      <point x="1016.4" y="1192.0"/>
      <point x="1219.6" y="973.2"/>
      <point x="1219.6" y="706.0" type="curve" smooth="yes"/>
      <point x="1219.6" y="620.0"/>
      <point x="1196.0" y="536.4"/>
      <point x="1153.2" y="466.4" type="curve"/>
      <point x="1030.4" y="589.2" type="line"/>
      <point x="861.2" y="419.2" type="line"/>
      <point x="991.2" y="289.2" type="line"/>
      <point x="927.6" y="245.2"/>
      <point x="849.2" y="220.0"/>
    </contour>
  </outline>
</glyph>
<glyph name="R" format="2">
  <advance width="1217.0"/>
  <unicode hex="0052"/>
  <outline>
    <contour>
      <point x="127.6" y="0.0" type="line"/>
      <point x="367.6" y="0.0" type="line"/>
      <point x="367.6" y="558.0" type="line"/>
      <point x="528.4" y="558.0" type="line"/>
      <point x="852.4" y="0.0" type="line"/>
      <point x="1129.6" y="0.0" type="line"/>
      <point x="793.6" y="579.6" type="line"/>
      <point x="955.6" y="637.6"/>
      <point x="1067.6" y="789.6"/>
      <point x="1067.6" y="979.2" type="curve" smooth="yes"/>
      <point x="1067.6" y="1211.6"/>
      <point x="889.6" y="1400.0"/>
      <point x="662.0" y="1400.0" type="curve" smooth="yes"/>
      <point x="127.6" y="1400.0" type="line"/>
    </contour>
    <contour>
      <point x="367.6" y="798.0" type="line"/>
      <point x="367.6" y="1193.2" type="line"/>
      <point x="635.2" y="1193.2" type="line" smooth="yes"/>
      <point x="740.4" y="1193.2"/>
      <point x="827.6" y="1106.0"/>
      <point x="827.6" y="995.6" type="curve" smooth="yes"/>
      <point x="827.6" y="885.2"/>
      <point x="740.4" y="798.0"/>
      <point x="635.2" y="798.0" type="curve" smooth="yes"/>
    </contour>
  </outline>
</glyph>
<glyph name="S" format="2">
  <advance width="1247.5"/>
  <unicode hex="0053"/>
  <outline>
    <contour>
      <point x="623.6" y="-26.0" type="curve" smooth="yes"/>
      <point x="903.2" y="-26.0"/>
      <point x="1145.2" y="142.4"/>
      <point x="1145.2" y="396.4" type="curve" smooth="yes"/>
      <point x="1145.2" y="646.4"/>
      <point x="904.0" y="776.4"/>
      <point x="623.6" y="820.0" type="curve" smooth="yes"/>
      <point x="467.6" y="845.2"/>
      <point x="342.4" y="866.4"/>
      <point x="342.4" y="1001.6" type="curve" smooth="yes"/>
      <point x="342.4" y="1107.6"/>
      <point x="479.6" y="1184.0"/>
      <point x="623.6" y="1182.4" type="curve" smooth="yes"/>
      <point x="766.4" y="1182.4"/>
      <point x="892.4" y="1118.4"/>
      <point x="921.6" y="1035.6" type="curve"/>
      <point x="1147.6" y="1117.2" type="line"/>
      <point x="1077.6" y="1311.2"/>
      <point x="852.4" y="1424.0"/>
      <point x="623.6" y="1424.0" type="curve" smooth="yes"/>
      <point x="347.6" y="1424.0"/>
      <point x="102.4" y="1255.6"/>
      <point x="102.4" y="1001.6" type="curve" smooth="yes"/>
      <point x="102.4" y="733.2"/>
      <point x="326.0" y="625.2"/>
      <point x="623.6" y="579.2" type="curve" smooth="yes"/>
      <point x="761.6" y="557.2"/>
      <point x="905.2" y="508.4"/>
      <point x="905.2" y="396.4" type="curve" smooth="yes"/>
      <point x="905.2" y="287.2"/>
      <point x="770.0" y="214.0"/>
      <point x="623.6" y="214.0" type="curve" smooth="yes"/>
      <point x="480.4" y="214.0"/>
      <point x="354.4" y="279.6"/>
      <point x="325.6" y="362.4" type="curve"/>
      <point x="100.0" y="279.2" type="line"/>
      <point x="169.2" y="88.4"/>
      <point x="392.0" y="-26.0"/>
    </contour>
  </outline>
</glyph>
<glyph name="T" format="2">
  <advance width="1259.5"/>
  <unicode hex="0054"/>
  <outline>
    <contour>
      <point x="1179.6" y="1400.0" type="line"/>
      <point x="80.0" y="1400.0" type="line"/>
      <point x="80.0" y="1160.0" type="line"/>
      <point x="509.6" y="1160.0" type="line"/>
      <point x="509.6" y="0.0" type="line"/>
      <point x="749.6" y="0.0" type="line"/>
      <point x="749.6" y="1160.0" type="line"/>
      <point x="1179.6" y="1160.0" type="line"/>
    </contour>
  </outline>
</glyph>
<glyph name="U" format="2">
  <advance width="1358.5"/>
  <unicode hex="0055"/>
  <outline>
    <contour>
      <point x="680.0" y="-26.0" type="curve" smooth="yes"/>
      <point x="1016.0" y="-26.0"/>
      <point x="1238.4" y="246.0"/>
      <point x="1238.4" y="584.0" type="curve" smooth="yes"/>
      <point x="1238.4" y="1400.0" type="line"/>
      <point x="998.4" y="1400.0" type="line"/>
      <point x="998.4" y="584.0" type="line" smooth="yes"/>
      <point x="998.4" y="381.2"/>
      <point x="886.0" y="214.0"/>
      <point x="680.0" y="214.0" type="curve" smooth="yes"/>
      <point x="476.4" y="214.0"/>
      <point x="360.0" y="381.6"/>
      <point x="360.0" y="584.0" type="curve" smooth="yes"/>
      <point x="360.0" y="1400.0" type="line"/>
      <point x="120.0" y="1400.0" type="line"/>
      <point x="120.0" y="584.0" type="line" smooth="yes"/>
      <point x="120.0" y="246.0"/>
      <point x="344.0" y="-26.0"/>
    </contour>
  </outline>
</glyph>
<glyph name="V" format="2">
  <advance width="1362.5"/>
  <unicode hex="0056"/>
  <outline>
    <contour>
      <point x="528.0" y="0.0" type="line"/>
      <point x="834.0" y="0.0" type="line"/>
      <point x="1342.4" y="1400.0" type="line"/>
      <point x="1088.0" y="1400.0" type="line"/>
      <point x="681.2" y="281.2" type="line"/>
      <point x="274.4" y="1400.0" type="line"/>
      <point x="20.0" y="1400.0" type="line"/>
    </contour>
  </outline>
</glyph>
<glyph name="W" format="2">
  <advance width="1898.0"/>
  <unicode hex="0057"/>
  <outline>
    <contour>
      <point x="458.0" y="0.0" type="line"/>
      <point x="731.2" y="0.0" type="line"/>
      <point x="949.2" y="857.2" type="line"/>
      <point x="1168.4" y="0.0" type="line"/>
      <point x="1442.0" y="0.0" type="line"/>
      <point x="1798.0" y="1400.0" type="line"/>
      <point x="1550.0" y="1400.0" type="line"/>
      <point x="1304.4" y="435.6" type="line"/>
      <point x="1058.4" y="1400.0" type="line"/>
      <point x="839.6" y="1400.0" type="line"/>
      <point x="594.0" y="435.6" type="line"/>
      <point x="348.0" y="1400.0" type="line"/>
      <point x="100.0" y="1400.0" type="line"/>
    </contour>
  </outline>
</glyph>
<glyph name="X" format="2">
  <advance width="1442.0"/>
  <unicode hex="0058"/>
  <outline>
    <contour>
      <point x="60.0" y="0.0" type="line"/>
      <point x="358.0" y="0.0" type="line"/>
      <point x="721.2" y="499.2" type="line"/>
      <point x="1084.4" y="0.0" type="line"/>
      <point x="1382.0" y="0.0" type="line"/>
      <point x="870.0" y="704.0" type="line"/>
      <point x="1378.0" y="1402.0" type="line"/>
      <point x="1082.0" y="1402.0" type="line"/>
      <point x="721.2" y="907.2" type="line"/>
      <point x="360.0" y="1402.0" type="line"/>
      <point x="64.0" y="1402.0" type="line"/>
      <point x="572.4" y="704.0" type="line"/>
    </contour>
  </outline>
</glyph>
<glyph name="Y" format="2">
  <advance width="1321.0"/>
  <unicode hex="0059"/>
  <outline>
    <contour>
      <point x="978.0" y="1400.0" type="line"/>
      <point x="660.4" y="892.4" type="line"/>
      <point x="343.2" y="1400.0" type="line"/>
      <point x="60.0" y="1400.0" type="line"/>
      <point x="540.4" y="631.6" type="line"/>
      <point x="540.4" y="0.0" type="line"/>
      <point x="780.4" y="0.0" type="line"/>
      <point x="780.4" y="631.6" type="line"/>
      <point x="1261.2" y="1400.0" type="line"/>
    </contour>
  </outline>
</glyph>
<glyph name="Z" format="2">
  <advance width="1372.0"/>
  <unicode hex="005A"/>
  <outline>
    <contour>
      <point x="120.0" y="0.0" type="line"/>
      <point x="1252.0" y="0.0" type="line"/>
      <point x="1252.0" y="240.0" type="line"/>
      <point x="444.0" y="240.0" type="line"/>
      <point x="1252.0" y="1160.0" type="line"/>
      <point x="1252.0" y="1400.0" type="line"/>
      <point x="120.0" y="1400.0" type="line"/>
      <point x="120.0" y="1160.0" type="line"/>
      <point x="928.0" y="1160.0" type="line"/>
      <point x="120.0" y="240.0" type="line"/>
    </contour>
  </outline>
</glyph>
<glyph name="bracketleft" format="2">
  <advance width="637.0"/>
  <unicode hex="005B"/>
  <outline>
    <contour>
      <point x="537.2" y="128.0" type="line"/>
      <point x="360.0" y="128.0" type="line"/>
      <point x="360.0" y="1160.0" type="line"/>
      <point x="537.2" y="1160.0" type="line"/>
      <point x="537.2" y="1400.0" type="line"/>
      <point x="120.0" y="1400.0" type="line"/>
      <point x="120.0" y="-112.0" type="line"/>
      <point x="537.2" y="-112.0" type="line"/>
    </contour>
  </outline>
</glyph>
<glyph name="backslash" format="2">
  <advance width="804.5"/>
  <unicode hex="005C"/>
  <outline>
    <contour>
      <point x="484.4" y="-112.0" type="line"/>
      <point x="724.4" y="-112.0" type="line"/>
      <point x="320.0" y="1400.0" type="line"/>
      <point x="80.0" y="1400.0" type="line"/>
    </contour>
  </outline>
</glyph>
<glyph name="bracketright" format="2">
  <advance width="638.5"/>
  <unicode hex="005D"/>
  <outline>
    <contour>
      <point x="100.0" y="-112.0" type="line"/>
      <point x="518.4" y="-112.0" type="line"/>
      <point x="518.4" y="1400.0" type="line"/>
      <point x="100.0" y="1400.0" type="line"/>
      <point x="100.0" y="1160.0" type="line"/>
      <point x="278.4" y="1160.0" type="line"/>
      <point x="278.4" y="128.0" type="line"/>
      <point x="100.0" y="128.0" type="line"/>
    </contour>
  </outline>
</glyph>
<glyph name="asciicircum" format="2">
  <advance width="952.0"/>
  <unicode hex="005E"/>
  <outline>
    <contour>
      <point x="80.0" y="1000.0" type="line"/>
      <point x="335.6" y="1000.0" type="line"/>
      <point x="476.0" y="1386.4" type="line"/>
      <point x="616.0" y="1000.0" type="line"/>
      <point x="872.0" y="1000.0" type="line"/>
      <point x="636.0" y="1650.0" type="line"/>
      <point x="316.0" y="1650.0" type="line"/>
    </contour>
  </outline>
</glyph>
<glyph name="grave" format="2">
  <advance width="1120.0"/>
  <unicode hex="0060"/>
  <outline>
    <contour>
      <point x="320.0" y="1426.0" type="line"/>
      <point x="515.2" y="1138.0" type="line"/>
      <point x="640.0" y="1138.0" type="line"/>
      <point x="560.0" y="1426.0" type="line"/>
    </contour>
  </outline>
</glyph>
<glyph name="a" format="2">
  <advance width="1248.5"/>
  <unicode hex="0061"/>
  <outline>
    <contour>
      <point x="888.4" y="1000.0" type="line"/>
      <point x="899.2" y="870.0" type="line"/>
      <point x="825.6" y="961.6"/>
      <point x="720.2" y="1028.0"/>
      <point x="585.6" y="1028.0" type="curve"/>
      <point x="300.6" y="1028.0"/>
      <point x="70.6" y="796.4"/>
      <point x="71.6" y="510.4" type="curve"/>
      <point x="70.6" y="214.4"/>
      <point x="310.4" y="-26.0"/>
      <point x="606.4" y="-26.0" type="curve"/>
      <point x="730.0" y="-26.0"/>
      <point x="821.8" y="34.400000000000006"/>
      <point x="877.4" y="126.0" type="curve"/>
      <point x="887.8" y="0.0" type="line"/>
      <point x="1128.4" y="0.0" type="line"/>
      <point x="1128.4" y="1000.0" type="line"/>
    </contour>
    <contour>
      <point x="613.4" y="205.2" type="curve"/>
      <point x="463.8" y="205.2"/>
      <point x="329.6" y="332.4"/>
      <point x="314.4" y="489.6" type="curve"/>
      <point x="301.8" y="659.2"/>
      <point x="424.2" y="795.6"/>
      <point x="584.6" y="795.6" type="curve"/>
      <point x="736.6" y="795.6"/>
      <point x="855.4" y="669.2"/>
      <point x="869.6" y="510.4" type="curve"/>
      <point x="882.2" y="343.2"/>
      <point x="775.4" y="205.2"/>
    </contour>
  </outline>
</glyph>
<glyph name="b" format="2">
  <advance width="1238.5"/>
  <unicode hex="0062"/>
  <outline>
    <contour>
      <point x="651.2" y="1028.0" type="curve"/>
      <point x="523.2" y="1028.0"/>
      <point x="424.4" y="964.4"/>
      <point x="360.0" y="873.2" type="curve"/>
      <point x="360.0" y="1500.0" type="line"/>
      <point x="120.0" y="1500.0" type="line"/>
      <point x="120.0" y="0.0" type="line"/>
      <point x="360.0" y="0.0" type="line"/>
      <point x="360.0" y="129.2" type="line"/>
      <point x="424.4" y="37.6"/>
      <point x="523.2" y="-26.0"/>
      <point x="651.2" y="-26.0" type="curve"/>
      <point x="942.4" y="-26.0"/>
      <point x="1178.4" y="210.0"/>
      <point x="1178.4" y="501.6" type="curve"/>
      <point x="1178.4" y="792.0"/>
      <point x="942.4" y="1028.0"/>
    </contour>
    <contour>
      <point x="648.0" y="206.39999999999998" type="curve"/>
      <point x="493.2" y="206.39999999999998"/>
      <point x="380.4" y="337.6"/>
      <point x="380.4" y="501.6" type="curve"/>
      <point x="380.4" y="663.2"/>
      <point x="492.0" y="797.2"/>
      <point x="648.0" y="797.2" type="curve"/>
      <point x="803.6" y="797.2"/>
      <point x="932.4" y="665.2"/>
      <point x="932.4" y="501.6" type="curve"/>
      <point x="932.4" y="338.4"/>
      <point x="805.6" y="206.39999999999998"/>
    </contour>
  </outline>
</glyph>
<glyph name="c" format="2">
  <advance width="1019.5"/>
  <unicode hex="0063"/>
  <outline>
    <contour>
      <point x="744.0" y="299.2" type="line"/>
      <point x="697.6" y="247.6"/>
      <point x="631.2" y="214.0"/>
      <point x="560.0" y="214.0" type="curve"/>
      <point x="414.0" y="214.0"/>
      <point x="300.0" y="347.2"/>
      <point x="300.0" y="500.0" type="curve"/>
      <point x="300.0" y="653.6"/>
      <point x="412.4" y="788.0"/>
      <point x="560.0" y="788.0" type="curve"/>
      <point x="628.0" y="788.0"/>
      <point x="695.6" y="757.2"/>
      <point x="744.0" y="701.6" type="curve"/>
      <point x="959.6" y="818.0" type="line"/>
      <point x="868.0" y="946.0"/>
      <point x="723.6" y="1028.0"/>
      <point x="560.0" y="1028.0" type="curve"/>
      <point x="284.0" y="1028.0"/>
      <point x="60.0" y="792.0"/>
      <point x="60.0" y="500.0" type="curve"/>
      <point x="60.0" y="210.0"/>
      <point x="284.0" y="-26.0"/>
      <point x="560.0" y="-26.0" type="curve"/>
      <point x="723.6" y="-26.0"/>
      <point x="868.0" y="56.0"/>
      <point x="959.6" y="182.4" type="curve"/>
    </contour>
  </outline>
</glyph>
<glyph name="d" format="2">
  <advance width="1231.0"/>
  <unicode hex="0064"/>
  <outline>
    <contour>
      <point x="878.4" y="1500.0" type="line"/>
      <point x="878.4" y="873.2" type="line"/>
      <point x="814.0" y="964.4"/>
      <point x="715.6" y="1026.4"/>
      <point x="586.0" y="1026.4" type="curve"/>
      <point x="296.0" y="1026.4"/>
      <point x="60.0" y="790.4"/>
      <point x="60.0" y="500.0" type="curve"/>
      <point x="60.0" y="210.0"/>
      <point x="296.0" y="-26.0"/>
      <point x="586.0" y="-26.0" type="curve"/>
      <point x="715.6" y="-26.0"/>
      <point x="814.0" y="36.0"/>
      <point x="878.4" y="127.6" type="curve"/>
      <point x="878.4" y="0.0" type="line"/>
      <point x="1118.4" y="0.0" type="line"/>
      <point x="1118.4" y="1500.0" type="line"/>
    </contour>
    <contour>
      <point x="589.2" y="205.2" type="curve"/>
      <point x="435.2" y="205.2"/>
      <point x="306.0" y="335.6"/>
      <point x="306.0" y="500.0" type="curve"/>
      <point x="306.0" y="663.6"/>
      <point x="433.6" y="795.6"/>
      <point x="589.2" y="795.6" type="curve"/>
      <point x="745.6" y="795.6"/>
      <point x="858.0" y="664.4"/>
      <point x="858.0" y="500.0" type="curve"/>
      <point x="858.0" y="337.2"/>
      <point x="746.4" y="205.2"/>
    </contour>
  </outline>
</glyph>
<glyph name="e" format="2">
  <advance width="1119.5"/>
  <unicode hex="0065"/>
  <outline>
    <contour>
      <point x="560.0" y="-26.0" type="curve" smooth="yes"/>
      <point x="760.0" y="-26.0"/>
      <point x="932.0" y="98.0"/>
      <point x="1012.6" y="276.0" type="curve"/>
      <point x="768.2" y="332.6" type="line"/>
      <point x="720.4" y="259.2"/>
      <point x="646.0" y="213.39999999999998"/>
      <point x="560.0" y="214.0" type="curve" smooth="yes"/>
      <point x="432.6" y="215.6"/>
      <point x="344.0" y="302.4"/>
      <point x="318.0" y="418.2" type="curve"/>
      <point x="1052.6" y="418.2" type="line"/>
      <point x="1096.2" y="740.2"/>
      <point x="870.6" y="1028.0"/>
      <point x="560.0" y="1028.0" type="curve" smooth="yes"/>
      <point x="284.0" y="1028.0"/>
      <point x="60.0" y="792.0"/>
      <point x="60.0" y="500.6" type="curve" smooth="yes"/>
      <point x="60.0" y="210.0"/>
      <point x="284.0" y="-26.0"/>
    </contour>
    <contour>
      <point x="309.8" y="598.2" type="line"/>
      <point x="335.6" y="723.4"/>
      <point x="436.6" y="818.0"/>
      <point x="560.0" y="818.0" type="curve" smooth="yes"/>
      <point x="683.6" y="818.0"/>
      <point x="786.6" y="721.4"/>
      <point x="810.4" y="598.2" type="curve"/>
    </contour>
  </outline>
</glyph>
<glyph name="f" format="2">
  <advance width="726.5"/>
  <unicode hex="0066"/>
  <outline>
    <contour>
      <point x="400.0" y="1211.6" type="line"/>
      <point x="400.0" y="1252.0"/>
      <point x="433.6" y="1284.0"/>
      <point x="474.0" y="1284.0" type="curve"/>
      <point x="497.2" y="1284.0"/>
      <point x="521.8" y="1272.0"/>
      <point x="534.4" y="1249.6" type="curve"/>
      <point x="707.2" y="1419.2" type="line"/>
      <point x="643.4" y="1490.2"/>
      <point x="558.0" y="1524.0"/>
      <point x="474.0" y="1524.0" type="curve"/>
      <point x="300.4" y="1524.0"/>
      <point x="160.0" y="1383.6"/>
      <point x="160.0" y="1211.6" type="curve"/>
      <point x="160.0" y="1000.0" type="line"/>
      <point x="50.0" y="1000.0" type="line"/>
      <point x="50.0" y="760.0" type="line"/>
      <point x="160.0" y="760.0" type="line"/>
      <point x="160.0" y="0.0" type="line"/>
      <point x="400.0" y="0.0" type="line"/>
      <point x="400.0" y="760.0" type="line"/>
      <point x="674.0" y="760.0" type="line"/>
      <point x="674.0" y="1000.0" type="line"/>
      <point x="400.0" y="1000.0" type="line"/>
    </contour>
  </outline>
</glyph>
<glyph name="g" format="2">
  <advance width="1224.5"/>
  <unicode hex="0067"/>
  <outline>
    <contour>
      <point x="864.4" y="1000.0" type="line"/>
      <point x="864.4" y="876.4" type="line"/>
      <point x="801.2" y="966.0"/>
      <point x="704.4" y="1026.4"/>
      <point x="579.6" y="1026.4" type="curve" smooth="yes"/>
      <point x="293.2" y="1026.4"/>
      <point x="60.0" y="790.4"/>
      <point x="60.0" y="500.0" type="curve" smooth="yes"/>
      <point x="60.0" y="210.0"/>
      <point x="293.2" y="-26.0"/>
      <point x="579.6" y="-26.0" type="curve" smooth="yes"/>
      <point x="704.4" y="-26.0"/>
      <point x="801.2" y="34.400000000000006"/>
      <point x="864.4" y="124.0" type="curve"/>
      <point x="864.4" y="-20.0" type="line" smooth="yes"/>
      <point x="864.4" y="-167.6"/>
      <point x="716.4" y="-258.4"/>
      <point x="561.6" y="-258.4" type="curve" smooth="yes"/>
      <point x="446.4" y="-258.4"/>
      <point x="334.4" y="-182.0"/>
      <point x="294.4" y="-69.6" type="curve"/>
      <point x="75.2" y="-169.2" type="line"/>
      <point x="152.4" y="-360.0"/>
      <point x="350.4" y="-500.0"/>
      <point x="561.6" y="-500.0" type="curve" smooth="yes"/>
      <point x="848.4" y="-500.0"/>
      <point x="1104.4" y="-306.0"/>
      <point x="1104.4" y="-20.0" type="curve" smooth="yes"/>
      <point x="1104.4" y="1000.0" type="line"/>
    </contour>
    <contour>
      <point x="582.4" y="205.2" type="curve" smooth="yes"/>
      <point x="431.2" y="205.2"/>
      <point x="306.0" y="336.0"/>
      <point x="306.0" y="500.0" type="curve" smooth="yes"/>
      <point x="306.0" y="663.6"/>
      <point x="429.6" y="795.6"/>
      <point x="582.4" y="795.6" type="curve" smooth="yes"/>
      <point x="736.4" y="795.6"/>
      <point x="849.2" y="662.4"/>
      <point x="849.2" y="500.0" type="curve" smooth="yes"/>
      <point x="849.2" y="339.2"/>
      <point x="737.6" y="205.2"/>
    </contour>
  </outline>
</glyph>
<glyph name="h" format="2">
  <advance width="1143.0"/>
  <unicode hex="0068"/>
  <outline>
    <contour>
      <point x="1063.2" y="516.4" type="line"/>
      <point x="1059.2" y="795.6"/>
      <point x="884.4" y="1026.4"/>
      <point x="608.4" y="1026.4" type="curve"/>
      <point x="496.4" y="1026.4"/>
      <point x="410.4" y="1000.4"/>
      <point x="360.0" y="902.4" type="curve"/>
      <point x="360.0" y="1500.0" type="line"/>
      <point x="120.0" y="1500.0" type="line"/>
      <point x="120.0" y="0.0" type="line"/>
      <point x="361.6" y="0.0" type="line"/>
      <point x="361.6" y="512.4" type="line"/>
      <point x="361.6" y="669.2"/>
      <point x="436.4" y="795.6"/>
      <point x="584.4" y="795.6" type="curve"/>
      <point x="716.4" y="795.6"/>
      <point x="823.2" y="669.2"/>
      <point x="823.2" y="512.4" type="curve"/>
      <point x="823.2" y="0.0" type="line"/>
      <point x="1063.2" y="0.0" type="line"/>
    </contour>
  </outline>
</glyph>
<glyph name="i" format="2">
  <advance width="489.0"/>
  <unicode hex="0069"/>
  <outline>
    <contour>
      <point x="123.2" y="1000.0" type="line"/>
      <point x="123.2" y="0.0" type="line"/>
      <point x="363.2" y="0.0" type="line"/>
      <point x="363.2" y="1000.0" type="line"/>
    </contour>
    <contour>
      <point x="243.6" y="1125.2" type="curve"/>
      <point x="312.4" y="1125.2"/>
      <point x="367.6" y="1180.4"/>
      <point x="367.6" y="1248.4" type="curve"/>
      <point x="367.6" y="1316.0"/>
      <point x="312.4" y="1372.4"/>
      <point x="243.6" y="1372.4" type="curve"/>
      <point x="176.0" y="1372.4"/>
      <point x="120.0" y="1316.0"/>
      <point x="120.0" y="1248.4" type="curve"/>
      <point x="120.0" y="1180.4"/>
      <point x="176.0" y="1125.2"/>
    </contour>
  </outline>
</glyph>
<glyph name="j" format="2">
  <advance width="519.5"/>
  <unicode hex="006A"/>
  <outline>
    <contour>
      <point x="-80.0" y="-500.0" type="line"/>
      <point x="169.6" y="-500.0"/>
      <point x="365.6" y="-302.0"/>
      <point x="365.6" y="-58.0" type="curve"/>
      <point x="365.6" y="1000.0" type="line"/>
      <point x="125.6" y="1000.0" type="line"/>
      <point x="125.6" y="-58.0" type="line"/>
      <point x="125.6" y="-171.60000000000002"/>
      <point x="34.400000000000006" y="-260.0"/>
      <point x="-80.0" y="-260.0" type="curve"/>
    </contour>
    <contour>
      <point x="245.6" y="1125.2" type="curve"/>
      <point x="313.2" y="1125.2"/>
      <point x="369.6" y="1181.2"/>
      <point x="369.6" y="1248.4" type="curve"/>
      <point x="369.6" y="1317.6"/>
      <point x="313.2" y="1372.4"/>
      <point x="245.6" y="1372.4" type="curve"/>
      <point x="176.4" y="1372.4"/>
      <point x="122.0" y="1317.6"/>
      <point x="122.0" y="1248.4" type="curve"/>
      <point x="122.0" y="1181.2"/>
      <point x="176.4" y="1125.2"/>
    </contour>
  </outline>
</glyph>
<glyph name="k" format="2">
  <advance width="1074.5"/>
  <unicode hex="006B"/>
  <outline>
    <contour>
      <point x="1016.4" y="0.0" type="line"/>
      <point x="674.4" y="591.6" type="line"/>
      <point x="1016.4" y="1000.0" type="line"/>
      <point x="703.2" y="1000.0" type="line"/>
      <point x="367.6" y="599.6" type="line"/>
      <point x="367.6" y="1500.0" type="line"/>
      <point x="127.6" y="1500.0" type="line"/>
      <point x="127.6" y="0.0" type="line"/>
      <point x="367.6" y="0.0" type="line"/>
      <point x="367.6" y="226.4" type="line"/>
      <point x="510.0" y="396.0" type="line"/>
      <point x="740.0" y="0.0" type="line"/>
    </contour>
  </outline>
</glyph>
<glyph name="l" format="2">
  <advance width="495.0"/>
  <unicode hex="006C"/>
  <outline>
    <contour>
      <point x="127.6" y="0.4" type="line"/>
      <point x="367.6" y="0.4" type="line"/>
      <point x="367.6" y="1500.0" type="line"/>
      <point x="127.6" y="1500.0" type="line"/>
    </contour>
  </outline>
</glyph>
<glyph name="m" format="2">
  <advance width="1732.5"/>
  <unicode hex="006D"/>
  <outline>
    <contour>
      <point x="85.2" y="0.0" type="line"/>
      <point x="325.2" y="0.0" type="line"/>
      <point x="325.2" y="531.6" type="line" smooth="yes"/>
      <point x="325.2" y="660.2"/>
      <point x="414.6" y="769.4"/>
      <point x="533.6" y="769.4" type="curve" smooth="yes"/>
      <point x="656.0" y="769.4"/>
      <point x="746.2" y="665.4"/>
      <point x="746.2" y="536.4" type="curve" smooth="yes"/>
      <point x="746.2" y="0.0" type="line"/>
      <point x="986.2" y="0.0" type="line"/>
      <point x="986.2" y="536.4" type="line" smooth="yes"/>
      <point x="986.2" y="665.4"/>
      <point x="1076.4" y="769.4"/>
      <point x="1199.2" y="769.4" type="curve" smooth="yes"/>
      <point x="1322.2" y="769.4"/>
      <point x="1407.6" y="665.4"/>
      <point x="1407.6" y="536.4" type="curve" smooth="yes"/>
      <point x="1407.6" y="0.0" type="line"/>
      <point x="1647.6" y="0.0" type="line"/>
      <point x="1647.6" y="536.4" type="line" smooth="yes"/>
      <point x="1647.6" y="795.6"/>
      <point x="1456.6" y="1009.4"/>
      <point x="1199.2" y="1009.4" type="curve" smooth="yes"/>
      <point x="1063.2" y="1009.4"/>
      <point x="947.8" y="949.4"/>
      <point x="866.2" y="843.8" type="curve"/>
      <point x="785.6" y="948.2"/>
      <point x="671.2" y="1009.4"/>
      <point x="533.6" y="1009.4" type="curve" smooth="yes"/>
      <point x="448.4" y="1009.4"/>
      <point x="384.4" y="977.6"/>
      <point x="325.2" y="911.4" type="curve"/>
      <point x="325.2" y="1000.0" type="line"/>
      <point x="85.2" y="1000.0" type="line"/>
    </contour>
  </outline>
</glyph>
<glyph name="n" format="2">
  <advance width="1171.5"/>
  <unicode hex="006E"/>
  <outline>
    <contour>
      <point x="1071.6" y="518.0" type="line"/>
      <point x="1069.2" y="797.2"/>
      <point x="894.4" y="1028.0"/>
      <point x="618.4" y="1028.0" type="curve"/>
      <point x="500.4" y="1028.0"/>
      <point x="407.2" y="970.4"/>
      <point x="340.0" y="880.0" type="curve"/>
      <point x="340.0" y="1000.0" type="line"/>
      <point x="100.0" y="1000.0" type="line"/>
      <point x="100.0" y="0.0" type="line"/>
      <point x="340.0" y="0.0" type="line"/>
      <point x="340.0" y="514.0" type="line"/>
      <point x="340.0" y="669.2"/>
      <point x="431.6" y="797.2"/>
      <point x="578.0" y="797.2" type="curve"/>
      <point x="726.4" y="797.2"/>
      <point x="831.6" y="669.2"/>
      <point x="831.6" y="514.0" type="curve"/>
      <point x="831.6" y="0.0" type="line"/>
      <point x="1071.6" y="0.0" type="line"/>
    </contour>
  </outline>
</glyph>
<glyph name="o" format="2">
  <advance width="1120.0"/>
  <unicode hex="006F"/>
  <outline>
    <contour>
      <point x="560.0" y="-26.0" type="curve" smooth="yes"/>
      <point x="836.0" y="-26.0"/>
      <point x="1060.0" y="210.0"/>
      <point x="1060.0" y="500.0" type="curve" smooth="yes"/>
      <point x="1060.0" y="792.0"/>
      <point x="836.0" y="1028.0"/>
      <point x="560.0" y="1028.0" type="curve" smooth="yes"/>
      <point x="284.0" y="1028.0"/>
      <point x="60.0" y="792.0"/>
      <point x="60.0" y="500.0" type="curve" smooth="yes"/>
      <point x="60.0" y="210.0"/>
      <point x="284.0" y="-26.0"/>
    </contour>
    <contour>
      <point x="560.0" y="214.0" type="curve" smooth="yes"/>
      <point x="419.2" y="214.0"/>
      <point x="300.0" y="339.2"/>
      <point x="300.0" y="500.0" type="curve" smooth="yes"/>
      <point x="300.0" y="654.4"/>
      <point x="413.6" y="788.0"/>
      <point x="560.0" y="788.0" type="curve" smooth="yes"/>
      <point x="703.2" y="788.0"/>
      <point x="820.0" y="657.6"/>
      <point x="820.0" y="500.0" type="curve" smooth="yes"/>
      <point x="820.0" y="346.0"/>
      <point x="707.6" y="214.0"/>
    </contour>
  </outline>
</glyph>
<glyph name="q" format="2">
  <advance width="1257.0"/>
  <unicode hex="0071"/>
  <outline>
    <contour>
      <point x="606.0" y="-28.0" type="curve"/>
      <point x="735.6" y="-28.0"/>
      <point x="832.4" y="35.6"/>
      <point x="897.2" y="127.2" type="curve"/>
      <point x="897.2" y="-500.0" type="line"/>
      <point x="1137.2" y="-500.0" type="line"/>
      <point x="1137.2" y="1000.0" type="line"/>
      <point x="897.2" y="1000.0" type="line"/>
      <point x="897.2" y="871.2" type="line"/>
      <point x="832.4" y="962.4"/>
      <point x="735.6" y="1026.0"/>
      <point x="606.0" y="1026.0" type="curve"/>
      <point x="316.0" y="1026.0"/>
      <point x="80.0" y="790.0"/>
      <point x="80.0" y="500.0" type="curve"/>
      <point x="80.0" y="208.0"/>
      <point x="316.0" y="-28.0"/>
    </contour>
    <contour>
      <point x="609.2" y="795.2" type="curve"/>
      <point x="765.6" y="795.2"/>
      <point x="876.4" y="662.4"/>
      <point x="876.4" y="500.0" type="curve"/>
      <point x="876.4" y="337.2"/>
      <point x="766.4" y="204.39999999999998"/>
      <point x="609.2" y="204.39999999999998" type="curve"/>
      <point x="453.6" y="204.39999999999998"/>
      <point x="326.0" y="335.2"/>
      <point x="326.0" y="500.0" type="curve"/>
      <point x="326.0" y="661.6"/>
      <point x="451.6" y="795.2"/>
    </contour>
  </outline>
</glyph>
<glyph name="r" format="2">
  <advance width="794.5"/>
  <unicode hex="0072"/>
  <outline>
    <contour>
      <point x="726.0" y="756.4" type="curve"/>
      <point x="764.4" y="1013.2" type="line"/>
      <point x="726.0" y="1025.2"/>
      <point x="683.6" y="1026.4"/>
      <point x="639.2" y="1026.4" type="curve" smooth="yes"/>
      <point x="521.2" y="1026.4"/>
      <point x="427.2" y="969.2"/>
      <point x="360.0" y="880.0" type="curve"/>
      <point x="360.0" y="998.4" type="line"/>
      <point x="120.0" y="998.4" type="line"/>
      <point x="120.0" y="0.0" type="line"/>
      <point x="361.6" y="0.0" type="line"/>
      <point x="361.6" y="512.4" type="line" smooth="yes"/>
      <point x="361.6" y="669.2"/>
      <point x="451.6" y="795.6"/>
      <point x="598.4" y="795.6" type="curve" smooth="yes"/>
      <point x="648.0" y="795.6"/>
      <point x="691.2" y="780.4"/>
    </contour>
  </outline>
</glyph>
<glyph name="s" format="2">
  <advance width="888.5"/>
  <unicode hex="0073"/>
  <outline>
    <contour>
      <point x="426.0" y="-18.4" type="curve" smooth="yes"/>
      <point x="631.6" y="-33.6"/>
      <point x="827.6" y="98.4"/>
      <point x="827.6" y="291.2" type="curve" smooth="yes"/>
      <point x="832.0" y="461.6"/>
      <point x="668.0" y="553.2"/>
      <point x="492.0" y="610.0" type="curve" smooth="yes"/>
      <point x="411.6" y="635.6"/>
      <point x="306.0" y="642.0"/>
      <point x="306.0" y="720.0" type="curve" smooth="yes"/>
      <point x="306.0" y="800.0"/>
      <point x="380.4" y="833.2"/>
      <point x="472.4" y="828.4" type="curve" smooth="yes"/>
      <point x="543.2" y="824.0"/>
      <point x="610.0" y="781.6"/>
      <point x="638.4" y="732.4" type="curve"/>
      <point x="828.4" y="845.2" type="line"/>
      <point x="752.0" y="964.0"/>
      <point x="611.6" y="1034.0"/>
      <point x="453.2" y="1034.0" type="curve" smooth="yes"/>
      <point x="257.6" y="1034.0"/>
      <point x="81.2" y="911.2"/>
      <point x="81.2" y="714.0" type="curve" smooth="yes"/>
      <point x="81.2" y="534.4"/>
      <point x="247.2" y="437.6"/>
      <point x="438.0" y="398.4" type="curve" smooth="yes"/>
      <point x="512.4" y="381.2"/>
      <point x="605.6" y="364.0"/>
      <point x="605.6" y="288.0" type="curve" smooth="yes"/>
      <point x="605.6" y="218.0"/>
      <point x="529.6" y="185.6"/>
      <point x="451.6" y="185.6" type="curve" smooth="yes"/>
      <point x="361.6" y="185.6"/>
      <point x="287.6" y="239.6"/>
      <point x="263.2" y="283.2" type="curve"/>
      <point x="60.0" y="196.0" type="line"/>
      <point x="118.4" y="68.4"/>
      <point x="269.2" y="-8.0"/>
    </contour>
  </outline>
</glyph>
<glyph name="t" format="2">
  <advance width="715.0"/>
  <unicode hex="0074"/>
  <outline>
    <contour>
      <point x="655.6" y="760.0" type="line"/>
      <point x="655.6" y="1000.0" type="line"/>
      <point x="459.6" y="1000.0" type="line"/>
      <point x="459.2" y="1314.0" type="line"/>
      <point x="219.2" y="1314.0" type="line"/>
      <point x="219.6" y="1000.0" type="line"/>
      <point x="70.4" y="1000.0" type="line"/>
      <point x="70.4" y="760.0" type="line"/>
      <point x="219.6" y="760.0" type="line"/>
      <point x="219.2" y="0.0" type="line"/>
      <point x="459.2" y="0.0" type="line"/>
      <point x="459.6" y="760.0" type="line"/>
    </contour>
  </outline>
</glyph>
<glyph name="u" format="2">
  <advance width="1211.5"/>
  <unicode hex="0075"/>
  <outline>
    <contour>
      <point x="120.0" y="484.0" type="line"/>
      <point x="122.4" y="203.6"/>
      <point x="297.2" y="-27.6"/>
      <point x="573.2" y="-27.6" type="curve"/>
      <point x="691.2" y="-27.6"/>
      <point x="784.4" y="31.6"/>
      <point x="851.6" y="120.4" type="curve"/>
      <point x="851.6" y="0.0" type="line"/>
      <point x="1091.6" y="0.0" type="line"/>
      <point x="1091.6" y="1000.0" type="line"/>
      <point x="851.6" y="1000.0" type="line"/>
      <point x="851.6" y="488.0" type="line"/>
      <point x="851.6" y="331.6"/>
      <point x="760.0" y="205.2"/>
      <point x="613.6" y="205.2" type="curve"/>
      <point x="465.2" y="205.2"/>
      <point x="360.0" y="331.6"/>
      <point x="360.0" y="488.0" type="curve"/>
      <point x="360.0" y="1000.0" type="line"/>
      <point x="120.0" y="1000.0" type="line"/>
    </contour>
  </outline>
</glyph>
<glyph name="v" format="2">
  <advance width="1158.0"/>
  <unicode hex="0076"/>
  <outline>
    <contour>
      <point x="733.6" y="0.0" type="line"/>
      <point x="1098.0" y="1001.2" type="line"/>
      <point x="842.0" y="1001.2" type="line"/>
      <point x="579.2" y="276.4" type="line"/>
      <point x="316.0" y="1001.2" type="line"/>
      <point x="60.0" y="1001.2" type="line"/>
      <point x="424.4" y="0.0" type="line"/>
    </contour>
  </outline>
</glyph>
<glyph name="w" format="2">
  <advance width="1702.0"/>
  <unicode hex="0077"/>
  <outline>
    <contour>
      <point x="632.0" y="0.0" type="line"/>
      <point x="850.4" y="656.4" type="line"/>
      <point x="1069.6" y="0.0" type="line"/>
      <point x="1307.6" y="0.0" type="line"/>
      <point x="1642.0" y="1000.4" type="line"/>
      <point x="1406.4" y="1000.4" type="line"/>
      <point x="1187.6" y="346.4" type="line"/>
      <point x="970.0" y="1000.4" type="line"/>
      <point x="732.0" y="1000.4" type="line"/>
      <point x="514.4" y="346.4" type="line"/>
      <point x="295.2" y="1000.4" type="line"/>
      <point x="60.0" y="1000.4" type="line"/>
      <point x="394.4" y="0.0" type="line"/>
    </contour>
  </outline>
</glyph>
<glyph name="x" format="2">
  <advance width="1188.0"/>
  <unicode hex="0078"/>
  <outline>
    <contour>
      <point x="80.0" y="0.0" type="line"/>
      <point x="376.0" y="0.0" type="line"/>
      <point x="593.6" y="299.2" type="line"/>
      <point x="812.0" y="0.0" type="line"/>
      <point x="1108.0" y="0.0" type="line"/>
      <point x="742.0" y="502.0" type="line"/>
      <point x="1105.2" y="1001.2" type="line"/>
      <point x="809.2" y="1001.2" type="line"/>
      <point x="593.6" y="707.2" type="line"/>
      <point x="379.2" y="1001.2" type="line"/>
      <point x="83.2" y="1001.2" type="line"/>
      <point x="446.0" y="502.0" type="line"/>
    </contour>
  </outline>
</glyph>
<glyph name="y" format="2">
  <advance width="1141.0"/>
  <unicode hex="0079"/>
  <outline>
    <contour>
      <point x="805.6" y="1000.0" type="line"/>
      <point x="559.6" y="328.4" type="line"/>
      <point x="342.4" y="1000.0" type="line"/>
      <point x="80.0" y="1000.0" type="line"/>
      <point x="439.6" y="0.4" type="line"/>
      <point x="259.2" y="-500.0" type="line"/>
      <point x="513.6" y="-500.0" type="line"/>
      <point x="1061.2" y="1000.0" type="line"/>
    </contour>
  </outline>
</glyph>
<glyph name="z" format="2">
  <advance width="1084.0"/>
  <unicode hex="007A"/>
  <outline>
    <contour>
      <point x="969.2" y="760.0" type="line"/>
      <point x="969.2" y="1000.0" type="line"/>
      <point x="115.2" y="1000.0" type="line"/>
      <point x="115.2" y="760.0" type="line"/>
      <point x="623.6" y="760.0" type="line"/>
      <point x="115.2" y="240.0" type="line"/>
      <point x="115.2" y="0.0" type="line"/>
      <point x="969.2" y="0.0" type="line"/>
      <point x="969.2" y="240.0" type="line"/>
      <point x="460.4" y="240.0" type="line"/>
    </contour>
  </outline>
</glyph>
<glyph name="braceleft" format="2">
  <advance width="820.0"/>
  <unicode hex="007B"/>
  <outline>
    <contour>
      <point x="613.6" y="-112.4" type="curve" smooth="yes"/>
      <point x="720.0" y="-112.4" type="line"/>
      <point x="720.0" y="127.6" type="line"/>
      <point x="613.6" y="127.6" type="line" smooth="yes"/>
      <point x="552.4" y="127.6"/>
      <point x="503.6" y="176.4"/>
      <point x="503.6" y="237.6" type="curve" smooth="yes"/>
      <point x="503.6" y="491.6" type="line" smooth="yes"/>
      <point x="499.6" y="561.2"/>
      <point x="436.0" y="581.6"/>
      <point x="407.2" y="643.6" type="curve" smooth="yes"/>
      <point x="435.2" y="700.4"/>
      <point x="499.6" y="728.0"/>
      <point x="503.6" y="796.0" type="curve" smooth="yes"/>
      <point x="503.6" y="1050.0" type="line" smooth="yes"/>
      <point x="503.6" y="1111.2"/>
      <point x="553.2" y="1160.0"/>
      <point x="613.6" y="1160.0" type="curve" smooth="yes"/>
      <point x="720.0" y="1160.0" type="line"/>
      <point x="720.0" y="1400.0" type="line"/>
      <point x="613.6" y="1400.0" type="line" smooth="yes"/>
      <point x="419.6" y="1400.0"/>
      <point x="263.6" y="1242.0"/>
      <point x="263.6" y="1050.0" type="curve" smooth="yes"/>
      <point x="263.6" y="804.0" type="line" smooth="yes"/>
      <point x="262.0" y="738.4"/>
      <point x="120.0" y="723.6"/>
      <point x="120.0" y="643.6" type="curve" smooth="yes"/>
      <point x="120.0" y="559.6"/>
      <point x="262.0" y="555.2"/>
      <point x="263.6" y="482.0" type="curve" smooth="yes"/>
      <point x="263.6" y="237.6" type="line" smooth="yes"/>
      <point x="263.6" y="44.0"/>
      <point x="419.6" y="-112.4"/>
    </contour>
  </outline>
</glyph>
<glyph name="braceright" format="2">
  <advance width="820.0"/>
  <unicode hex="007D"/>
  <outline>
    <contour>
      <point x="100.0" y="-112.4" type="line"/>
      <point x="206.4" y="-112.4" type="line" smooth="yes"/>
      <point x="400.4" y="-112.4"/>
      <point x="556.4" y="44.0"/>
      <point x="556.4" y="237.6" type="curve" smooth="yes"/>
      <point x="556.4" y="482.0" type="line" smooth="yes"/>
      <point x="558.0" y="555.2"/>
      <point x="700.0" y="559.6"/>
      <point x="700.0" y="643.6" type="curve" smooth="yes"/>
      <point x="700.0" y="723.6"/>
      <point x="558.0" y="738.4"/>
      <point x="556.4" y="804.0" type="curve" smooth="yes"/>
      <point x="556.4" y="1050.0" type="line" smooth="yes"/>
      <point x="556.4" y="1242.0"/>
      <point x="400.4" y="1400.0"/>
      <point x="206.4" y="1400.0" type="curve" smooth="yes"/>
      <point x="100.0" y="1400.0" type="line"/>
      <point x="100.0" y="1160.0" type="line"/>
      <point x="206.4" y="1160.0" type="line" smooth="yes"/>
      <point x="267.2" y="1160.0"/>
      <point x="316.4" y="1111.2"/>
      <point x="316.4" y="1050.0" type="curve" smooth="yes"/>
      <point x="316.4" y="796.0" type="line"/>
      <point x="320.4" y="728.0"/>
      <point x="385.2" y="700.4"/>
      <point x="413.2" y="643.6" type="curve" smooth="yes"/>
      <point x="384.0" y="581.6"/>
      <point x="320.4" y="561.2"/>
      <point x="316.4" y="491.6" type="curve"/>
      <point x="316.4" y="237.6" type="line" smooth="yes"/>
      <point x="316.4" y="176.4"/>
      <point x="267.6" y="127.6"/>
      <point x="206.4" y="127.6" type="curve" smooth="yes"/>
      <point x="100.0" y="127.6" type="line"/>
    </contour>
  </outline>
</glyph>
<glyph name="asciitilde" format="2">
  <advance width="1302.0"/>
  <unicode hex="007E"/>
  <outline>
    <contour>
      <point x="958.8" y="398.8" type="curve" smooth="yes"/>
      <point x="1139.2" y="398.8"/>
      <point x="1246.8" y="557.6"/>
      <point x="1217.2" y="736.4" type="curve"/>
      <point x="982.4" y="737.6" type="line"/>
      <point x="989.6" y="673.6"/>
      <point x="959.6" y="618.4"/>
      <point x="894.8" y="618.4" type="curve" smooth="yes"/>
      <point x="751.6" y="618.4"/>
      <point x="551.2" y="801.2"/>
      <point x="379.2" y="801.2" type="curve" smooth="yes"/>
      <point x="196.8" y="801.2"/>
      <point x="55.2" y="635.6"/>
      <point x="83.6" y="460.4" type="curve"/>
      <point x="318.8" y="457.6" type="line"/>
      <point x="311.6" y="517.2"/>
      <point x="338.4" y="576.4"/>
      <point x="402.8" y="575.6" type="curve" smooth="yes"/>
      <point x="540.8" y="576.4"/>
      <point x="784.4" y="398.8"/>
    </contour>
  </outline>
</glyph>
<glyph name="exclamdown" format="2">
  <advance width="436.0"/>
  <unicode hex="00A1"/>
  <outline>
    <contour>
      <point x="202.0" y="1026.0" type="curve"/>
      <point x="134.4" y="1026.0"/>
      <point x="80.0" y="971.6"/>
      <point x="80.0" y="900.4" type="curve"/>
      <point x="80.0" y="833.2"/>
      <point x="134.4" y="778.4"/>
      <point x="202.0" y="778.4" type="curve"/>
      <point x="271.6" y="778.4"/>
      <point x="326.0" y="833.2"/>
      <point x="326.0" y="900.4" type="curve"/>
      <point x="326.0" y="971.6"/>
      <point x="271.6" y="1026.0"/>
    </contour>
    <contour>
      <point x="304.0" y="580.0" type="line"/>
      <point x="101.6" y="580.0" type="line"/>
      <point x="101.6" y="-400.0" type="line"/>
      <point x="304.0" y="-400.0" type="line"/>
    </contour>
  </outline>
</glyph>
<glyph name="cent" format="2">
  <advance width="1092.0"/>
  <unicode hex="00A2"/>
  <outline>
    <contour>
      <point x="498.4" y="0.0" type="line"/>
      <point x="663.6" y="0.0" type="line"/>
      <point x="663.6" y="206.0" type="line"/>
      <point x="811.2" y="229.2"/>
      <point x="937.2" y="317.2"/>
      <point x="1012.0" y="440.0" type="curve"/>
      <point x="804.0" y="560.0" type="line"/>
      <point x="756.0" y="486.0"/>
      <point x="670.4" y="438.0"/>
      <point x="582.0" y="438.0" type="curve" smooth="yes"/>
      <point x="440.0" y="438.0"/>
      <point x="320.0" y="555.6"/>
      <point x="320.0" y="702.0" type="curve" smooth="yes"/>
      <point x="320.0" y="845.6"/>
      <point x="439.2" y="964.0"/>
      <point x="582.0" y="964.0" type="curve" smooth="yes"/>
      <point x="670.4" y="964.0"/>
      <point x="756.0" y="916.0"/>
      <point x="804.0" y="842.0" type="curve"/>
      <point x="1012.0" y="962.0" type="line"/>
      <point x="937.2" y="1085.2"/>
      <point x="811.2" y="1173.2"/>
      <point x="663.6" y="1196.0" type="curve"/>
      <point x="663.6" y="1400.0" type="line"/>
      <point x="498.4" y="1400.0" type="line"/>
      <point x="498.4" y="1196.0" type="line"/>
      <point x="262.0" y="1157.2"/>
      <point x="80.0" y="950.0"/>
      <point x="80.0" y="702.0" type="curve" smooth="yes"/>
      <point x="80.0" y="452.4"/>
      <point x="262.0" y="246.4"/>
      <point x="498.4" y="206.0" type="curve"/>
    </contour>
  </outline>
</glyph>
<glyph name="sterling" format="2">
  <advance width="1194.0"/>
  <unicode hex="00A3"/>
  <outline>
    <contour>
      <point x="104.0" y="0.0" type="line"/>
      <point x="1094.4" y="0.0" type="line"/>
      <point x="1094.4" y="240.0" type="line"/>
      <point x="559.6" y="240.0" type="line"/>
      <point x="583.2" y="258.0"/>
      <point x="612.0" y="307.6"/>
      <point x="612.0" y="357.2" type="curve" smooth="yes"/>
      <point x="612.0" y="634.2"/>
      <point x="320.0" y="658.2"/>
      <point x="320.0" y="910.0" type="curve" smooth="yes"/>
      <point x="320.0" y="1061.6"/>
      <point x="444.4" y="1186.0"/>
      <point x="596.0" y="1186.0" type="curve" smooth="yes"/>
      <point x="749.6" y="1186.0"/>
      <point x="874.0" y="1061.6"/>
      <point x="874.0" y="910.0" type="curve"/>
      <point x="1114.0" y="910.0" type="line"/>
      <point x="1114.0" y="1194.4"/>
      <point x="881.2" y="1426.0"/>
      <point x="596.0" y="1426.0" type="curve" smooth="yes"/>
      <point x="313.2" y="1426.0"/>
      <point x="80.0" y="1193.2"/>
      <point x="80.0" y="910.0" type="curve" smooth="yes"/>
      <point x="80.0" y="687.2"/>
      <point x="318.0" y="583.2"/>
      <point x="361.6" y="429.2" type="curve" smooth="yes"/>
      <point x="411.2" y="312.6"/>
      <point x="240.4" y="240.0"/>
      <point x="104.0" y="240.0" type="curve"/>
    </contour>
    <contour>
      <point x="104.0" y="446.0" type="line"/>
      <point x="873.2" y="446.0" type="line"/>
      <point x="873.2" y="611.2" type="line"/>
      <point x="104.0" y="611.2" type="line"/>
    </contour>
  </outline>
</glyph>
<glyph name="currency" format="2">
  <advance width="1025.0"/>
  <unicode hex="00A4"/>
  <outline>
    <contour>
      <point x="197.2" y="267.4" type="line"/>
      <point x="324.4" y="395.4" type="line"/>
      <point x="441.2" y="319.8"/>
      <point x="585.6" y="320.6"/>
      <point x="703.6" y="393.4" type="curve"/>
      <point x="829.6" y="267.4" type="line"/>
      <point x="945.2" y="384.2" type="line"/>
      <point x="819.6" y="510.2" type="line"/>
      <point x="892.4" y="624.6"/>
      <point x="892.4" y="774.6"/>
      <point x="817.6" y="889.4" type="curve"/>
      <point x="945.2" y="1017.4" type="line"/>
      <point x="829.6" y="1132.6" type="line"/>
      <point x="700.0" y="1004.6" type="line"/>
      <point x="588.0" y="1074.2"/>
      <point x="437.6" y="1073.8"/>
      <point x="327.2" y="1002.6" type="curve"/>
      <point x="197.2" y="1132.6" type="line"/>
      <point x="80.0" y="1017.4" type="line"/>
      <point x="211.2" y="885.8" type="line"/>
      <point x="138.0" y="772.6"/>
      <point x="138.0" y="626.6"/>
      <point x="209.2" y="513.8" type="curve"/>
      <point x="80.0" y="384.2" type="line"/>
    </contour>
    <contour>
      <point x="515.2" y="503.8" type="curve" smooth="yes"/>
      <point x="409.6" y="502.2"/>
      <point x="320.4" y="590.2"/>
      <point x="320.4" y="698.6" type="curve" smooth="yes"/>
      <point x="320.4" y="800.2"/>
      <point x="403.2" y="893.4"/>
      <point x="515.2" y="891.8" type="curve" smooth="yes"/>
      <point x="618.4" y="890.2"/>
      <point x="708.4" y="812.2"/>
      <point x="708.4" y="698.6" type="curve" smooth="yes"/>
      <point x="708.4" y="589.8"/>
      <point x="622.0" y="505.4"/>
    </contour>
  </outline>
</glyph>
<glyph name="yen" format="2">
  <advance width="1331.0"/>
  <unicode hex="00A5"/>
  <outline>
    <contour>
      <point x="545.6" y="0.0" type="line"/>
      <point x="785.6" y="0.0" type="line"/>
      <point x="785.6" y="149.6" type="line"/>
      <point x="1029.6" y="149.6" type="line"/>
      <point x="1029.6" y="314.8" type="line"/>
      <point x="785.6" y="314.8" type="line"/>
      <point x="785.6" y="415.6" type="line"/>
      <point x="1029.6" y="415.6" type="line"/>
      <point x="1029.6" y="580.8" type="line"/>
      <point x="785.6" y="580.8" type="line"/>
      <point x="785.6" y="631.6" type="line"/>
      <point x="1266.0" y="1400.0" type="line"/>
      <point x="983.2" y="1400.0" type="line"/>
      <point x="665.6" y="892.4" type="line"/>
      <point x="348.0" y="1400.0" type="line"/>
      <point x="65.2" y="1400.0" type="line"/>
      <point x="545.6" y="631.6" type="line"/>
      <point x="545.6" y="580.8" type="line"/>
      <point x="301.6" y="580.8" type="line"/>
      <point x="301.6" y="415.6" type="line"/>
      <point x="545.6" y="415.6" type="line"/>
      <point x="545.6" y="314.8" type="line"/>
      <point x="301.6" y="314.8" type="line"/>
      <point x="301.6" y="149.6" type="line"/>
      <point x="545.6" y="149.6" type="line"/>
    </contour>
  </outline>
</glyph>
<glyph name="section" format="2">
  <advance width="1101.0"/>
  <unicode hex="00A7"/>
  <outline>
    <contour>
      <point x="543.2" y="-373.2" type="curve" smooth="yes"/>
      <point x="738.4" y="-373.2"/>
      <point x="915.2" y="-250.0"/>
      <point x="915.2" y="-53.2" type="curve" smooth="yes"/>
      <point x="915.2" y="36.4"/>
      <point x="872.0" y="102.0"/>
      <point x="790.4" y="146.0" type="curve"/>
      <point x="904.4" y="218.4"/>
      <point x="981.2" y="351.6"/>
      <point x="981.2" y="499.6" type="curve" smooth="yes"/>
      <point x="981.2" y="738.4"/>
      <point x="823.2" y="905.6"/>
      <point x="592.4" y="950.4" type="curve" smooth="yes"/>
      <point x="508.0" y="967.6"/>
      <point x="411.2" y="982.4"/>
      <point x="411.2" y="1059.2" type="curve" smooth="yes"/>
      <point x="411.2" y="1139.2"/>
      <point x="485.6" y="1172.0"/>
      <point x="577.6" y="1167.6" type="curve" smooth="yes"/>
      <point x="648.0" y="1163.2"/>
      <point x="715.2" y="1120.4"/>
      <point x="743.6" y="1071.6" type="curve"/>
      <point x="933.6" y="1184.0" type="line"/>
      <point x="857.2" y="1303.2"/>
      <point x="716.4" y="1373.2"/>
      <point x="558.0" y="1373.2" type="curve" smooth="yes"/>
      <point x="362.4" y="1373.2"/>
      <point x="186.0" y="1250.0"/>
      <point x="186.0" y="1053.2" type="curve" smooth="yes"/>
      <point x="186.0" y="963.2"/>
      <point x="228.4" y="897.6"/>
      <point x="309.2" y="855.2" type="curve"/>
      <point x="195.6" y="782.0"/>
      <point x="120.0" y="647.6"/>
      <point x="120.0" y="499.6" type="curve" smooth="yes"/>
      <point x="120.0" y="279.2"/>
      <point x="283.6" y="82.0"/>
      <point x="504.0" y="51.2" type="curve" smooth="yes"/>
      <point x="586.4" y="37.6"/>
      <point x="690.0" y="19.2"/>
      <point x="690.0" y="-59.2" type="curve" smooth="yes"/>
      <point x="690.0" y="-139.2"/>
      <point x="615.6" y="-172.0"/>
      <point x="523.6" y="-167.60000000000002" type="curve" smooth="yes"/>
      <point x="453.2" y="-163.2"/>
      <point x="386.0" y="-120.4"/>
      <point x="357.6" y="-71.6" type="curve"/>
      <point x="167.6" y="-184.0" type="line"/>
      <point x="244.0" y="-303.2"/>
      <point x="384.4" y="-373.2"/>
    </contour>
    <contour>
      <point x="561.2" y="265.6" type="curve" smooth="yes"/>
      <point x="429.2" y="265.6"/>
      <point x="331.6" y="368.4"/>
      <point x="331.6" y="499.6" type="curve" smooth="yes"/>
      <point x="331.6" y="618.0"/>
      <point x="429.2" y="734.4"/>
      <point x="534.0" y="734.4" type="curve" smooth="yes"/>
      <point x="669.6" y="734.4"/>
      <point x="769.6" y="640.4"/>
      <point x="769.6" y="498.0" type="curve" smooth="yes"/>
      <point x="769.6" y="378.4"/>
      <point x="673.6" y="265.6"/>
    </contour>
  </outline>
</glyph>
<glyph name="copyright" format="2">
  <advance width="1902.5"/>
  <unicode hex="00A9"/>
  <outline>
    <contour>
      <point x="950.4" y="-315.2" type="curve" smooth="yes"/>
      <point x="1432.0" y="-315.2"/>
      <point x="1822.4" y="74.0"/>
      <point x="1822.4" y="555.6" type="curve" smooth="yes"/>
      <point x="1822.4" y="1038.4"/>
      <point x="1432.0" y="1426.0"/>
      <point x="950.4" y="1426.0" type="curve" smooth="yes"/>
      <point x="469.2" y="1426.0"/>
      <point x="80.0" y="1037.2"/>
      <point x="80.0" y="555.6" type="curve" smooth="yes"/>
      <point x="80.0" y="74.0"/>
      <point x="469.2" y="-315.2"/>
    </contour>
    <contour>
      <point x="950.4" y="-75.2" type="curve" smooth="yes"/>
      <point x="609.6" y="-75.2"/>
      <point x="320.0" y="199.2"/>
      <point x="320.0" y="555.6" type="curve" smooth="yes"/>
      <point x="320.0" y="897.6"/>
      <point x="596.0" y="1185.2"/>
      <point x="950.4" y="1186.0" type="curve" smooth="yes"/>
      <point x="1300.4" y="1187.2"/>
      <point x="1582.4" y="902.0"/>
      <point x="1582.4" y="555.6" type="curve" smooth="yes"/>
      <point x="1582.4" y="214.4"/>
      <point x="1306.4" y="-75.2"/>
    </contour>
    <component base="c" xOffset="393.6" yOffset="55.6"/>
  </outline>
</glyph>
<glyph name="logicalnot" format="2">
  <advance width="1021.0"/>
  <unicode hex="00AC"/>
  <outline>
    <contour>
      <point x="701.2" y="290.2" type="line"/>
      <point x="941.2" y="290.2" type="line"/>
      <point x="941.2" y="910.2" type="line"/>
      <point x="80.0" y="910.2" type="line"/>
      <point x="80.0" y="670.2" type="line"/>
      <point x="701.2" y="670.2" type="line"/>
    </contour>
  </outline>
</glyph>
<glyph name="registered" format="2">
  <advance width="1119.5"/>
  <unicode hex="00AE"/>
  <outline>
    <contour>
      <point x="559.2" y="401.2" type="curve" smooth="yes"/>
      <point x="832.0" y="401.6"/>
      <point x="1059.6" y="623.2"/>
      <point x="1059.6" y="901.6" type="curve" smooth="yes"/>
      <point x="1059.6" y="1170.0"/>
      <point x="840.4" y="1400.4"/>
      <point x="559.2" y="1400.4" type="curve" smooth="yes"/>
      <point x="283.2" y="1400.4"/>
      <point x="60.0" y="1176.0"/>
      <point x="60.0" y="901.6" type="curve" smooth="yes"/>
      <point x="60.0" y="626.0"/>
      <point x="282.4" y="401.6"/>
    </contour>
    <contour>
      <point x="559.2" y="573.6" type="curve" smooth="yes"/>
      <point x="379.2" y="573.6"/>
      <point x="232.4" y="720.0"/>
      <point x="232.4" y="901.6" type="curve" smooth="yes"/>
      <point x="232.4" y="1081.6"/>
      <point x="379.2" y="1228.0"/>
      <point x="559.2" y="1228.0" type="curve" smooth="yes"/>
      <point x="740.4" y="1228.0"/>
      <point x="887.2" y="1081.6"/>
      <point x="887.2" y="901.6" type="curve" smooth="yes"/>
      <point x="887.2" y="720.0"/>
      <point x="740.4" y="573.6"/>
    </contour>
    <contour>
      <point x="422.0" y="702.0" type="line"/>
      <point x="519.6" y="702.0" type="line"/>
      <point x="519.6" y="859.6" type="line"/>
      <point x="541.2" y="859.6" type="line"/>
      <point x="633.6" y="702.0" type="line"/>
      <point x="745.6" y="702.0" type="line"/>
      <point x="645.2" y="875.2" type="line"/>
      <point x="687.2" y="895.6"/>
      <point x="715.2" y="941.2"/>
      <point x="715.2" y="993.2" type="curve" smooth="yes"/>
      <point x="715.2" y="1067.2"/>
      <point x="658.4" y="1127.2"/>
      <point x="587.2" y="1127.2" type="curve" smooth="yes"/>
      <point x="422.0" y="1127.2" type="line"/>
    </contour>
    <contour>
      <point x="519.6" y="957.2" type="line"/>
      <point x="519.6" y="1029.6" type="line"/>
      <point x="587.2" y="1029.6" type="line" smooth="yes"/>
      <point x="603.6" y="1029.6"/>
      <point x="617.6" y="1013.6"/>
      <point x="617.6" y="993.2" type="curve" smooth="yes"/>
      <point x="617.6" y="973.2"/>
      <point x="603.6" y="957.2"/>
      <point x="587.2" y="957.2" type="curve" smooth="yes"/>
    </contour>
  </outline>
</glyph>
<glyph name="macron" format="2">
  <advance width="1200.0"/>
  <unicode hex="00AF"/>
  <outline>
    <contour>
      <point x="262.0" y="1412.0" type="line"/>
      <point x="262.0" y="1172.0" type="line"/>
      <point x="938.0" y="1172.0" type="line"/>
      <point x="938.0" y="1412.0" type="line"/>
    </contour>
  </outline>
</glyph>
<glyph name="degree" format="2">
  <advance width="905.5"/>
  <unicode hex="00B0"/>
  <outline>
    <contour>
      <point x="453.6" y="708.0" type="curve" smooth="yes"/>
      <point x="654.0" y="708.0"/>
      <point x="825.6" y="867.6"/>
      <point x="825.6" y="1080.0" type="curve" smooth="yes"/>
      <point x="825.6" y="1277.6"/>
      <point x="666.0" y="1452.0"/>
      <point x="453.6" y="1452.0" type="curve" smooth="yes"/>
      <point x="245.6" y="1452.0"/>
      <point x="80.0" y="1282.0"/>
      <point x="80.0" y="1080.0" type="curve" smooth="yes"/>
      <point x="80.0" y="882.4"/>
      <point x="242.4" y="708.0"/>
    </contour>
    <contour>
      <point x="453.6" y="948.0" type="curve" smooth="yes"/>
      <point x="379.6" y="948.0"/>
      <point x="320.0" y="1006.0"/>
      <point x="320.0" y="1080.0" type="curve" smooth="yes"/>
      <point x="320.0" y="1154.0"/>
      <point x="379.6" y="1212.0"/>
      <point x="453.6" y="1212.0" type="curve" smooth="yes"/>
      <point x="526.0" y="1212.0"/>
      <point x="585.6" y="1154.0"/>
      <point x="585.6" y="1080.0" type="curve" smooth="yes"/>
      <point x="585.6" y="1006.0"/>
      <point x="526.0" y="948.0"/>
    </contour>
  </outline>
</glyph>
<glyph name="plusminus" format="2">
  <advance width="1160.0"/>
  <unicode hex="00B1"/>
  <outline>
    <contour>
      <point x="460.0" y="375.2" type="line"/>
      <point x="700.0" y="375.2" type="line"/>
      <point x="700.0" y="755.2" type="line"/>
      <point x="1080.0" y="755.2" type="line"/>
      <point x="1080.0" y="995.2" type="line"/>
      <point x="700.0" y="995.2" type="line"/>
      <point x="700.0" y="1375.2" type="line"/>
      <point x="460.0" y="1375.2" type="line"/>
      <point x="460.0" y="995.2" type="line"/>
      <point x="80.0" y="995.2" type="line"/>
      <point x="80.0" y="755.2" type="line"/>
      <point x="460.0" y="755.2" type="line"/>
    </contour>
    <contour>
      <point x="80.0" y="0.4" type="line"/>
      <point x="1080.0" y="0.4" type="line"/>
      <point x="1080.0" y="240.39999999999998" type="line"/>
      <point x="80.0" y="240.39999999999998" type="line"/>
    </contour>
  </outline>
</glyph>
<glyph name="twosuperior" format="2">
  <advance width="712.75"/>
  <unicode hex="00B2"/>
  <outline>
    <contour>
      <point x="96.0" y="818.0" type="line"/>
      <point x="559.8" y="818.0" type="line"/>
      <point x="559.8" y="962.0" type="line"/>
      <point x="356.6" y="962.0" type="line"/>
      <point x="452.8" y="1040.0"/>
      <point x="568.6" y="1135.2"/>
      <point x="568.6" y="1242.2" type="curve"/>
      <point x="568.6" y="1373.2"/>
      <point x="463.8" y="1468.0"/>
      <point x="333.8" y="1468.0" type="curve"/>
      <point x="202.4" y="1468.0"/>
      <point x="96.0" y="1373.2"/>
      <point x="96.0" y="1242.2" type="curve"/>
      <point x="240.0" y="1242.2" type="line"/>
      <point x="240.0" y="1294.4"/>
      <point x="281.6" y="1333.2"/>
      <point x="333.8" y="1333.2" type="curve"/>
      <point x="384.4" y="1333.2"/>
      <point x="424.6" y="1294.4"/>
      <point x="424.6" y="1242.2" type="curve"/>
      <point x="370.6" y="1110.8"/>
      <point x="206.6" y="1021.4"/>
      <point x="96.0" y="946.0" type="curve"/>
    </contour>
  </outline>
</glyph>
<glyph name="threesuperior" format="2">
  <advance width="576.0"/>
  <unicode hex="00B3"/>
  <outline>
    <contour>
      <point x="289.0" y="798.0" type="curve" smooth="yes"/>
      <point x="406.2" y="798.0"/>
      <point x="504.0" y="884.2"/>
      <point x="504.0" y="1004.0" type="curve" smooth="yes"/>
      <point x="504.0" y="1061.6"/>
      <point x="483.4" y="1111.4"/>
      <point x="441.4" y="1151.0" type="curve"/>
      <point x="469.0" y="1182.6"/>
      <point x="486.6" y="1229.2"/>
      <point x="486.6" y="1277.0" type="curve" smooth="yes"/>
      <point x="486.6" y="1388.4"/>
      <point x="396.4" y="1467.6"/>
      <point x="284.0" y="1467.6" type="curve" smooth="yes"/>
      <point x="172.6" y="1467.6"/>
      <point x="82.4" y="1388.4"/>
      <point x="82.4" y="1277.0" type="curve"/>
      <point x="226.4" y="1277.0" type="line"/>
      <point x="226.4" y="1308.6"/>
      <point x="253.4" y="1332.4"/>
      <point x="284.0" y="1332.4" type="curve" smooth="yes"/>
      <point x="315.6" y="1332.4"/>
      <point x="342.6" y="1308.6"/>
      <point x="342.6" y="1277.0" type="curve" smooth="yes"/>
      <point x="342.6" y="1237.2"/>
      <point x="316.4" y="1195.4"/>
      <point x="236.8" y="1195.4" type="curve"/>
      <point x="236.8" y="1098.8" type="line"/>
      <point x="318.0" y="1098.8"/>
      <point x="360.0" y="1052.4"/>
      <point x="360.0" y="1004.0" type="curve" smooth="yes"/>
      <point x="360.0" y="962.4"/>
      <point x="328.4" y="933.2"/>
      <point x="289.0" y="933.2" type="curve" smooth="yes"/>
      <point x="247.6" y="933.2"/>
      <point x="216.0" y="962.4"/>
      <point x="216.0" y="1004.0" type="curve"/>
      <point x="72.0" y="1004.0" type="line"/>
      <point x="72.0" y="884.2"/>
      <point x="170.2" y="798.0"/>
    </contour>
  </outline>
</glyph>
<glyph name="paragraph" format="2">
  <advance width="1050.0"/>
  <unicode hex="00B6"/>
  <outline>
    <contour>
      <point x="420.0" y="-302.0" type="line"/>
      <point x="660.0" y="-302.0" type="line"/>
      <point x="660.0" y="1400.0" type="line"/>
      <point x="420.0" y="1400.0" type="line" smooth="yes"/>
      <point x="232.0" y="1400.0"/>
      <point x="80.0" y="1247.6"/>
      <point x="80.0" y="1059.6" type="curve" smooth="yes"/>
      <point x="80.0" y="870.0"/>
      <point x="232.0" y="718.0"/>
      <point x="420.0" y="718.0" type="curve"/>
    </contour>
    <contour>
      <point x="730.0" y="-302.0" type="line"/>
      <point x="970.0" y="-302.0" type="line"/>
      <point x="970.0" y="1400.0" type="line"/>
      <point x="730.0" y="1400.0" type="line"/>
    </contour>
  </outline>
</glyph>
<glyph name="periodcentered" format="2">
  <advance width="407.5"/>
  <unicode hex="00B7"/>
  <outline>
    <contour>
      <point x="203.6" y="476.4" type="curve" smooth="yes"/>
      <point x="271.6" y="476.4"/>
      <point x="327.6" y="530.8"/>
      <point x="327.6" y="600.4" type="curve" smooth="yes"/>
      <point x="327.6" y="667.6"/>
      <point x="271.6" y="723.6"/>
      <point x="203.6" y="723.6" type="curve" smooth="yes"/>
      <point x="134.4" y="723.6"/>
      <point x="80.0" y="667.6"/>
      <point x="80.0" y="600.4" type="curve" smooth="yes"/>
      <point x="80.0" y="530.8"/>
      <point x="134.4" y="476.4"/>
    </contour>
  </outline>
</glyph>
<glyph name="onesuperior" format="2">
  <advance width="449.75"/>
  <unicode hex="00B9"/>
  <outline>
    <contour>
      <point x="161.6" y="818.0" type="line"/>
      <point x="305.6" y="818.0" type="line"/>
      <point x="305.6" y="1449.0" type="line"/>
      <point x="116.4" y="1449.0" type="line"/>
      <point x="96.0" y="1305.0" type="line"/>
      <point x="161.6" y="1305.0" type="line"/>
    </contour>
  </outline>
</glyph>
<glyph name="questiondown" format="2">
  <advance width="1094.0"/>
  <unicode hex="00BF"/>
  <outline>
    <contour>
      <point x="532.0" y="-426.4" type="curve" smooth="yes"/>
      <point x="781.6" y="-426.4"/>
      <point x="984.0" y="-224.0"/>
      <point x="984.0" y="24.0" type="curve"/>
      <point x="744.0" y="24.0" type="line"/>
      <point x="744.0" y="-92.4"/>
      <point x="648.4" y="-186.4"/>
      <point x="532.0" y="-186.4" type="curve" smooth="yes"/>
      <point x="415.6" y="-186.4"/>
      <point x="320.0" y="-92.4"/>
      <point x="320.0" y="24.0" type="curve" smooth="yes"/>
      <point x="320.0" y="106.4"/>
      <point x="360.0" y="178.4"/>
      <point x="425.6" y="214.0" type="curve" smooth="yes"/>
      <point x="558.0" y="286.2"/>
      <point x="638.0" y="420.6"/>
      <point x="638.0" y="570.0" type="curve"/>
      <point x="398.0" y="570.0" type="line"/>
      <point x="398.0" y="507.8"/>
      <point x="365.6" y="453.4"/>
      <point x="312.0" y="425.2" type="curve" smooth="yes"/>
      <point x="168.0" y="348.4"/>
      <point x="80.0" y="194.4"/>
      <point x="80.0" y="24.0" type="curve" smooth="yes"/>
      <point x="80.0" y="-224.0"/>
      <point x="282.4" y="-426.4"/>
    </contour>
    <contour>
      <point x="509.6" y="778.4" type="curve" smooth="yes"/>
      <point x="578.4" y="778.4"/>
      <point x="633.2" y="833.2"/>
      <point x="633.2" y="900.4" type="curve" smooth="yes"/>
      <point x="633.2" y="971.6"/>
      <point x="578.4" y="1026.0"/>
      <point x="509.6" y="1026.0" type="curve" smooth="yes"/>
      <point x="441.6" y="1026.0"/>
      <point x="387.2" y="971.6"/>
      <point x="387.2" y="900.4" type="curve" smooth="yes"/>
      <point x="387.2" y="833.2"/>
      <point x="441.6" y="778.4"/>
    </contour>
  </outline>
</glyph>
<glyph name="AE" format="2">
  <advance width="1676.0"/>
  <unicode hex="00C6"/>
  <outline>
    <contour>
      <point x="80.0" y="0.0" type="line"/>
      <point x="334.4" y="0.0" type="line"/>
      <point x="425.6" y="250.0" type="line"/>
      <point x="839.2" y="250.0" type="line"/>
      <point x="839.2" y="0.0" type="line"/>
      <point x="1576.0" y="0.0" type="line"/>
      <point x="1576.0" y="240.0" type="line"/>
      <point x="1079.2" y="240.0" type="line"/>
      <point x="1079.2" y="580.0" type="line"/>
      <point x="1480.0" y="580.0" type="line"/>
      <point x="1480.0" y="820.0" type="line"/>
      <point x="1079.2" y="820.0" type="line"/>
      <point x="1079.2" y="1160.0" type="line"/>
      <point x="1576.0" y="1160.0" type="line"/>
      <point x="1576.0" y="1400.0" type="line"/>
      <point x="588.4" y="1400.0" type="line"/>
    </contour>
    <contour>
      <point x="513.6" y="490.0" type="line"/>
      <point x="757.2" y="1160.0" type="line"/>
      <point x="839.2" y="1160.0" type="line"/>
      <point x="839.2" y="490.0" type="line"/>
    </contour>
  </outline>
</glyph>
<glyph name="Eth" format="2">
  <advance width="1459.5"/>
  <unicode hex="00D0"/>
  <outline>
    <contour>
      <point x="237.2" y="0.0" type="line"/>
      <point x="699.6" y="0.0" type="line" smooth="yes"/>
      <point x="1085.6" y="0.0"/>
      <point x="1399.6" y="314.0"/>
      <point x="1399.6" y="700.0" type="curve" smooth="yes"/>
      <point x="1399.6" y="1086.0"/>
      <point x="1085.6" y="1400.0"/>
      <point x="699.6" y="1400.0" type="curve" smooth="yes"/>
      <point x="237.2" y="1400.0" type="line"/>
      <point x="237.2" y="870.0" type="line"/>
      <point x="100.0" y="870.0" type="line"/>
      <point x="100.0" y="630.0" type="line"/>
      <point x="237.2" y="630.0" type="line"/>
    </contour>
    <contour>
      <point x="477.2" y="240.0" type="line"/>
      <point x="477.2" y="630.0" type="line"/>
      <point x="755.2" y="630.0" type="line"/>
      <point x="755.2" y="870.0" type="line"/>
      <point x="477.2" y="870.0" type="line"/>
      <point x="477.2" y="1160.0" type="line"/>
      <point x="699.6" y="1160.0" type="line" smooth="yes"/>
      <point x="950.4" y="1160.0"/>
      <point x="1159.6" y="955.2"/>
      <point x="1159.6" y="700.0" type="curve" smooth="yes"/>
      <point x="1159.6" y="448.4"/>
      <point x="954.4" y="240.0"/>
      <point x="699.6" y="240.0" type="curve" smooth="yes"/>
    </contour>
  </outline>
</glyph>
<glyph name="multiply" format="2">
  <advance width="1036.0"/>
  <unicode hex="00D7"/>
  <outline>
    <contour>
      <point x="249.6" y="161.6" type="line"/>
      <point x="517.2" y="430.4" type="line"/>
      <point x="786.0" y="161.6" type="line"/>
      <point x="956.0" y="331.2" type="line"/>
      <point x="686.4" y="600.0" type="line"/>
      <point x="956.0" y="869.2" type="line"/>
      <point x="786.0" y="1038.4" type="line"/>
      <point x="517.2" y="769.6" type="line"/>
      <point x="249.6" y="1038.4" type="line"/>
      <point x="80.0" y="869.2" type="line"/>
      <point x="347.6" y="600.0" type="line"/>
      <point x="80.0" y="331.2" type="line"/>
    </contour>
  </outline>
</glyph>
<glyph name="Oslash" format="2">
  <advance width="1540.0"/>
  <unicode hex="00D8"/>
  <outline>
    <contour>
      <point x="444.0" y="-107.2" type="line"/>
      <point x="520.4" y="26.400000000000002" type="line"/>
      <point x="598.0" y="-6.8"/>
      <point x="681.6" y="-26.0"/>
      <point x="770.0" y="-26.0" type="curve" smooth="yes"/>
      <point x="1150.0" y="-26.0"/>
      <point x="1460.0" y="300.0"/>
      <point x="1460.0" y="700.0" type="curve" smooth="yes"/>
      <point x="1460.0" y="917.6"/>
      <point x="1368.0" y="1112.4"/>
      <point x="1223.2" y="1245.6" type="curve"/>
      <point x="1306.0" y="1387.2" type="line"/>
      <point x="1098.0" y="1507.2" type="line"/>
      <point x="1021.6" y="1375.2" type="line"/>
      <point x="944.0" y="1407.6"/>
      <point x="860.4" y="1426.0"/>
      <point x="770.0" y="1426.0" type="curve" smooth="yes"/>
      <point x="390.0" y="1426.0"/>
      <point x="80.0" y="1100.0"/>
      <point x="80.0" y="700.0" type="curve" smooth="yes"/>
      <point x="80.0" y="483.2"/>
      <point x="174.0" y="288.0"/>
      <point x="317.6" y="156.0" type="curve"/>
      <point x="236.0" y="12.8" type="line"/>
    </contour>
    <contour>
      <point x="445.2" y="376.4" type="line"/>
      <point x="368.4" y="459.2"/>
      <point x="320.0" y="574.0"/>
      <point x="320.0" y="700.0" type="curve" smooth="yes"/>
      <point x="320.0" y="965.6"/>
      <point x="521.6" y="1186.0"/>
      <point x="770.0" y="1186.0" type="curve" smooth="yes"/>
      <point x="815.6" y="1186.0"/>
      <point x="859.6" y="1177.2"/>
      <point x="898.4" y="1161.2" type="curve"/>
    </contour>
    <contour>
      <point x="770.0" y="214.0" type="curve" smooth="yes"/>
      <point x="726.4" y="214.0"/>
      <point x="682.4" y="223.2"/>
      <point x="643.6" y="240.4" type="curve"/>
      <point x="1097.2" y="1024.0" type="line"/>
      <point x="1173.2" y="941.2"/>
      <point x="1220.0" y="826.0"/>
      <point x="1220.0" y="700.0" type="curve" smooth="yes"/>
      <point x="1220.0" y="434.4"/>
      <point x="1018.4" y="214.0"/>
    </contour>
  </outline>
</glyph>
<glyph name="Thorn" format="2">
  <advance width="1105.0"/>
  <unicode hex="00DE"/>
  <outline>
    <contour>
      <point x="120.0" y="0.0" type="line"/>
      <point x="360.0" y="0.0" type="line"/>
      <point x="360.0" y="279.2" type="line"/>
      <point x="618.0" y="279.2" type="line" smooth="yes"/>
      <point x="838.0" y="279.2"/>
      <point x="1025.2" y="465.6"/>
      <point x="1025.2" y="700.0" type="curve" smooth="yes"/>
      <point x="1025.2" y="931.2"/>
      <point x="845.6" y="1121.2"/>
      <point x="618.0" y="1121.2" type="curve" smooth="yes"/>
      <point x="360.0" y="1121.2" type="line"/>
      <point x="360.0" y="1400.0" type="line"/>
      <point x="120.0" y="1400.0" type="line"/>
    </contour>
    <contour>
      <point x="360.0" y="519.2" type="line"/>
      <point x="360.0" y="914.0" type="line"/>
      <point x="592.4" y="914.0" type="line" smooth="yes"/>
      <point x="698.0" y="914.0"/>
      <point x="785.2" y="827.2"/>
      <point x="785.2" y="716.4" type="curve" smooth="yes"/>
      <point x="785.2" y="606.0"/>
      <point x="698.0" y="519.2"/>
      <point x="592.4" y="519.2" type="curve" smooth="yes"/>
    </contour>
  </outline>
</glyph>
<glyph name="germandbls" format="2">
  <advance width="1142.0"/>
  <unicode hex="00DF"/>
  <outline>
    <contour>
      <point x="120.0" y="0.0" type="line"/>
      <point x="360.0" y="0.0" type="line"/>
      <point x="360.0" y="961.2" type="line" smooth="yes"/>
      <point x="360.0" y="1089.6"/>
      <point x="463.2" y="1192.4"/>
      <point x="591.6" y="1192.4" type="curve" smooth="yes"/>
      <point x="691.2" y="1192.4"/>
      <point x="773.2" y="1107.2"/>
      <point x="773.2" y="1003.2" type="curve" smooth="yes"/>
      <point x="773.2" y="899.2"/>
      <point x="691.2" y="824.0"/>
      <point x="591.6" y="813.6" type="curve" smooth="yes"/>
      <point x="566.4" y="810.4" type="line"/>
      <point x="566.4" y="614.0" type="line"/>
      <point x="651.6" y="611.2" type="line" smooth="yes"/>
      <point x="771.2" y="606.4"/>
      <point x="867.6" y="519.2"/>
      <point x="867.6" y="408.4" type="curve" smooth="yes"/>
      <point x="867.6" y="298.0"/>
      <point x="771.2" y="205.6"/>
      <point x="651.6" y="205.6" type="curve" smooth="yes"/>
      <point x="566.4" y="205.6" type="line"/>
      <point x="601.6" y="0.0" type="line"/>
      <point x="675.6" y="0.0" type="line" smooth="yes"/>
      <point x="899.2" y="0.0"/>
      <point x="1082.0" y="168.0"/>
      <point x="1082.0" y="392.0" type="curve" smooth="yes"/>
      <point x="1082.0" y="526.0"/>
      <point x="1041.6" y="698.4"/>
      <point x="870.4" y="727.6" type="curve"/>
      <point x="975.2" y="779.2"/>
      <point x="1013.2" y="902.4"/>
      <point x="1013.2" y="1003.2" type="curve" smooth="yes"/>
      <point x="1013.2" y="1229.2"/>
      <point x="839.2" y="1399.6"/>
      <point x="618.4" y="1399.6" type="curve" smooth="yes"/>
      <point x="342.0" y="1399.6"/>
      <point x="120.0" y="1175.6"/>
      <point x="120.0" y="901.2" type="curve" smooth="yes"/>
    </contour>
  </outline>
</glyph>
<glyph name="ae" format="2">
  <advance width="1840.25"/>
  <unicode hex="00E6"/>
  <outline>
    <contour>
      <point x="493.2" y="-19.6" type="curve" smooth="yes"/>
      <point x="615.6" y="-19.6" type="line" smooth="yes"/>
      <point x="758.0" y="-19.6"/>
      <point x="853.2" y="41.2"/>
      <point x="923.6" y="147.60000000000002" type="curve"/>
      <point x="1010.4" y="45.6"/>
      <point x="1137.6" y="-19.6"/>
      <point x="1280.4" y="-19.6" type="curve" smooth="yes"/>
      <point x="1480.4" y="-19.6"/>
      <point x="1652.4" y="104.4"/>
      <point x="1732.4" y="282.4" type="curve"/>
      <point x="1488.0" y="340.0" type="line"/>
      <point x="1441.2" y="265.6"/>
      <point x="1366.4" y="220.39999999999998"/>
      <point x="1280.4" y="220.39999999999998" type="curve" smooth="yes"/>
      <point x="1152.4" y="222.0"/>
      <point x="1064.4" y="309.2"/>
      <point x="1038.4" y="425.6" type="curve"/>
      <point x="1772.4" y="425.6" type="line"/>
      <point x="1816.0" y="749.2"/>
      <point x="1590.4" y="1034.4"/>
      <point x="1280.4" y="1034.4" type="curve" smooth="yes"/>
      <point x="1136.0" y="1034.4"/>
      <point x="1007.6" y="967.2"/>
      <point x="922.4" y="861.6" type="curve"/>
      <point x="849.2" y="971.2"/>
      <point x="730.0" y="1034.4"/>
      <point x="546.4" y="1034.4" type="curve" smooth="yes"/>
      <point x="366.4" y="1034.4"/>
      <point x="219.2" y="1006.4"/>
      <point x="128.4" y="850.4" type="curve"/>
      <point x="335.2" y="729.2" type="line"/>
      <point x="364.4" y="778.0"/>
      <point x="417.2" y="815.6"/>
      <point x="546.4" y="815.6" type="curve" smooth="yes"/>
      <point x="704.4" y="815.6"/>
      <point x="767.2" y="730.0"/>
      <point x="783.2" y="605.6" type="curve"/>
      <point x="375.2" y="605.6" type="line" smooth="yes"/>
      <point x="210.0" y="605.6"/>
      <point x="80.0" y="505.6"/>
      <point x="77.6" y="337.6" type="curve" smooth="yes"/>
      <point x="78.4" y="111.6"/>
      <point x="235.2" y="-19.6"/>
    </contour>
    <contour>
      <point x="542.0" y="130.4" type="curve" smooth="yes"/>
      <point x="406.4" y="130.4"/>
      <point x="311.2" y="188.4"/>
      <point x="310.0" y="312.0" type="curve" smooth="yes"/>
      <point x="311.6" y="408.4"/>
      <point x="394.0" y="425.6"/>
      <point x="504.0" y="425.6" type="curve" smooth="yes"/>
      <point x="776.0" y="425.6" type="line"/>
      <point x="776.0" y="354.0" type="line" smooth="yes"/>
      <point x="776.0" y="267.2"/>
      <point x="711.2" y="130.4"/>
    </contour>
    <contour>
      <point x="1029.6" y="605.6" type="line"/>
      <point x="1054.4" y="730.4"/>
      <point x="1156.4" y="824.4"/>
      <point x="1280.4" y="824.4" type="curve" smooth="yes"/>
      <point x="1404.0" y="824.4"/>
      <point x="1506.4" y="728.4"/>
      <point x="1529.6" y="605.6" type="curve"/>
    </contour>
  </outline>
</glyph>
<glyph name="igrave" format="2">
  <advance width="518.0"/>
  <unicode hex="00EC"/>
  <outline>
    <contour>
      <point x="157.6" y="1000.0" type="line"/>
      <point x="157.6" y="0.0" type="line"/>
      <point x="397.6" y="0.0" type="line"/>
      <point x="397.6" y="1000.0" type="line"/>
    </contour>
    <component base="grave" xOffset="-300.0"/>
  </outline>
</glyph>
<glyph name="iacute" format="2">
  <advance width="518.0"/>
  <unicode hex="00ED"/>
  <outline>
    <contour>
      <point x="120.0" y="1000.0" type="line"/>
      <point x="120.0" y="0.0" type="line"/>
      <point x="360.0" y="0.0" type="line"/>
      <point x="360.0" y="1000.0" type="line"/>
    </contour>
    <component base="acutecomb" xOffset="-302.4"/>
  </outline>
</glyph>
<glyph name="eth" format="2">
  <advance width="1125.5"/>
  <unicode hex="00F0"/>
  <outline>
    <contour>
      <point x="437.2" y="1031.2" type="line"/>
      <point x="873.6" y="1462.4" type="line"/>
      <point x="758.0" y="1579.6" type="line"/>
      <point x="319.6" y="1148.4" type="line"/>
    </contour>
    <component base="partialdiff"/>
  </outline>
</glyph>
<glyph name="divide" format="2">
  <advance width="1160.0"/>
  <unicode hex="00F7"/>
  <outline>
    <contour>
      <point x="80.0" y="480.0" type="line"/>
      <point x="1080.0" y="480.0" type="line"/>
      <point x="1080.0" y="720.0" type="line"/>
      <point x="80.0" y="720.0" type="line"/>
    </contour>
    <contour>
      <point x="580.0" y="1093.6" type="curve"/>
      <point x="505.2" y="1093.6"/>
      <point x="447.6" y="1032.0"/>
      <point x="447.6" y="960.4" type="curve"/>
      <point x="447.6" y="888.0"/>
      <point x="505.2" y="828.0"/>
      <point x="580.0" y="828.0" type="curve"/>
      <point x="652.0" y="828.0"/>
      <point x="712.0" y="888.0"/>
      <point x="712.0" y="960.4" type="curve"/>
      <point x="712.0" y="1032.0"/>
      <point x="652.0" y="1093.6"/>
    </contour>
    <contour>
      <point x="580.0" y="371.6" type="curve"/>
      <point x="505.2" y="371.6"/>
      <point x="447.6" y="310.4"/>
      <point x="447.6" y="238.4" type="curve"/>
      <point x="447.6" y="166.0"/>
      <point x="505.2" y="106.4"/>
      <point x="580.0" y="106.4" type="curve"/>
      <point x="652.0" y="106.4"/>
      <point x="713.2" y="166.0"/>
      <point x="713.2" y="238.4" type="curve"/>
      <point x="713.2" y="310.4"/>
      <point x="652.0" y="371.6"/>
    </contour>
  </outline>
</glyph>
<glyph name="oslash" format="2">
  <advance width="1120.0"/>
  <unicode hex="00F8"/>
  <outline>
    <contour>
      <point x="340.4" y="-74.4" type="line"/>
      <point x="387.6" y="7.600000000000001" type="line"/>
      <point x="441.2" y="-14.0"/>
      <point x="498.4" y="-26.0"/>
      <point x="560.0" y="-26.0" type="curve" smooth="yes"/>
      <point x="836.0" y="-26.0"/>
      <point x="1060.0" y="210.0"/>
      <point x="1060.0" y="500.0" type="curve" smooth="yes"/>
      <point x="1060.0" y="655.2"/>
      <point x="997.2" y="793.6"/>
      <point x="897.2" y="889.6" type="curve"/>
      <point x="949.2" y="979.6" type="line"/>
      <point x="780.0" y="1077.2" type="line"/>
      <point x="731.2" y="995.2" type="line"/>
      <point x="679.6" y="1016.4"/>
      <point x="620.4" y="1028.0"/>
      <point x="560.0" y="1028.0" type="curve" smooth="yes"/>
      <point x="284.0" y="1028.0"/>
      <point x="60.0" y="792.0"/>
      <point x="60.0" y="500.0" type="curve" smooth="yes"/>
      <point x="60.0" y="347.6"/>
      <point x="123.6" y="209.2"/>
      <point x="223.6" y="113.2" type="curve"/>
      <point x="171.6" y="23.2" type="line"/>
    </contour>
    <contour>
      <point x="342.0" y="315.6" type="line"/>
      <point x="305.2" y="360.4"/>
      <point x="282.0" y="419.2"/>
      <point x="282.0" y="486.4" type="curve" smooth="yes"/>
      <point x="282.0" y="685.6"/>
      <point x="449.6" y="841.6"/>
      <point x="623.2" y="803.6" type="curve"/>
    </contour>
    <contour>
      <point x="497.2" y="199.2" type="curve"/>
      <point x="778.4" y="687.2" type="line"/>
      <point x="814.0" y="641.6"/>
      <point x="838.0" y="581.2"/>
      <point x="838.0" y="513.6" type="curve" smooth="yes"/>
      <point x="838.0" y="316.4"/>
      <point x="676.4" y="160.0"/>
    </contour>
  </outline>
</glyph>
<glyph name="thorn" format="2">
  <advance width="1257.0"/>
  <unicode hex="00FE"/>
  <outline>
    <contour>
      <point x="120.0" y="-500.0" type="line"/>
      <point x="360.0" y="-500.0" type="line"/>
      <point x="360.0" y="127.2" type="line"/>
      <point x="424.4" y="35.6"/>
      <point x="521.6" y="-28.0"/>
      <point x="651.2" y="-28.0" type="curve" smooth="yes"/>
      <point x="942.4" y="-28.0"/>
      <point x="1177.2" y="208.0"/>
      <point x="1177.2" y="500.0" type="curve" smooth="yes"/>
      <point x="1177.2" y="790.0"/>
      <point x="942.4" y="1026.0"/>
      <point x="651.2" y="1026.0" type="curve" smooth="yes"/>
      <point x="521.6" y="1026.0"/>
      <point x="424.4" y="962.4"/>
      <point x="360.0" y="871.2" type="curve"/>
      <point x="360.0" y="1400.0" type="line"/>
      <point x="120.0" y="1400.0" type="line"/>
    </contour>
    <contour>
      <point x="648.0" y="204.39999999999998" type="curve" smooth="yes"/>
      <point x="492.0" y="204.39999999999998"/>
      <point x="380.4" y="337.2"/>
      <point x="380.4" y="500.0" type="curve" smooth="yes"/>
      <point x="380.4" y="662.4"/>
      <point x="493.2" y="795.2"/>
      <point x="648.0" y="795.2" type="curve" smooth="yes"/>
      <point x="805.6" y="795.2"/>
      <point x="932.4" y="661.6"/>
      <point x="932.4" y="500.0" type="curve" smooth="yes"/>
      <point x="932.4" y="335.2"/>
      <point x="803.6" y="204.39999999999998"/>
    </contour>
  </outline>
</glyph>
<glyph name="idotless" format="2">
  <advance width="480.4"/>
  <unicode hex="0131"/>
  <outline>
    <contour>
      <point x="120.0" y="1000.0" type="line"/>
      <point x="120.0" y="0.0" type="line"/>
      <point x="360.0" y="0.0" type="line"/>
      <point x="360.0" y="1000.0" type="line"/>
    </contour>
  </outline>
</glyph>
<glyph name="OE" format="2">
  <advance width="2123.5"/>
  <unicode hex="0152"/>
  <outline>
    <contour>
      <point x="770.0" y="-26.0" type="curve" smooth="yes"/>
      <point x="949.6" y="-26.0"/>
      <point x="1112.0" y="54.4"/>
      <point x="1223.2" y="179.2" type="curve"/>
      <point x="1223.2" y="0.0" type="line"/>
      <point x="2023.6" y="0.0" type="line"/>
      <point x="2023.6" y="240.0" type="line"/>
      <point x="1463.2" y="240.0" type="line"/>
      <point x="1463.2" y="580.0" type="line"/>
      <point x="1927.6" y="580.0" type="line"/>
      <point x="1927.6" y="820.0" type="line"/>
      <point x="1463.2" y="820.0" type="line"/>
      <point x="1463.2" y="1160.0" type="line"/>
      <point x="2023.6" y="1160.0" type="line"/>
      <point x="2023.6" y="1400.0" type="line"/>
      <point x="1223.2" y="1400.0" type="line"/>
      <point x="1223.2" y="1221.2" type="line"/>
      <point x="1112.0" y="1345.6"/>
      <point x="949.6" y="1426.0"/>
      <point x="770.0" y="1426.0" type="curve" smooth="yes"/>
      <point x="390.0" y="1426.0"/>
      <point x="80.0" y="1100.0"/>
      <point x="80.0" y="700.0" type="curve" smooth="yes"/>
      <point x="80.0" y="300.0"/>
      <point x="390.0" y="-26.0"/>
    </contour>
    <contour>
      <point x="770.0" y="214.0" type="curve" smooth="yes"/>
      <point x="522.4" y="214.0"/>
      <point x="320.0" y="433.2"/>
      <point x="320.0" y="700.0" type="curve" smooth="yes"/>
      <point x="320.0" y="965.6"/>
      <point x="521.6" y="1186.0"/>
      <point x="770.0" y="1186.0" type="curve" smooth="yes"/>
      <point x="1017.6" y="1186.0"/>
      <point x="1220.0" y="966.4"/>
      <point x="1220.0" y="700.0" type="curve" smooth="yes"/>
      <point x="1220.0" y="434.4"/>
      <point x="1018.4" y="214.0"/>
    </contour>
  </outline>
</glyph>
<glyph name="oe" format="2">
  <advance width="1879.0"/>
  <unicode hex="0153"/>
  <outline>
    <contour>
      <point x="560.0" y="-26.0" type="curve" smooth="yes"/>
      <point x="716.0" y="-26.0"/>
      <point x="855.2" y="53.6"/>
      <point x="940.0" y="173.2" type="curve"/>
      <point x="1025.2" y="53.6"/>
      <point x="1164.0" y="-26.0"/>
      <point x="1320.0" y="-26.0" type="curve" smooth="yes"/>
      <point x="1520.0" y="-26.0"/>
      <point x="1692.0" y="98.0"/>
      <point x="1772.0" y="276.0" type="curve"/>
      <point x="1527.6" y="333.6" type="line"/>
      <point x="1480.4" y="259.2"/>
      <point x="1406.0" y="214.0"/>
      <point x="1320.0" y="214.0" type="curve" smooth="yes"/>
      <point x="1192.0" y="215.6"/>
      <point x="1104.0" y="302.4"/>
      <point x="1078.0" y="419.2" type="curve"/>
      <point x="1812.0" y="419.2" type="line"/>
      <point x="1855.6" y="742.4"/>
      <point x="1630.0" y="1028.0"/>
      <point x="1320.0" y="1028.0" type="curve" smooth="yes"/>
      <point x="1164.0" y="1028.0"/>
      <point x="1025.2" y="948.4"/>
      <point x="940.0" y="828.4" type="curve"/>
      <point x="855.2" y="948.4"/>
      <point x="716.0" y="1028.0"/>
      <point x="560.0" y="1028.0" type="curve" smooth="yes"/>
      <point x="284.0" y="1028.0"/>
      <point x="60.0" y="792.0"/>
      <point x="60.0" y="500.0" type="curve" smooth="yes"/>
      <point x="60.0" y="210.0"/>
      <point x="284.0" y="-26.0"/>
    </contour>
    <contour>
      <point x="560.0" y="214.0" type="curve" smooth="yes"/>
      <point x="419.2" y="214.0"/>
      <point x="300.0" y="339.2"/>
      <point x="300.0" y="500.0" type="curve" smooth="yes"/>
      <point x="300.0" y="654.4"/>
      <point x="413.6" y="788.0"/>
      <point x="560.0" y="788.0" type="curve" smooth="yes"/>
      <point x="703.2" y="788.0"/>
      <point x="820.0" y="657.6"/>
      <point x="820.0" y="500.0" type="curve" smooth="yes"/>
      <point x="820.0" y="346.0"/>
      <point x="707.6" y="214.0"/>
    </contour>
    <contour>
      <point x="1069.2" y="599.2" type="line"/>
      <point x="1094.0" y="724.0"/>
      <point x="1196.0" y="818.0"/>
      <point x="1320.0" y="818.0" type="curve" smooth="yes"/>
      <point x="1443.6" y="818.0"/>
      <point x="1546.0" y="722.0"/>
      <point x="1569.2" y="599.2" type="curve"/>
    </contour>
  </outline>
</glyph>
<glyph name="caron" format="2">
  <advance width="677.0"/>
  <unicode hex="02C7"/>
  <outline>
    <contour>
      <point x="220.4" y="1166.0" type="line"/>
      <point x="457.2" y="1166.0" type="line"/>
      <point x="557.2" y="1400.0" type="line"/>
      <point x="400.4" y="1400.0" type="line"/>
      <point x="339.6" y="1251.6" type="line"/>
      <point x="276.4" y="1400.0" type="line"/>
      <point x="120.0" y="1400.0" type="line"/>
    </contour>
  </outline>
</glyph>
<glyph name="ogonek" format="2">
  <advance width="1166.0"/>
  <unicode hex="02DB"/>
  <outline>
    <contour>
      <point x="637.6" y="-422.4" type="curve" smooth="yes"/>
      <point x="738.0" y="-422.4" type="line"/>
      <point x="738.0" y="-244.0" type="line"/>
      <point x="634.4" y="-244.0" type="line" smooth="yes"/>
      <point x="535.6" y="-244.0"/>
      <point x="440.4" y="-149.2"/>
      <point x="440.4" y="-51.599999999999994" type="curve" smooth="yes"/>
      <point x="440.4" y="62.0" type="line"/>
      <point x="262.0" y="62.0" type="line"/>
      <point x="262.0" y="-48.4" type="line" smooth="yes"/>
      <point x="262.0" y="-255.2"/>
      <point x="429.6" y="-422.4"/>
    </contour>
  </outline>
</glyph>
<glyph name="circumflexcomb" format="2">
  <unicode hex="0302"/>
  <outline>
    <contour>
      <point x="500.4" y="1400.0" type="line"/>
      <point x="400.0" y="1166.0" type="line"/>
      <point x="556.4" y="1166.0" type="line"/>
      <point x="619.6" y="1314.4" type="line"/>
      <point x="680.4" y="1166.0" type="line"/>
      <point x="837.2" y="1166.0" type="line"/>
      <point x="737.2" y="1400.0" type="line"/>
    </contour>
  </outline>
</glyph>
<glyph name="tildecomb" format="2">
  <unicode hex="0303"/>
  <outline>
    <contour>
      <point x="796.4" y="1224.0" type="curve" smooth="yes"/>
      <point x="936.4" y="1224.0"/>
      <point x="1018.4" y="1347.6"/>
      <point x="965.2" y="1510.0" type="curve"/>
      <point x="822.0" y="1463.6" type="line"/>
      <point x="835.6" y="1427.2"/>
      <point x="842.4" y="1377.2"/>
      <point x="802.0" y="1377.2" type="curve" smooth="yes"/>
      <point x="759.6" y="1377.2"/>
      <point x="582.0" y="1520.0"/>
      <point x="484.4" y="1520.0" type="curve" smooth="yes"/>
      <point x="337.6" y="1520.0"/>
      <point x="264.4" y="1393.2"/>
      <point x="318.0" y="1239.2" type="curve"/>
      <point x="458.4" y="1277.6" type="line"/>
      <point x="446.0" y="1321.6"/>
      <point x="451.6" y="1347.6"/>
      <point x="469.6" y="1365.6" type="curve" smooth="yes"/>
      <point x="504.4" y="1400.0"/>
      <point x="695.6" y="1224.0"/>
    </contour>
  </outline>
</glyph>
<glyph name="dotaccentcomb" format="2">
  <unicode hex="0307"/>
  <outline>
    <contour>
      <point x="525.6" y="1150.4" type="curve" smooth="yes"/>
      <point x="594.4" y="1150.4"/>
      <point x="649.2" y="1203.2"/>
      <point x="649.2" y="1274.0" type="curve" smooth="yes"/>
      <point x="649.2" y="1343.6"/>
      <point x="594.4" y="1397.6"/>
      <point x="525.6" y="1397.6" type="curve" smooth="yes"/>
      <point x="454.4" y="1397.6"/>
      <point x="400.0" y="1343.6"/>
      <point x="400.0" y="1274.0" type="curve" smooth="yes"/>
      <point x="400.0" y="1203.2"/>
      <point x="454.4" y="1150.4"/>
    </contour>
  </outline>
</glyph>
<glyph name="dieresiscomb" format="2">
  <unicode hex="0308"/>
  <outline>
    <contour>
      <point x="526.0" y="1150.4" type="curve" smooth="yes"/>
      <point x="595.2" y="1150.4"/>
      <point x="650.0" y="1203.2"/>
      <point x="650.0" y="1274.0" type="curve" smooth="yes"/>
      <point x="650.0" y="1343.2"/>
      <point x="595.2" y="1398.0"/>
      <point x="526.0" y="1398.0" type="curve" smooth="yes"/>
      <point x="455.2" y="1398.0"/>
      <point x="400.0" y="1343.2"/>
      <point x="400.0" y="1274.0" type="curve" smooth="yes"/>
      <point x="400.0" y="1203.2"/>
      <point x="455.2" y="1150.4"/>
    </contour>
    <contour>
      <point x="919.2" y="1150.4" type="curve" smooth="yes"/>
      <point x="988.0" y="1150.4"/>
      <point x="1043.2" y="1203.2"/>
      <point x="1043.2" y="1274.0" type="curve" smooth="yes"/>
      <point x="1043.2" y="1343.2"/>
      <point x="988.0" y="1398.0"/>
      <point x="919.2" y="1398.0" type="curve" smooth="yes"/>
      <point x="848.0" y="1398.0"/>
      <point x="793.2" y="1343.2"/>
      <point x="793.2" y="1274.0" type="curve" smooth="yes"/>
      <point x="793.2" y="1203.2"/>
      <point x="848.0" y="1150.4"/>
    </contour>
  </outline>
</glyph>
<glyph name="ringcomb" format="2">
  <unicode hex="030A"/>
  <outline>
    <contour>
      <point x="584.4" y="1097.2" type="curve" smooth="yes"/>
      <point x="686.0" y="1097.2"/>
      <point x="769.2" y="1180.0"/>
      <point x="769.2" y="1283.6" type="curve" smooth="yes"/>
      <point x="769.2" y="1383.2"/>
      <point x="686.0" y="1466.4"/>
      <point x="584.4" y="1466.4" type="curve" smooth="yes"/>
      <point x="483.2" y="1466.4"/>
      <point x="400.0" y="1383.2"/>
      <point x="400.0" y="1283.6" type="curve" smooth="yes"/>
      <point x="400.0" y="1182.0"/>
      <point x="483.2" y="1097.2"/>
    </contour>
    <contour>
      <point x="584.4" y="1191.6" type="curve" smooth="yes"/>
      <point x="534.4" y="1191.6"/>
      <point x="494.4" y="1231.6"/>
      <point x="494.4" y="1283.6" type="curve" smooth="yes"/>
      <point x="494.4" y="1331.6"/>
      <point x="534.4" y="1371.6"/>
      <point x="584.4" y="1371.6" type="curve" smooth="yes"/>
      <point x="634.4" y="1371.6"/>
      <point x="674.4" y="1331.6"/>
      <point x="674.4" y="1283.6" type="curve" smooth="yes"/>
      <point x="674.4" y="1231.6"/>
      <point x="634.4" y="1191.6"/>
    </contour>
  </outline>
</glyph>
<glyph name="cedillacomb" format="2">
  <unicode hex="0327"/>
  <outline>
    <contour>
      <point x="400.0" y="-306.0" type="line"/>
      <point x="500.4" y="-306.0" type="line" smooth="yes"/>
      <point x="708.4" y="-306.0"/>
      <point x="876.0" y="-138.4"/>
      <point x="876.0" y="68.0" type="curve" smooth="yes"/>
      <point x="876.0" y="168.4" type="line"/>
      <point x="697.6" y="168.4" type="line"/>
      <point x="697.6" y="65.2" type="line" smooth="yes"/>
      <point x="697.6" y="-32.4"/>
      <point x="602.4" y="-127.6"/>
      <point x="503.6" y="-127.6" type="curve" smooth="yes"/>
      <point x="400.0" y="-127.6" type="line"/>
    </contour>
  </outline>
</glyph>
<glyph name="mu" format="2">
  <advance width="1131.5"/>
  <unicode hex="03BC"/>
  <outline>
    <contour>
      <point x="80.0" y="-432.0" type="line"/>
      <point x="320.0" y="-432.0" type="line"/>
      <point x="320.0" y="52.0" type="line"/>
      <point x="375.6" y="4.0"/>
      <point x="448.4" y="-27.6"/>
      <point x="533.2" y="-27.6" type="curve" smooth="yes"/>
      <point x="651.2" y="-27.6"/>
      <point x="744.4" y="31.6"/>
      <point x="811.6" y="120.4" type="curve"/>
      <point x="811.6" y="0.0" type="line"/>
      <point x="1051.6" y="0.0" type="line"/>
      <point x="1051.6" y="1000.0" type="line"/>
      <point x="811.6" y="1000.0" type="line"/>
      <point x="811.6" y="488.0" type="line" smooth="yes"/>
      <point x="811.6" y="331.6"/>
      <point x="720.0" y="205.2"/>
      <point x="573.6" y="205.2" type="curve" smooth="yes"/>
      <point x="425.2" y="205.2"/>
      <point x="320.0" y="331.6"/>
      <point x="320.0" y="488.0" type="curve" smooth="yes"/>
      <point x="320.0" y="1000.0" type="line"/>
      <point x="80.0" y="1000.0" type="line"/>
    </contour>
  </outline>
</glyph>
<glyph name="Germandbls" format="2">
  <advance width="1202.0"/>
  <unicode hex="1E9E"/>
  <outline>
    <contour>
      <point x="120.0" y="0.0" type="line"/>
      <point x="360.0" y="0.0" type="line"/>
      <point x="360.0" y="961.2" type="line" smooth="yes"/>
      <point x="360.0" y="1089.6"/>
      <point x="464.0" y="1192.4"/>
      <point x="576.0" y="1192.4" type="curve" smooth="yes"/>
      <point x="678.0" y="1192.4"/>
      <point x="769.6" y="1181.6"/>
      <point x="770.0" y="1093.6" type="curve" smooth="yes"/>
      <point x="770.4" y="1038.0"/>
      <point x="570.0" y="832.0"/>
      <point x="572.0" y="701.6" type="curve" smooth="yes"/>
      <point x="573.2" y="611.2" type="line"/>
      <point x="651.2" y="611.2" type="line" smooth="yes"/>
      <point x="770.4" y="611.2"/>
      <point x="927.6" y="559.2"/>
      <point x="927.6" y="409.2" type="curve" smooth="yes"/>
      <point x="927.6" y="258.0"/>
      <point x="771.2" y="205.6"/>
      <point x="651.6" y="205.6" type="curve" smooth="yes"/>
      <point x="566.4" y="205.6" type="line"/>
      <point x="616.4" y="0.0" type="line"/>
      <point x="675.6" y="0.0" type="line" smooth="yes"/>
      <point x="899.2" y="0.0"/>
      <point x="1142.0" y="143.2"/>
      <point x="1142.0" y="407.2" type="curve" smooth="yes"/>
      <point x="1142.0" y="586.4"/>
      <point x="958.0" y="762.4"/>
      <point x="774.4" y="730.4" type="curve"/>
      <point x="930.4" y="927.6"/>
      <point x="1012.4" y="996.4"/>
      <point x="1012.4" y="1089.2" type="curve" smooth="yes"/>
      <point x="1012.4" y="1266.0"/>
      <point x="822.4" y="1399.6"/>
      <point x="619.2" y="1399.6" type="curve" smooth="yes"/>
      <point x="344.0" y="1399.6"/>
      <point x="120.0" y="1175.6"/>
      <point x="120.0" y="900.4" type="curve" smooth="yes"/>
    </contour>
  </outline>
</glyph>
<glyph name="quoteright" format="2">
  <advance width="402.0"/>
  <unicode hex="2019"/>
  <unicode hex="2032"/>
  <outline>
    <contour>
      <point x="40.0" y="878.0" type="line"/>
      <point x="200.0" y="878.0" type="line"/>
      <point x="342.0" y="1400.0" type="line"/>
      <point x="102.0" y="1400.0" type="line"/>
    </contour>
  </outline>
</glyph>
<glyph name="dagger" format="2">
  <advance width="856.0"/>
  <unicode hex="2020"/>
  <outline>
    <contour>
      <point x="80.0" y="1035.2" type="line"/>
      <point x="308.0" y="1035.2" type="line"/>
      <point x="308.0" y="570.0" type="line"/>
      <point x="548.0" y="570.0" type="line"/>
      <point x="548.0" y="1035.2" type="line"/>
      <point x="776.0" y="1035.2" type="line"/>
      <point x="776.0" y="1275.2" type="line"/>
      <point x="548.0" y="1275.2" type="line"/>
      <point x="548.0" y="1500.0" type="line"/>
      <point x="308.0" y="1500.0" type="line"/>
      <point x="308.0" y="1275.2" type="line"/>
      <point x="80.0" y="1275.2" type="line"/>
    </contour>
  </outline>
</glyph>
<glyph name="daggerdbl" format="2">
  <advance width="856.0"/>
  <unicode hex="2021"/>
  <outline>
    <contour>
      <point x="80.0" y="732.0" type="line"/>
      <point x="308.0" y="732.0" type="line"/>
      <point x="308.0" y="560.0" type="line"/>
      <point x="548.0" y="560.0" type="line"/>
      <point x="548.0" y="732.0" type="line"/>
      <point x="776.0" y="732.0" type="line"/>
      <point x="776.0" y="970.0" type="line"/>
      <point x="548.0" y="970.0" type="line"/>
      <point x="548.0" y="1110.0" type="line"/>
      <point x="776.0" y="1110.0" type="line"/>
      <point x="776.0" y="1350.0" type="line"/>
      <point x="548.0" y="1350.0" type="line"/>
      <point x="548.0" y="1500.0" type="line"/>
      <point x="308.0" y="1500.0" type="line"/>
      <point x="308.0" y="1350.0" type="line"/>
      <point x="80.0" y="1350.0" type="line"/>
      <point x="80.0" y="1110.0" type="line"/>
      <point x="308.0" y="1110.0" type="line"/>
      <point x="308.0" y="970.0" type="line"/>
      <point x="80.0" y="970.0" type="line"/>
    </contour>
  </outline>
</glyph>
<glyph name="bullet" format="2">
  <advance width="490.0"/>
  <unicode hex="2022"/>
  <outline>
    <contour>
      <point x="244.4" y="435.2" type="curve" smooth="yes"/>
      <point x="336.0" y="435.2"/>
      <point x="410.0" y="507.6"/>
      <point x="410.0" y="600.4" type="curve" smooth="yes"/>
      <point x="410.0" y="691.2"/>
      <point x="336.0" y="765.2"/>
      <point x="244.4" y="765.2" type="curve" smooth="yes"/>
      <point x="152.4" y="765.2"/>
      <point x="80.0" y="691.2"/>
      <point x="80.0" y="600.4" type="curve" smooth="yes"/>
      <point x="80.0" y="507.6"/>
      <point x="152.4" y="435.2"/>
    </contour>
  </outline>
</glyph>
<glyph name="perthousand" format="2">
  <advance width="2142.0"/>
  <unicode hex="2030"/>
  <outline>
    <contour>
      <point x="207.2" y="0.0" type="line"/>
      <point x="484.0" y="0.0" type="line"/>
      <point x="1292.0" y="1400.0" type="line"/>
      <point x="1015.2" y="1400.0" type="line"/>
    </contour>
    <contour>
      <point x="378.4" y="795.2" type="curve"/>
      <point x="537.2" y="795.2"/>
      <point x="675.6" y="923.2"/>
      <point x="675.6" y="1092.0" type="curve"/>
      <point x="675.6" y="1256.4"/>
      <point x="541.6" y="1389.6"/>
      <point x="378.4" y="1389.6" type="curve"/>
      <point x="218.4" y="1389.6"/>
      <point x="80.0" y="1262.4"/>
      <point x="80.0" y="1092.0" type="curve"/>
      <point x="80.0" y="926.0"/>
      <point x="215.6" y="795.2"/>
    </contour>
    <contour>
      <point x="378.4" y="960.0" type="curve"/>
      <point x="304.4" y="960.0"/>
      <point x="245.2" y="1018.4"/>
      <point x="245.2" y="1092.0" type="curve"/>
      <point x="245.2" y="1166.0"/>
      <point x="304.4" y="1224.4"/>
      <point x="378.4" y="1224.4" type="curve"/>
      <point x="451.2" y="1224.4"/>
      <point x="510.4" y="1166.0"/>
      <point x="510.4" y="1092.0" type="curve"/>
      <point x="510.4" y="1018.4"/>
      <point x="451.2" y="960.0"/>
    </contour>
    <contour>
      <point x="1106.0" y="9.200000000000003" type="curve"/>
      <point x="1270.4" y="9.200000000000003"/>
      <point x="1404.4" y="143.6"/>
      <point x="1404.4" y="306.4" type="curve"/>
      <point x="1404.4" y="465.2"/>
      <point x="1276.4" y="605.2"/>
      <point x="1106.0" y="605.2" type="curve"/>
      <point x="947.6" y="605.2"/>
      <point x="808.4" y="475.6"/>
      <point x="808.4" y="306.4" type="curve"/>
      <point x="808.4" y="149.6"/>
      <point x="940.0" y="9.200000000000003"/>
    </contour>
    <contour>
      <point x="1106.0" y="174.0" type="curve"/>
      <point x="1033.6" y="174.0"/>
      <point x="973.6" y="234.0"/>
      <point x="973.6" y="306.4" type="curve"/>
      <point x="973.6" y="380.0"/>
      <point x="1033.6" y="440.0"/>
      <point x="1106.0" y="440.0" type="curve"/>
      <point x="1179.6" y="440.0"/>
      <point x="1239.6" y="380.0"/>
      <point x="1239.6" y="306.4" type="curve"/>
      <point x="1239.6" y="234.0"/>
      <point x="1179.6" y="174.0"/>
    </contour>
    <contour>
      <point x="1763.6" y="9.200000000000003" type="curve"/>
      <point x="1928.0" y="9.200000000000003"/>
      <point x="2062.0" y="143.6"/>
      <point x="2062.0" y="306.4" type="curve"/>
      <point x="2062.0" y="465.2"/>
      <point x="1934.0" y="605.2"/>
      <point x="1763.6" y="605.2" type="curve"/>
      <point x="1605.2" y="605.2"/>
      <point x="1466.0" y="475.6"/>
      <point x="1466.0" y="306.4" type="curve"/>
      <point x="1466.0" y="149.6"/>
      <point x="1597.6" y="9.200000000000003"/>
    </contour>
    <contour>
      <point x="1763.6" y="174.0" type="curve"/>
      <point x="1691.2" y="174.0"/>
      <point x="1631.2" y="234.0"/>
      <point x="1631.2" y="306.4" type="curve"/>
      <point x="1631.2" y="380.0"/>
      <point x="1691.2" y="440.0"/>
      <point x="1763.6" y="440.0" type="curve"/>
      <point x="1837.2" y="440.0"/>
      <point x="1897.2" y="380.0"/>
      <point x="1897.2" y="306.4" type="curve"/>
      <point x="1897.2" y="234.0"/>
      <point x="1837.2" y="174.0"/>
    </contour>
  </outline>
</glyph>
<glyph name="guilsinglleft" format="2">
  <advance width="765.0"/>
  <unicode hex="2039"/>
  <outline>
    <contour>
      <point x="420.0" y="261.0" type="line"/>
      <point x="665.2" y="261.0" type="line"/>
      <point x="366.4" y="601.0" type="line"/>
      <point x="665.2" y="939.0" type="line"/>
      <point x="420.0" y="939.0" type="line"/>
      <point x="120.0" y="601.0" type="line"/>
    </contour>
  </outline>
</glyph>
<glyph name="guilsinglright" format="2">
  <advance width="765.0"/>
  <unicode hex="203A"/>
  <outline>
    <contour>
      <point x="100.0" y="261.0" type="line"/>
      <point x="345.2" y="261.0" type="line"/>
      <point x="645.2" y="601.0" type="line"/>
      <point x="345.2" y="939.0" type="line"/>
      <point x="100.0" y="939.0" type="line"/>
      <point x="398.4" y="601.0" type="line"/>
    </contour>
  </outline>
</glyph>
<glyph name="fraction" format="2">
  <advance width="1007.0"/>
  <unicode hex="2044"/>
  <unicode hex="2215"/>
  <outline>
    <contour>
      <point x="0.0" y="0.0" type="line"/>
      <point x="199.2" y="0.0" type="line"/>
      <point x="1007.2" y="1400.0" type="line"/>
      <point x="808.0" y="1400.0" type="line"/>
    </contour>
  </outline>
</glyph>
<glyph name="zerosuperior" format="2">
  <advance width="648.0"/>
  <unicode hex="2070"/>
  <outline>
    <contour>
      <point x="324.0" y="798.0" type="curve"/>
      <point x="463.0" y="798.0"/>
      <point x="576.0" y="941.6"/>
      <point x="576.0" y="1133.6" type="curve"/>
      <point x="576.0" y="1324.0"/>
      <point x="463.0" y="1468.0"/>
      <point x="324.0" y="1468.0" type="curve"/>
      <point x="185.0" y="1468.0"/>
      <point x="72.0" y="1324.0"/>
      <point x="72.0" y="1133.6" type="curve"/>
      <point x="72.0" y="941.6"/>
      <point x="185.0" y="798.0"/>
    </contour>
    <contour>
      <point x="324.0" y="933.2" type="curve"/>
      <point x="256.2" y="933.2"/>
      <point x="216.0" y="1040.6"/>
      <point x="216.0" y="1133.6" type="curve"/>
      <point x="216.0" y="1218.4"/>
      <point x="251.6" y="1333.2"/>
      <point x="324.0" y="1333.2" type="curve"/>
      <point x="390.2" y="1333.2"/>
      <point x="432.0" y="1224.2"/>
      <point x="432.0" y="1133.6" type="curve"/>
      <point x="432.0" y="1053.6"/>
      <point x="392.6" y="933.2"/>
    </contour>
  </outline>
</glyph>
<glyph name="foursuperior" format="2">
  <advance width="690.5"/>
  <unicode hex="2074"/>
  <outline>
    <contour>
      <point x="343.0" y="818.0" type="line"/>
      <point x="487.0" y="818.0" type="line"/>
      <point x="487.0" y="917.2" type="line"/>
      <point x="546.4" y="917.2" type="line"/>
      <point x="546.4" y="1061.2" type="line"/>
      <point x="487.0" y="1061.2" type="line"/>
      <point x="487.0" y="1449.0" type="line"/>
      <point x="323.6" y="1449.0" type="line"/>
      <point x="96.0" y="1090.4" type="line"/>
      <point x="96.0" y="917.2" type="line"/>
      <point x="343.0" y="917.2" type="line"/>
    </contour>
    <contour>
      <point x="237.4" y="1061.2" type="line"/>
      <point x="355.6" y="1248.8" type="line"/>
      <point x="355.6" y="1061.2" type="line"/>
    </contour>
  </outline>
</glyph>
<glyph name="fivesuperior" format="2">
  <advance width="697.0"/>
  <unicode hex="2075"/>
  <outline>
    <contour>
      <point x="317.6" y="798.0" type="curve" smooth="yes"/>
      <point x="447.2" y="798.0"/>
      <point x="553.2" y="890.4"/>
      <point x="553.2" y="1019.6" type="curve" smooth="yes"/>
      <point x="553.2" y="1163.6"/>
      <point x="444.2" y="1258.0"/>
      <point x="278.8" y="1251.2" type="curve"/>
      <point x="281.6" y="1323.0" type="line"/>
      <point x="493.6" y="1323.0" type="line"/>
      <point x="493.6" y="1449.0" type="line"/>
      <point x="150.6" y="1449.0" type="line"/>
      <point x="118.2" y="1094.4" type="line"/>
      <point x="187.2" y="1107.2"/>
      <point x="274.4" y="1112.0"/>
      <point x="317.6" y="1109.2" type="curve" smooth="yes"/>
      <point x="368.0" y="1105.4"/>
      <point x="409.2" y="1068.8"/>
      <point x="409.2" y="1019.6" type="curve" smooth="yes"/>
      <point x="409.2" y="971.2"/>
      <point x="368.0" y="933.2"/>
      <point x="317.6" y="933.2" type="curve" smooth="yes"/>
      <point x="268.2" y="933.2"/>
      <point x="228.0" y="971.2"/>
      <point x="228.0" y="1019.6" type="curve"/>
      <point x="84.0" y="1019.6" type="line"/>
      <point x="84.0" y="890.4"/>
      <point x="189.6" y="798.0"/>
    </contour>
  </outline>
</glyph>
<glyph name="sixsuperior" format="2">
  <advance width="706.0"/>
  <unicode hex="2076"/>
  <outline>
    <contour>
      <point x="329.0" y="798.0" type="curve" smooth="yes"/>
      <point x="454.8" y="798.0"/>
      <point x="562.0" y="885.8"/>
      <point x="562.0" y="1017.4" type="curve" smooth="yes"/>
      <point x="562.0" y="1131.6"/>
      <point x="482.8" y="1225.2"/>
      <point x="356.4" y="1245.0" type="curve"/>
      <point x="474.0" y="1446.0" type="line"/>
      <point x="306.6" y="1446.0" type="line"/>
      <point x="118.2" y="1121.2"/>
      <point x="96.0" y="1092.6"/>
      <point x="96.0" y="1019.0" type="curve" smooth="yes"/>
      <point x="96.0" y="889.4"/>
      <point x="197.4" y="798.0"/>
    </contour>
    <contour>
      <point x="329.0" y="933.2" type="curve" smooth="yes"/>
      <point x="288.6" y="933.2"/>
      <point x="247.6" y="955.6"/>
      <point x="241.6" y="1005.6" type="curve" smooth="yes"/>
      <point x="234.6" y="1054.0"/>
      <point x="268.4" y="1106.4"/>
      <point x="329.0" y="1106.4" type="curve" smooth="yes"/>
      <point x="372.0" y="1106.4"/>
      <point x="410.4" y="1076.0"/>
      <point x="415.8" y="1030.4" type="curve" smooth="yes"/>
      <point x="423.4" y="977.4"/>
      <point x="382.0" y="933.2"/>
    </contour>
  </outline>
</glyph>
<glyph name="sevensuperior" format="2">
  <advance width="667.5"/>
  <unicode hex="2077"/>
  <outline>
    <contour>
      <point x="151.2" y="818.0" type="line"/>
      <point x="316.0" y="818.0" type="line"/>
      <point x="595.6" y="1306.6" type="line"/>
      <point x="595.6" y="1446.8" type="line"/>
      <point x="120.0" y="1446.8" type="line"/>
      <point x="120.0" y="1302.8" type="line"/>
      <point x="429.2" y="1302.8" type="line"/>
    </contour>
  </outline>
</glyph>
<glyph name="eightsuperior" format="2">
  <advance width="625.25"/>
  <unicode hex="2078"/>
  <outline>
    <contour>
      <point x="311.4" y="798.0" type="curve" smooth="yes"/>
      <point x="433.2" y="798.0"/>
      <point x="529.2" y="880.4"/>
      <point x="529.2" y="1000.2" type="curve" smooth="yes"/>
      <point x="529.2" y="1058.8"/>
      <point x="506.2" y="1111.2"/>
      <point x="469.6" y="1149.4" type="curve"/>
      <point x="498.4" y="1182.8"/>
      <point x="516.0" y="1229.2"/>
      <point x="516.0" y="1275.4" type="curve" smooth="yes"/>
      <point x="516.0" y="1389.2"/>
      <point x="423.6" y="1469.6"/>
      <point x="311.4" y="1469.6" type="curve" smooth="yes"/>
      <point x="200.0" y="1469.6"/>
      <point x="109.2" y="1389.2"/>
      <point x="109.2" y="1275.4" type="curve" smooth="yes"/>
      <point x="109.2" y="1229.2"/>
      <point x="127.2" y="1182.8"/>
      <point x="155.6" y="1149.4" type="curve"/>
      <point x="119.4" y="1111.2"/>
      <point x="96.0" y="1058.8"/>
      <point x="96.0" y="1000.2" type="curve" smooth="yes"/>
      <point x="96.0" y="880.4"/>
      <point x="192.4" y="798.0"/>
    </contour>
    <contour>
      <point x="311.4" y="931.6" type="curve" smooth="yes"/>
      <point x="272.4" y="931.6"/>
      <point x="240.0" y="961.2"/>
      <point x="240.0" y="1000.2" type="curve" smooth="yes"/>
      <point x="240.0" y="1040.8"/>
      <point x="272.4" y="1073.2"/>
      <point x="311.4" y="1073.2" type="curve" smooth="yes"/>
      <point x="352.8" y="1073.2"/>
      <point x="385.2" y="1040.8"/>
      <point x="385.2" y="1000.2" type="curve" smooth="yes"/>
      <point x="385.2" y="961.2"/>
      <point x="352.8" y="931.6"/>
    </contour>
    <contour>
      <point x="311.4" y="1217.2" type="curve" smooth="yes"/>
      <point x="280.2" y="1217.2"/>
      <point x="253.2" y="1244.2"/>
      <point x="253.2" y="1275.4" type="curve" smooth="yes"/>
      <point x="253.2" y="1309.4"/>
      <point x="280.2" y="1333.2"/>
      <point x="311.4" y="1333.2" type="curve" smooth="yes"/>
      <point x="345.4" y="1333.2"/>
      <point x="372.0" y="1309.4"/>
      <point x="372.0" y="1275.4" type="curve" smooth="yes"/>
      <point x="372.0" y="1244.2"/>
      <point x="345.4" y="1217.2"/>
    </contour>
  </outline>
</glyph>
<glyph name="ninesuperior" format="2">
  <advance width="658.25"/>
  <unicode hex="2079"/>
  <outline>
    <contour>
      <point x="158.4" y="818.0" type="line"/>
      <point x="324.4" y="818.0" type="line"/>
      <point x="505.2" y="1129.6" type="line"/>
      <point x="521.6" y="1158.8"/>
      <point x="529.6" y="1188.6"/>
      <point x="530.4" y="1218.2" type="curve" smooth="yes"/>
      <point x="553.2" y="1349.2"/>
      <point x="450.2" y="1468.0"/>
      <point x="305.4" y="1468.0" type="curve" smooth="yes"/>
      <point x="188.2" y="1468.0"/>
      <point x="90.8" y="1390.4"/>
      <point x="80.0" y="1275.8" type="curve" smooth="yes"/>
      <point x="54.4" y="1156.4"/>
      <point x="143.4" y="1028.8"/>
      <point x="275.4" y="1022.0" type="curve"/>
    </contour>
    <contour>
      <point x="305.4" y="1158.0" type="curve" smooth="yes"/>
      <point x="271.0" y="1158.0"/>
      <point x="222.8" y="1180.2"/>
      <point x="217.6" y="1235.4" type="curve" smooth="yes"/>
      <point x="211.6" y="1284.4"/>
      <point x="247.2" y="1333.2"/>
      <point x="305.4" y="1333.2" type="curve" smooth="yes"/>
      <point x="344.8" y="1333.2"/>
      <point x="387.6" y="1302.2"/>
      <point x="393.2" y="1259.6" type="curve" smooth="yes"/>
      <point x="399.2" y="1206.0"/>
      <point x="358.2" y="1158.0"/>
    </contour>
  </outline>
</glyph>
<glyph name="zeroinferior" format="2">
  <advance width="648.0"/>
  <unicode hex="2080"/>
  <outline>
    <contour>
      <point x="324.0" y="-31.0" type="curve"/>
      <point x="463.0" y="-31.0"/>
      <point x="576.0" y="121.0"/>
      <point x="576.0" y="313.0" type="curve"/>
      <point x="576.0" y="502.8"/>
      <point x="463.0" y="655.6"/>
      <point x="324.0" y="655.6" type="curve"/>
      <point x="185.0" y="655.6"/>
      <point x="72.0" y="502.8"/>
      <point x="72.0" y="313.0" type="curve"/>
      <point x="72.0" y="121.0"/>
      <point x="185.0" y="-31.0"/>
    </contour>
    <contour>
      <point x="324.0" y="113.0" type="curve"/>
      <point x="256.2" y="113.0"/>
      <point x="216.0" y="220.4"/>
      <point x="216.0" y="313.0" type="curve"/>
      <point x="216.0" y="397.2"/>
      <point x="251.6" y="511.6"/>
      <point x="324.0" y="511.6" type="curve"/>
      <point x="390.2" y="511.6"/>
      <point x="432.0" y="402.6"/>
      <point x="432.0" y="313.0" type="curve"/>
      <point x="432.0" y="232.4"/>
      <point x="392.6" y="113.0"/>
    </contour>
  </outline>
</glyph>
<glyph name="oneinferior" format="2">
  <advance width="449.75"/>
  <unicode hex="2081"/>
  <outline>
    <contour>
      <point x="161.6" y="0.0" type="line"/>
      <point x="305.6" y="0.0" type="line"/>
      <point x="305.6" y="631.0" type="line"/>
      <point x="116.4" y="631.0" type="line"/>
      <point x="96.0" y="487.0" type="line"/>
      <point x="161.6" y="487.0" type="line"/>
    </contour>
  </outline>
</glyph>
<glyph name="twoinferior" format="2">
  <advance width="712.75"/>
  <unicode hex="2082"/>
  <outline>
    <contour>
      <point x="96.0" y="0.0" type="line"/>
      <point x="559.8" y="0.0" type="line"/>
      <point x="559.8" y="144.0" type="line"/>
      <point x="356.6" y="144.0" type="line"/>
      <point x="452.8" y="222.6"/>
      <point x="568.6" y="317.2"/>
      <point x="568.6" y="425.2" type="curve"/>
      <point x="568.6" y="555.2"/>
      <point x="463.8" y="659.2"/>
      <point x="333.8" y="659.2" type="curve"/>
      <point x="202.4" y="659.2"/>
      <point x="96.0" y="555.2"/>
      <point x="96.0" y="425.2" type="curve"/>
      <point x="240.0" y="425.2" type="line"/>
      <point x="240.0" y="477.4"/>
      <point x="281.6" y="515.2"/>
      <point x="333.8" y="515.2" type="curve"/>
      <point x="384.4" y="515.2"/>
      <point x="424.6" y="477.4"/>
      <point x="424.6" y="425.2" type="curve"/>
      <point x="370.6" y="293.4"/>
      <point x="206.6" y="204.4"/>
      <point x="96.0" y="128.0" type="curve"/>
    </contour>
  </outline>
</glyph>
<glyph name="threeinferior" format="2">
  <advance width="576.0"/>
  <unicode hex="2083"/>
  <outline>
    <contour>
      <point x="289.0" y="-31.0" type="curve" smooth="yes"/>
      <point x="406.2" y="-31.0"/>
      <point x="504.0" y="64.0"/>
      <point x="504.0" y="183.2" type="curve" smooth="yes"/>
      <point x="504.0" y="241.2"/>
      <point x="483.4" y="290.2"/>
      <point x="441.4" y="331.2" type="curve"/>
      <point x="469.0" y="362.8"/>
      <point x="486.6" y="408.4"/>
      <point x="486.6" y="457.2" type="curve" smooth="yes"/>
      <point x="486.6" y="568.2"/>
      <point x="396.4" y="655.6"/>
      <point x="284.0" y="655.6" type="curve" smooth="yes"/>
      <point x="172.6" y="655.6"/>
      <point x="82.4" y="568.2"/>
      <point x="82.4" y="457.2" type="curve"/>
      <point x="226.4" y="457.2" type="line"/>
      <point x="226.4" y="487.8"/>
      <point x="253.4" y="511.6"/>
      <point x="284.0" y="511.6" type="curve" smooth="yes"/>
      <point x="315.6" y="511.6"/>
      <point x="342.6" y="487.8"/>
      <point x="342.6" y="457.2" type="curve" smooth="yes"/>
      <point x="342.6" y="417.4"/>
      <point x="316.4" y="375.2"/>
      <point x="236.8" y="375.2" type="curve"/>
      <point x="236.8" y="277.6" type="line"/>
      <point x="318.0" y="277.6"/>
      <point x="360.0" y="231.2"/>
      <point x="360.0" y="183.2" type="curve" smooth="yes"/>
      <point x="360.0" y="142.2"/>
      <point x="328.4" y="113.0"/>
      <point x="289.0" y="113.0" type="curve" smooth="yes"/>
      <point x="247.6" y="113.0"/>
      <point x="216.0" y="142.2"/>
      <point x="216.0" y="183.2" type="curve"/>
      <point x="72.0" y="183.2" type="line"/>
      <point x="72.0" y="64.0"/>
      <point x="170.2" y="-31.0"/>
    </contour>
  </outline>
</glyph>
<glyph name="fourinferior" format="2">
  <advance width="690.5"/>
  <unicode hex="2084"/>
  <outline>
    <contour>
      <point x="343.0" y="0.0" type="line"/>
      <point x="487.0" y="0.0" type="line"/>
      <point x="487.0" y="99.2" type="line"/>
      <point x="546.4" y="99.2" type="line"/>
      <point x="546.4" y="243.2" type="line"/>
      <point x="487.0" y="243.2" type="line"/>
      <point x="487.0" y="631.0" type="line"/>
      <point x="323.6" y="631.0" type="line"/>
      <point x="96.0" y="272.4" type="line"/>
      <point x="96.0" y="99.2" type="line"/>
      <point x="343.0" y="99.2" type="line"/>
    </contour>
    <contour>
      <point x="237.4" y="243.2" type="line"/>
      <point x="355.6" y="430.8" type="line"/>
      <point x="355.6" y="243.2" type="line"/>
    </contour>
  </outline>
</glyph>
<glyph name="fiveinferior" format="2">
  <advance width="697.0"/>
  <unicode hex="2085"/>
  <outline>
    <contour>
      <point x="317.6" y="-31.0" type="curve"/>
      <point x="447.2" y="-31.0"/>
      <point x="553.2" y="69.2"/>
      <point x="553.2" y="199.2" type="curve"/>
      <point x="553.2" y="330.2"/>
      <point x="468.4" y="432.0"/>
      <point x="320.8" y="432.0" type="curve"/>
      <point x="278.8" y="430.4" type="line"/>
      <point x="281.6" y="500.2" type="line"/>
      <point x="493.6" y="500.2" type="line"/>
      <point x="493.6" y="627.4" type="line"/>
      <point x="150.6" y="627.4" type="line"/>
      <point x="116.6" y="279.6" type="line"/>
      <point x="317.6" y="288.0" type="line"/>
      <point x="368.0" y="288.0"/>
      <point x="409.2" y="248.6"/>
      <point x="409.2" y="199.2" type="curve"/>
      <point x="409.2" y="150.0"/>
      <point x="368.0" y="113.0"/>
      <point x="317.6" y="113.0" type="curve"/>
      <point x="268.2" y="113.0"/>
      <point x="228.0" y="150.0"/>
      <point x="228.0" y="199.2" type="curve"/>
      <point x="84.0" y="199.2" type="line"/>
      <point x="84.0" y="69.2"/>
      <point x="189.6" y="-31.0"/>
    </contour>
  </outline>
</glyph>
<glyph name="sixinferior" format="2">
  <advance width="682.0"/>
  <unicode hex="2086"/>
  <outline>
    <contour>
      <point x="329.0" y="-31.0" type="curve" smooth="yes"/>
      <point x="454.8" y="-31.0"/>
      <point x="562.0" y="65.6"/>
      <point x="562.0" y="196.6" type="curve" smooth="yes"/>
      <point x="562.0" y="311.4"/>
      <point x="482.8" y="405.4"/>
      <point x="356.4" y="424.2" type="curve"/>
      <point x="474.4" y="626.6" type="line"/>
      <point x="307.0" y="626.6" type="line"/>
      <point x="118.2" y="301.4"/>
      <point x="96.0" y="272.8"/>
      <point x="96.0" y="199.2" type="curve" smooth="yes"/>
      <point x="96.0" y="69.2"/>
      <point x="197.4" y="-31.0"/>
    </contour>
    <contour>
      <point x="329.0" y="113.0" type="curve" smooth="yes"/>
      <point x="288.6" y="113.0"/>
      <point x="247.6" y="134.8"/>
      <point x="241.6" y="185.4" type="curve" smooth="yes"/>
      <point x="236.2" y="233.2"/>
      <point x="268.4" y="285.6"/>
      <point x="329.0" y="285.6" type="curve" smooth="yes"/>
      <point x="372.0" y="285.6"/>
      <point x="410.4" y="255.8"/>
      <point x="415.8" y="209.6" type="curve" smooth="yes"/>
      <point x="423.4" y="156.6"/>
      <point x="382.0" y="113.0"/>
    </contour>
  </outline>
</glyph>
<glyph name="seveninferior" format="2">
  <advance width="667.5"/>
  <unicode hex="2087"/>
  <outline>
    <contour>
      <point x="148.2" y="0.0" type="line"/>
      <point x="313.4" y="0.0" type="line"/>
      <point x="595.6" y="490.8" type="line"/>
      <point x="595.6" y="631.0" type="line"/>
      <point x="120.0" y="631.0" type="line"/>
      <point x="120.0" y="487.0" type="line"/>
      <point x="429.2" y="487.0" type="line"/>
    </contour>
  </outline>
</glyph>
<glyph name="eightinferior" format="2">
  <advance width="625.25"/>
  <unicode hex="2088"/>
  <outline>
    <contour>
      <point x="311.4" y="-31.0" type="curve" smooth="yes"/>
      <point x="433.2" y="-31.0"/>
      <point x="529.2" y="60.2"/>
      <point x="529.2" y="179.4" type="curve" smooth="yes"/>
      <point x="529.2" y="238.0"/>
      <point x="506.2" y="291.4"/>
      <point x="469.6" y="328.6" type="curve"/>
      <point x="498.4" y="362.6"/>
      <point x="516.0" y="408.0"/>
      <point x="516.0" y="454.6" type="curve" smooth="yes"/>
      <point x="516.0" y="569.0"/>
      <point x="423.6" y="656.0"/>
      <point x="311.4" y="656.0" type="curve" smooth="yes"/>
      <point x="200.0" y="656.0"/>
      <point x="109.2" y="569.0"/>
      <point x="109.2" y="454.6" type="curve" smooth="yes"/>
      <point x="109.2" y="408.0"/>
      <point x="127.2" y="362.6"/>
      <point x="155.6" y="328.6" type="curve"/>
      <point x="119.4" y="291.4"/>
      <point x="96.0" y="238.0"/>
      <point x="96.0" y="179.4" type="curve" smooth="yes"/>
      <point x="96.0" y="60.2"/>
      <point x="192.4" y="-31.0"/>
    </contour>
    <contour>
      <point x="311.4" y="110.8" type="curve" smooth="yes"/>
      <point x="272.4" y="110.8"/>
      <point x="240.0" y="140.0"/>
      <point x="240.0" y="179.4" type="curve" smooth="yes"/>
      <point x="240.0" y="220.0"/>
      <point x="272.4" y="252.4"/>
      <point x="311.4" y="252.4" type="curve" smooth="yes"/>
      <point x="352.8" y="252.4"/>
      <point x="385.2" y="220.0"/>
      <point x="385.2" y="179.4" type="curve" smooth="yes"/>
      <point x="385.2" y="140.0"/>
      <point x="352.8" y="110.8"/>
    </contour>
    <contour>
      <point x="311.4" y="396.4" type="curve" smooth="yes"/>
      <point x="280.2" y="396.4"/>
      <point x="253.2" y="424.0"/>
      <point x="253.2" y="454.6" type="curve" smooth="yes"/>
      <point x="253.2" y="488.2"/>
      <point x="280.2" y="512.0"/>
      <point x="311.4" y="512.0" type="curve" smooth="yes"/>
      <point x="345.4" y="512.0"/>
      <point x="372.0" y="488.2"/>
      <point x="372.0" y="454.6" type="curve" smooth="yes"/>
      <point x="372.0" y="424.0"/>
      <point x="345.4" y="396.4"/>
    </contour>
  </outline>
</glyph>
<glyph name="nineinferior" format="2">
  <advance width="658.5"/>
  <unicode hex="2089"/>
  <outline>
    <contour>
      <point x="158.4" y="0.0" type="line"/>
      <point x="324.4" y="0.0" type="line"/>
      <point x="506.4" y="314.0" type="line"/>
      <point x="596.2" y="471.2"/>
      <point x="482.4" y="659.2"/>
      <point x="305.4" y="659.2" type="curve" smooth="yes"/>
      <point x="188.2" y="659.2"/>
      <point x="90.8" y="573.4"/>
      <point x="80.0" y="458.8" type="curve" smooth="yes"/>
      <point x="54.4" y="339.4"/>
      <point x="143.4" y="211.2"/>
      <point x="275.4" y="204.0" type="curve"/>
    </contour>
    <contour>
      <point x="305.4" y="341.0" type="curve" smooth="yes"/>
      <point x="271.0" y="341.0"/>
      <point x="222.8" y="362.2"/>
      <point x="217.6" y="417.4" type="curve" smooth="yes"/>
      <point x="211.6" y="466.4"/>
      <point x="247.2" y="515.2"/>
      <point x="305.4" y="515.2" type="curve" smooth="yes"/>
      <point x="344.8" y="515.2"/>
      <point x="387.6" y="484.2"/>
      <point x="393.2" y="441.6" type="curve" smooth="yes"/>
      <point x="399.2" y="388.4"/>
      <point x="358.2" y="341.0"/>
    </contour>
  </outline>
</glyph>
<glyph name="euro" format="2">
  <advance width="1122.5"/>
  <unicode hex="20AC"/>
  <outline>
    <contour>
      <point x="1042.4" y="-15.6" type="curve"/>
      <point x="1042.4" y="232.0" type="line"/>
      <point x="825.2" y="173.2"/>
      <point x="619.2" y="281.2"/>
      <point x="526.4" y="484.0" type="curve"/>
      <point x="798.0" y="484.0" type="line"/>
      <point x="798.0" y="649.2" type="line"/>
      <point x="477.6" y="649.2" type="line"/>
      <point x="476.0" y="748.0" type="line"/>
      <point x="798.0" y="748.0" type="line"/>
      <point x="798.0" y="913.2" type="line"/>
      <point x="525.2" y="913.2" type="line"/>
      <point x="613.2" y="1111.6"/>
      <point x="817.6" y="1229.2"/>
      <point x="1042.4" y="1168.4" type="curve"/>
      <point x="1042.4" y="1416.0" type="line"/>
      <point x="687.6" y="1476.0"/>
      <point x="364.0" y="1259.2"/>
      <point x="265.2" y="913.2" type="curve"/>
      <point x="80.0" y="913.2" type="line"/>
      <point x="80.0" y="748.0" type="line"/>
      <point x="235.6" y="748.0" type="line"/>
      <point x="235.6" y="649.2" type="line"/>
      <point x="80.0" y="649.2" type="line"/>
      <point x="80.0" y="484.0" type="line"/>
      <point x="265.2" y="484.0" type="line"/>
      <point x="366.0" y="144.0"/>
      <point x="684.0" y="-76.0"/>
    </contour>
  </outline>
</glyph>
<glyph name="leftArrow" format="2">
  <advance width="1405.0"/>
  <unicode hex="2190"/>
  <outline>
    <contour>
      <point x="610.4" y="219.6" type="line"/>
      <point x="780.0" y="389.2" type="line"/>
      <point x="539.2" y="630.0" type="line"/>
      <point x="1325.2" y="630.0" type="line"/>
      <point x="1325.2" y="870.0" type="line"/>
      <point x="539.2" y="870.0" type="line"/>
      <point x="780.0" y="1111.2" type="line"/>
      <point x="610.4" y="1280.4" type="line"/>
      <point x="80.0" y="750.0" type="line"/>
    </contour>
  </outline>
</glyph>
<glyph name="upArrow" format="2">
  <advance width="1221.5"/>
  <unicode hex="2191"/>
  <outline>
    <contour>
      <point x="491.2" y="126.4" type="line"/>
      <point x="731.2" y="126.4" type="line"/>
      <point x="731.2" y="913.2" type="line"/>
      <point x="972.0" y="673.2" type="line"/>
      <point x="1141.6" y="843.2" type="line"/>
      <point x="611.2" y="1373.6" type="line"/>
      <point x="80.0" y="843.2" type="line"/>
      <point x="250.0" y="673.2" type="line"/>
      <point x="491.2" y="913.2" type="line"/>
    </contour>
  </outline>
</glyph>
<glyph name="rightArrow" format="2">
  <advance width="1406.5"/>
  <unicode hex="2192"/>
  <outline>
    <contour>
      <point x="795.6" y="219.6" type="line"/>
      <point x="1326.4" y="750.0" type="line"/>
      <point x="795.6" y="1280.4" type="line"/>
      <point x="626.0" y="1111.2" type="line"/>
      <point x="865.6" y="870.0" type="line"/>
      <point x="80.0" y="870.0" type="line"/>
      <point x="80.0" y="630.0" type="line"/>
      <point x="865.6" y="630.0" type="line"/>
      <point x="626.0" y="389.2" type="line"/>
    </contour>
  </outline>
</glyph>
<glyph name="downArrow" format="2">
  <advance width="1220.0"/>
  <unicode hex="2193"/>
  <outline>
    <contour>
      <point x="609.2" y="127.2" type="line"/>
      <point x="1140.0" y="657.6" type="line"/>
      <point x="970.4" y="827.2" type="line"/>
      <point x="729.2" y="587.6" type="line"/>
      <point x="729.2" y="1373.2" type="line"/>
      <point x="489.2" y="1373.2" type="line"/>
      <point x="489.2" y="587.6" type="line"/>
      <point x="249.6" y="827.2" type="line"/>
      <point x="80.0" y="657.6" type="line"/>
    </contour>
  </outline>
</glyph>
<glyph name="leftRightArrow" format="2">
  <advance width="1836.5"/>
  <unicode hex="2194"/>
  <outline>
    <contour>
      <point x="610.4" y="219.6" type="line"/>
      <point x="780.0" y="389.2" type="line"/>
      <point x="539.2" y="630.0" type="line"/>
      <point x="1295.6" y="630.0" type="line"/>
      <point x="1056.0" y="389.2" type="line"/>
      <point x="1225.6" y="219.6" type="line"/>
      <point x="1756.4" y="750.0" type="line"/>
      <point x="1225.6" y="1280.4" type="line"/>
      <point x="1056.0" y="1111.2" type="line"/>
      <point x="1295.6" y="870.0" type="line"/>
      <point x="539.2" y="870.0" type="line"/>
      <point x="780.0" y="1111.2" type="line"/>
      <point x="610.4" y="1280.4" type="line"/>
      <point x="80.0" y="750.0" type="line"/>
    </contour>
  </outline>
</glyph>
<glyph name="upDownArrow" format="2">
  <advance width="1221.5"/>
  <unicode hex="2195"/>
  <outline>
    <contour>
      <point x="610.4" y="-88.39999999999999" type="line"/>
      <point x="1141.6" y="442.4" type="line"/>
      <point x="971.6" y="612.4" type="line"/>
      <point x="730.4" y="372.0" type="line"/>
      <point x="730.4" y="1128.0" type="line"/>
      <point x="971.6" y="888.0" type="line"/>
      <point x="1141.6" y="1058.0" type="line"/>
      <point x="610.4" y="1588.4" type="line"/>
      <point x="80.0" y="1058.0" type="line"/>
      <point x="249.6" y="888.0" type="line"/>
      <point x="490.4" y="1128.0" type="line"/>
      <point x="490.4" y="372.0" type="line"/>
      <point x="249.6" y="612.4" type="line"/>
      <point x="80.0" y="442.4" type="line"/>
    </contour>
  </outline>
</glyph>
<glyph name="northWestArrow" format="2">
  <advance width="1126.0"/>
  <unicode hex="2196"/>
  <outline>
    <contour>
      <point x="876.4" y="267.4" type="line"/>
      <point x="1046.0" y="436.6" type="line"/>
      <point x="490.0" y="992.6" type="line"/>
      <point x="830.0" y="992.6" type="line"/>
      <point x="830.0" y="1232.6" type="line"/>
      <point x="80.0" y="1232.6" type="line"/>
      <point x="80.0" y="482.6" type="line"/>
      <point x="320.0" y="482.6" type="line"/>
      <point x="320.0" y="823.4" type="line"/>
    </contour>
  </outline>
</glyph>
<glyph name="northEastArrow" format="2">
  <advance width="1125.5"/>
  <unicode hex="2197"/>
  <outline>
    <contour>
      <point x="249.6" y="268.0" type="line"/>
      <point x="805.6" y="822.4" type="line"/>
      <point x="805.6" y="482.0" type="line"/>
      <point x="1045.6" y="482.0" type="line"/>
      <point x="1045.6" y="1232.0" type="line"/>
      <point x="294.0" y="1232.0" type="line"/>
      <point x="294.0" y="992.0" type="line"/>
      <point x="636.0" y="992.0" type="line"/>
      <point x="80.0" y="437.6" type="line"/>
    </contour>
  </outline>
</glyph>
<glyph name="southEastArrow" format="2">
  <advance width="1125.5"/>
  <unicode hex="2198"/>
  <outline>
    <contour>
      <point x="295.6" y="268.0" type="line"/>
      <point x="1045.6" y="268.0" type="line"/>
      <point x="1045.6" y="1018.0" type="line"/>
      <point x="805.6" y="1018.0" type="line"/>
      <point x="805.6" y="677.6" type="line"/>
      <point x="249.6" y="1232.0" type="line"/>
      <point x="80.0" y="1062.4" type="line"/>
      <point x="636.0" y="508.0" type="line"/>
      <point x="295.6" y="508.0" type="line"/>
    </contour>
  </outline>
</glyph>
<glyph name="southWestArrow" format="2">
  <advance width="1125.5"/>
  <unicode hex="2199"/>
  <outline>
    <contour>
      <point x="80.0" y="268.0" type="line"/>
      <point x="830.0" y="268.0" type="line"/>
      <point x="830.0" y="508.0" type="line"/>
      <point x="489.6" y="508.0" type="line"/>
      <point x="1045.6" y="1062.4" type="line"/>
      <point x="876.0" y="1232.0" type="line"/>
      <point x="320.0" y="677.6" type="line"/>
      <point x="320.0" y="1018.0" type="line"/>
      <point x="80.0" y="1018.0" type="line"/>
    </contour>
  </outline>
</glyph>
<glyph name="partialdiff" format="2">
  <advance width="1165.5"/>
  <unicode hex="2202"/>
  <outline>
    <contour>
      <point x="583.6" y="-26.0" type="curve"/>
      <point x="876.0" y="-26.0"/>
      <point x="1085.6" y="198.0"/>
      <point x="1085.6" y="514.4" type="curve"/>
      <point x="1084.4" y="1047.6"/>
      <point x="790.0" y="1524.4"/>
      <point x="343.6" y="1524.4" type="curve"/>
      <point x="345.2" y="1284.4" type="line"/>
      <point x="591.6" y="1284.4"/>
      <point x="692.4" y="1083.6"/>
      <point x="749.2" y="916.4" type="curve"/>
      <point x="707.2" y="955.6"/>
      <point x="647.6" y="979.6"/>
      <point x="583.6" y="979.6" type="curve"/>
      <point x="306.0" y="979.6"/>
      <point x="80.0" y="754.0"/>
      <point x="80.0" y="476.0" type="curve"/>
      <point x="80.0" y="199.6"/>
      <point x="306.0" y="-26.0"/>
    </contour>
    <contour>
      <point x="583.6" y="214.0" type="curve"/>
      <point x="438.0" y="214.0"/>
      <point x="320.0" y="333.6"/>
      <point x="320.0" y="476.0" type="curve"/>
      <point x="320.0" y="619.6"/>
      <point x="437.2" y="739.6"/>
      <point x="583.6" y="739.6" type="curve"/>
      <point x="728.0" y="739.6"/>
      <point x="846.0" y="620.4"/>
      <point x="846.0" y="476.0" type="curve"/>
      <point x="846.0" y="334.4"/>
      <point x="729.2" y="214.0"/>
    </contour>
  </outline>
</glyph>
<glyph name="emptyset" format="2">
  <advance width="1160.0"/>
  <unicode hex="2205"/>
  <outline>
    <contour>
      <point x="360.4" y="-74.4" type="line"/>
      <point x="407.6" y="7.600000000000001" type="line"/>
      <point x="461.2" y="-14.0"/>
      <point x="518.4" y="-26.0"/>
      <point x="580.0" y="-26.0" type="curve" smooth="yes"/>
      <point x="856.0" y="-26.0"/>
      <point x="1080.0" y="210.0"/>
      <point x="1080.0" y="500.0" type="curve" smooth="yes"/>
      <point x="1080.0" y="655.2"/>
      <point x="1017.2" y="793.6"/>
      <point x="917.2" y="889.6" type="curve"/>
      <point x="969.2" y="979.6" type="line"/>
      <point x="800.0" y="1077.2" type="line"/>
      <point x="751.2" y="995.2" type="line"/>
      <point x="699.6" y="1016.4"/>
      <point x="640.4" y="1028.0"/>
      <point x="580.0" y="1028.0" type="curve" smooth="yes"/>
      <point x="304.0" y="1028.0"/>
      <point x="80.0" y="792.0"/>
      <point x="80.0" y="500.0" type="curve" smooth="yes"/>
      <point x="80.0" y="347.6"/>
      <point x="143.6" y="209.2"/>
      <point x="243.6" y="113.2" type="curve"/>
      <point x="191.6" y="23.2" type="line"/>
    </contour>
    <contour>
      <point x="362.0" y="315.6" type="line"/>
      <point x="325.2" y="360.4"/>
      <point x="302.0" y="419.2"/>
      <point x="302.0" y="486.4" type="curve" smooth="yes"/>
      <point x="302.0" y="685.6"/>
      <point x="469.6" y="841.6"/>
      <point x="643.2" y="803.6" type="curve"/>
    </contour>
    <contour>
      <point x="517.2" y="199.2" type="curve"/>
      <point x="798.4" y="687.2" type="line"/>
      <point x="834.0" y="641.6"/>
      <point x="858.0" y="581.2"/>
      <point x="858.0" y="513.6" type="curve" smooth="yes"/>
      <point x="858.0" y="316.4"/>
      <point x="696.4" y="160.0"/>
    </contour>
  </outline>
</glyph>
<glyph name="product" format="2">
  <advance width="1280.0"/>
  <unicode hex="220F"/>
  <outline>
    <contour>
      <point x="80.0" y="1400.0" type="line"/>
      <point x="80.0" y="1160.0" type="line"/>
      <point x="1200.0" y="1160.0" type="line"/>
      <point x="1200.0" y="1400.0" type="line"/>
    </contour>
    <contour>
      <point x="220.0" y="1236.4" type="line"/>
      <point x="220.0" y="0.0" type="line"/>
      <point x="460.0" y="0.0" type="line"/>
      <point x="460.0" y="1236.4" type="line"/>
    </contour>
    <contour>
      <point x="820.0" y="1236.4" type="line"/>
      <point x="820.0" y="0.0" type="line"/>
      <point x="1060.0" y="0.0" type="line"/>
      <point x="1060.0" y="1236.4" type="line"/>
    </contour>
  </outline>
</glyph>
<glyph name="summation" format="2">
  <advance width="924.5"/>
  <unicode hex="2211"/>
  <outline>
    <contour>
      <point x="80.0" y="0.0" type="line"/>
      <point x="864.4" y="0.0" type="line"/>
      <point x="864.4" y="240.0" type="line"/>
      <point x="350.4" y="240.0" type="line"/>
      <point x="583.6" y="698.0" type="line"/>
      <point x="350.4" y="1156.0" type="line"/>
      <point x="864.4" y="1156.0" type="line"/>
      <point x="864.4" y="1396.0" type="line"/>
      <point x="80.0" y="1396.0" type="line"/>
      <point x="80.0" y="1156.0" type="line"/>
      <point x="314.4" y="698.0" type="line"/>
      <point x="80.0" y="240.0" type="line"/>
    </contour>
  </outline>
</glyph>
<glyph name="minus" format="2">
  <advance width="1160.0"/>
  <unicode hex="2212"/>
  <outline>
    <contour>
      <point x="80.0" y="480.0" type="line"/>
      <point x="1080.0" y="480.0" type="line"/>
      <point x="1080.0" y="720.0" type="line"/>
      <point x="80.0" y="720.0" type="line"/>
    </contour>
  </outline>
</glyph>
<glyph name="radical" format="2">
  <advance width="1343.5"/>
  <unicode hex="221A"/>
  <outline>
    <contour>
      <point x="899.6" y="1400.0" type="line"/>
      <point x="491.2" y="282.0" type="line"/>
      <point x="334.4" y="708.0" type="line"/>
      <point x="80.0" y="708.0" type="line"/>
      <point x="338.0" y="0.0" type="line"/>
      <point x="643.6" y="0.0" type="line"/>
      <point x="1067.6" y="1160.0" type="line"/>
      <point x="1263.6" y="1160.0" type="line"/>
      <point x="1263.6" y="1400.0" type="line"/>
    </contour>
  </outline>
</glyph>
<glyph name="infinity" format="2">
  <advance width="1519.5"/>
  <unicode hex="221E"/>
  <outline>
    <contour>
      <point x="436.0" y="256.0" type="curve" smooth="yes"/>
      <point x="567.6" y="248.4"/>
      <point x="658.0" y="311.6"/>
      <point x="760.0" y="433.2" type="curve"/>
      <point x="862.0" y="313.6"/>
      <point x="950.4" y="256.0"/>
      <point x="1085.6" y="256.0" type="curve" smooth="yes"/>
      <point x="1295.6" y="260.4"/>
      <point x="1439.6" y="416.0"/>
      <point x="1439.6" y="618.4" type="curve" smooth="yes"/>
      <point x="1439.6" y="812.0"/>
      <point x="1308.0" y="977.6"/>
      <point x="1078.4" y="981.2" type="curve" smooth="yes"/>
      <point x="954.4" y="981.2"/>
      <point x="860.0" y="921.2"/>
      <point x="760.0" y="802.4" type="curve"/>
      <point x="662.0" y="920.0"/>
      <point x="571.2" y="981.2"/>
      <point x="436.0" y="981.2" type="curve" smooth="yes"/>
      <point x="225.6" y="977.6"/>
      <point x="80.0" y="819.6"/>
      <point x="80.0" y="618.4" type="curve" smooth="yes"/>
      <point x="80.0" y="428.0"/>
      <point x="215.2" y="276.0"/>
    </contour>
    <contour>
      <point x="434.0" y="475.2" type="curve" smooth="yes"/>
      <point x="354.4" y="478.4"/>
      <point x="297.6" y="539.2"/>
      <point x="297.6" y="618.4" type="curve" smooth="yes"/>
      <point x="297.6" y="687.6"/>
      <point x="348.4" y="755.6"/>
      <point x="434.0" y="760.4" type="curve" smooth="yes"/>
      <point x="511.6" y="763.6"/>
      <point x="570.4" y="691.6"/>
      <point x="627.2" y="618.4" type="curve"/>
      <point x="575.2" y="550.0"/>
      <point x="513.6" y="475.2"/>
    </contour>
    <contour>
      <point x="1087.2" y="475.2" type="curve" smooth="yes"/>
      <point x="1012.4" y="473.6"/>
      <point x="955.2" y="540.4"/>
      <point x="894.0" y="618.4" type="curve"/>
      <point x="955.2" y="696.4"/>
      <point x="1009.6" y="762.0"/>
      <point x="1090.4" y="762.0" type="curve" smooth="yes"/>
      <point x="1170.4" y="758.4"/>
      <point x="1223.6" y="693.2"/>
      <point x="1223.6" y="618.4" type="curve" smooth="yes"/>
      <point x="1223.6" y="546.4"/>
      <point x="1172.0" y="480.0"/>
    </contour>
  </outline>
</glyph>
<glyph name="integral" format="2">
  <advance width="1066.0"/>
  <unicode hex="222B"/>
  <outline>
    <contour>
      <point x="351.2" y="-26.0" type="curve" smooth="yes"/>
      <point x="465.2" y="-25.6"/>
      <point x="569.2" y="32.4"/>
      <point x="601.2" y="175.2" type="curve"/>
      <point x="696.4" y="1162.4" type="line"/>
      <point x="701.2" y="1203.6"/>
      <point x="728.8" y="1229.6"/>
      <point x="762.4" y="1231.2" type="curve"/>
      <point x="803.2" y="1236.4"/>
      <point x="839.2" y="1214.4"/>
      <point x="846.4" y="1153.6" type="curve"/>
      <point x="985.2" y="1140.0" type="line"/>
      <point x="998.8" y="1287.6"/>
      <point x="878.8" y="1424.4"/>
      <point x="725.6" y="1426.0" type="curve" smooth="yes"/>
      <point x="605.2" y="1427.2"/>
      <point x="479.6" y="1339.6"/>
      <point x="463.6" y="1224.0" type="curve"/>
      <point x="367.2" y="231.6" type="line"/>
      <point x="361.2" y="190.0"/>
      <point x="329.2" y="165.2"/>
      <point x="286.8" y="166.0" type="curve" smooth="yes"/>
      <point x="243.2" y="168.0"/>
      <point x="237.6" y="202.39999999999998"/>
      <point x="233.2" y="246.39999999999998" type="curve"/>
      <point x="80.4" y="258.4" type="line"/>
      <point x="70.4" y="94.4"/>
      <point x="191.6" y="-25.6"/>
    </contour>
  </outline>
</glyph>
<glyph name="notequal" format="2">
  <advance width="1160.0"/>
  <unicode hex="2260"/>
  <outline>
    <contour>
      <point x="874.4" y="1182.0" type="line"/>
      <point x="625.2" y="1182.0" type="line"/>
      <point x="552.4" y="934.4" type="line"/>
      <point x="80.0" y="934.4" type="line"/>
      <point x="80.0" y="694.4" type="line"/>
      <point x="482.0" y="694.4" type="line"/>
      <point x="426.4" y="505.6" type="line"/>
      <point x="80.0" y="505.6" type="line"/>
      <point x="80.0" y="265.6" type="line"/>
      <point x="356.4" y="265.6" type="line"/>
      <point x="283.6" y="18.0" type="line"/>
      <point x="533.2" y="18.0" type="line"/>
      <point x="606.0" y="265.6" type="line"/>
      <point x="1080.0" y="265.6" type="line"/>
      <point x="1080.0" y="505.6" type="line"/>
      <point x="676.4" y="505.6" type="line"/>
      <point x="731.6" y="694.4" type="line"/>
      <point x="1080.0" y="694.4" type="line"/>
      <point x="1080.0" y="934.4" type="line"/>
      <point x="802.0" y="934.4" type="line"/>
    </contour>
  </outline>
</glyph>
<glyph name="lessequal" format="2">
  <advance width="1160.0"/>
  <unicode hex="2264"/>
  <outline>
    <contour>
      <point x="1080.0" y="333.2" type="line"/>
      <point x="1080.0" y="582.4" type="line"/>
      <point x="254.0" y="818.0" type="line"/>
      <point x="1080.0" y="1053.2" type="line"/>
      <point x="1080.0" y="1303.2" type="line"/>
      <point x="80.0" y="1017.2" type="line"/>
      <point x="80.0" y="617.2" type="line"/>
    </contour>
    <contour>
      <point x="80.0" y="0.0" type="line"/>
      <point x="1080.0" y="0.0" type="line"/>
      <point x="1080.0" y="240.0" type="line"/>
      <point x="80.0" y="240.0" type="line"/>
    </contour>
  </outline>
</glyph>
<glyph name="greaterequal" format="2">
  <advance width="1160.0"/>
  <unicode hex="2265"/>
  <outline>
    <contour>
      <point x="80.0" y="351.2" type="line"/>
      <point x="1080.0" y="626.0" type="line"/>
      <point x="1080.0" y="1026.0" type="line"/>
      <point x="80.0" y="1303.2" type="line"/>
      <point x="80.0" y="1053.2" type="line"/>
      <point x="906.0" y="827.2" type="line"/>
      <point x="80.0" y="600.4" type="line"/>
    </contour>
    <contour>
      <point x="80.0" y="0.0" type="line"/>
      <point x="1080.0" y="0.0" type="line"/>
      <point x="1080.0" y="240.0" type="line"/>
      <point x="80.0" y="240.0" type="line"/>
    </contour>
  </outline>
</glyph>
<glyph name="lozenge" format="2">
  <advance width="1074.0"/>
  <unicode hex="25CA"/>
  <outline>
    <contour>
      <point x="328.0" y="0.0" type="line"/>
      <point x="746.0" y="0.0" type="line"/>
      <point x="1014.0" y="702.0" type="line"/>
      <point x="748.0" y="1400.0" type="line"/>
      <point x="326.0" y="1400.0" type="line"/>
      <point x="60.0" y="702.0" type="line"/>
    </contour>
    <contour>
      <point x="537.2" y="134.0" type="line"/>
      <point x="313.2" y="702.0" type="line"/>
      <point x="537.2" y="1270.0" type="line"/>
      <point x="763.2" y="702.0" type="line"/>
    </contour>
  </outline>
</glyph>
<glyph name="replacementCharacter" format="2">
  <advance width="1630.0"/>
  <unicode hex="FFFD"/>
  <outline>
    <contour>
      <point x="816.0" y="-26.0" type="curve" smooth="yes"/>
      <point x="888.0" y="-26.0"/>
      <point x="960.0" y="2.0"/>
      <point x="1014.0" y="56.0" type="curve" smooth="yes"/>
      <point x="1428.0" y="470.0" type="line" smooth="yes"/>
      <point x="1484.0" y="526.0"/>
      <point x="1510.0" y="598.0"/>
      <point x="1510.0" y="670.0" type="curve" smooth="yes"/>
      <point x="1510.0" y="742.0"/>
      <point x="1484.0" y="812.0"/>
      <point x="1428.0" y="868.0" type="curve" smooth="yes"/>
      <point x="1014.0" y="1282.0" type="line" smooth="yes"/>
      <point x="958.0" y="1338.0"/>
      <point x="888.0" y="1364.0"/>
      <point x="816.0" y="1364.0" type="curve" smooth="yes"/>
      <point x="744.0" y="1364.0"/>
      <point x="672.0" y="1338.0"/>
      <point x="616.0" y="1282.0" type="curve" smooth="yes"/>
      <point x="202.0" y="868.0" type="line" smooth="yes"/>
      <point x="148.0" y="814.0"/>
      <point x="120.0" y="742.0"/>
      <point x="120.0" y="670.0" type="curve" smooth="yes"/>
      <point x="120.0" y="598.0"/>
      <point x="146.0" y="526.0"/>
      <point x="202.0" y="470.0" type="curve" smooth="yes"/>
      <point x="616.0" y="56.0" type="line" smooth="yes"/>
      <point x="672.0" y="0.0"/>
      <point x="744.0" y="-26.0"/>
    </contour>
    <contour>
      <point x="821.2" y="260.0" type="curve" smooth="yes"/>
      <point x="775.2" y="260.0"/>
      <point x="738.4" y="296.4"/>
      <point x="738.4" y="344.0" type="curve" smooth="yes"/>
      <point x="738.4" y="388.4"/>
      <point x="775.2" y="425.2"/>
      <point x="821.2" y="425.2" type="curve" smooth="yes"/>
      <point x="867.6" y="425.2"/>
      <point x="903.6" y="388.4"/>
      <point x="903.6" y="344.0" type="curve" smooth="yes"/>
      <point x="903.6" y="296.4"/>
      <point x="867.6" y="260.0"/>
    </contour>
    <contour>
      <point x="733.6" y="514.0" type="line"/>
      <point x="733.6" y="516.0" type="line" smooth="yes"/>
      <point x="733.6" y="599.2"/>
      <point x="777.2" y="676.4"/>
      <point x="852.4" y="714.0" type="curve" smooth="yes"/>
      <point x="878.0" y="727.2"/>
      <point x="894.0" y="757.2"/>
      <point x="894.0" y="790.0" type="curve" smooth="yes"/>
      <point x="894.0" y="837.6"/>
      <point x="856.0" y="875.2"/>
      <point x="808.4" y="875.2" type="curve" smooth="yes"/>
      <point x="761.2" y="875.2"/>
      <point x="723.2" y="837.6"/>
      <point x="723.2" y="790.0" type="curve"/>
      <point x="558.0" y="790.0" type="line"/>
      <point x="558.0" y="928.0"/>
      <point x="670.0" y="1040.0"/>
      <point x="808.4" y="1040.0" type="curve" smooth="yes"/>
      <point x="946.4" y="1040.0"/>
      <point x="1059.2" y="928.0"/>
      <point x="1059.2" y="790.0" type="curve" smooth="yes"/>
      <point x="1059.2" y="696.0"/>
      <point x="1008.4" y="613.6"/>
      <point x="930.0" y="569.2" type="curve" smooth="yes"/>
      <point x="910.4" y="558.0"/>
      <point x="898.4" y="538.0"/>
      <point x="898.4" y="516.0" type="curve" smooth="yes"/>
      <point x="898.4" y="514.0" type="line"/>
    </contour>
  </outline>
</glyph>
